<svg width="89" height="86" viewBox="0 0 89 86" fill="none" xmlns="http://www.w3.org/2000/svg">
<path d="M35.5693 1.75L35.8672 1.86133C37.1025 2.32537 37.7348 2.6568 38.6104 3.1582L38.6113 3.15723C41.5157 2.27522 44.3778 3.66577 46.2051 5.47266C47.9395 7.18782 49.3256 9.87028 48.6523 12.4473L48.5801 12.6963C47.912 14.8195 47.9418 15.7912 48.1455 16.6572C48.2646 17.1636 48.4552 17.6817 48.7402 18.4434C48.918 18.9185 49.1187 19.4613 49.3301 20.0928C50.013 20.1496 50.787 20.205 51.6387 20.2676C52.9685 20.3653 54.4473 20.4848 55.8926 20.6787C57.3307 20.8716 58.7963 21.1456 60.0908 21.5723C61.3542 21.9887 62.6469 22.6111 63.5479 23.6211L63.5488 23.6221C64.292 24.4562 64.6 25.5879 64.75 26.5488C64.9087 27.5652 64.9334 28.6977 64.9023 29.7832C64.8557 31.4142 64.6687 33.1572 64.5371 34.417C65.6913 35.1366 67.2197 35.8681 68.8984 36.582C71.0226 37.4853 73.0556 38.2338 74.8135 38.9531C76.4282 39.6137 80.3565 41.039 83.0713 43.0137C84.4089 43.9867 85.7919 45.3264 86.2295 47.0762C86.6246 48.6564 86.1691 50.1686 85.0654 51.5332C85.3192 52.2638 85.4019 53.0012 85.2812 53.7295C85.1316 54.6321 84.7 55.3645 84.1953 55.9365C83.5441 56.6744 82.6884 57.2298 81.9053 57.6504C81.893 57.9425 81.8674 58.2433 81.8125 58.5439C81.6702 59.3232 81.3603 60.0472 80.8135 60.7832L80.8125 60.7852C79.5749 62.4478 77.4715 63.4102 75.6309 64.0127C74.0453 64.5317 72.3918 64.8605 71.0869 65.0898C68.2888 69.0459 63.9269 69.8393 59.876 69.7188C58.8064 71.5424 57.2247 72.5849 55.5059 73.1846C54.2887 73.6092 52.9566 73.825 51.6924 73.9717C51.8211 74.1868 51.9962 74.4382 52.2559 74.7617V74.7627C52.9091 75.5773 53.4403 76.3583 53.7207 77.0957C54.0126 77.8631 54.1579 78.9775 53.3535 79.9131C52.7156 80.6549 51.7758 80.8798 51.1846 80.9824C50.6758 81.0707 50.0951 81.1157 49.4912 81.1426C49.1656 81.4257 48.8782 81.707 48.5596 82.0049C48.2049 82.3364 47.595 82.9139 46.8281 83.167C46.3787 83.3153 45.877 83.3576 45.3545 83.2344C44.8559 83.1167 44.438 82.8719 44.0947 82.6006C43.6272 82.231 43.1803 81.7146 42.7295 81.0938C42.6748 81.0918 42.62 81.092 42.5654 81.0898H42.5625C41.8055 81.0581 40.2458 81.0466 39.0859 79.7861L38.8232 79.5L38.7051 79.1299C38.1519 77.3851 39.198 76.0166 39.7959 75.3262C40.1156 74.957 40.5215 74.5493 40.7744 74.2812C40.8696 74.1804 40.9524 74.0888 41.0254 74.0059C39.3224 73.781 37.5439 73.4528 35.8525 72.9395C35.8559 72.9739 35.8606 73.006 35.8652 73.0371C35.8939 73.2301 35.9487 73.4397 36.0703 73.876C36.1862 74.292 36.3384 74.8353 36.502 75.5781V75.5791C36.7992 76.9317 35.8562 77.8572 35.8066 77.918L35.5508 78.2314L35.1836 78.4014C34.2747 78.8198 33.3712 78.8479 32.6426 78.79C32.21 78.7557 31.7057 78.6716 31.2939 78.6016C30.9848 78.7549 30.6097 78.9402 30.2861 79.0869C29.7144 79.3461 28.9858 79.6415 28.2588 79.7695C27.5918 79.8869 26.4223 79.9494 25.5127 79.0801C25.0099 78.5996 24.7629 78.0022 24.6631 77.3916C24.5682 77.3831 24.4582 77.3753 24.3281 77.3613C23.945 77.3201 23.1971 77.2313 22.5557 76.8271C22.1894 76.5963 21.829 76.2481 21.5986 75.748C21.3723 75.2565 21.3312 74.7487 21.3809 74.292L21.4229 73.9043L21.626 73.5703C22.0708 72.8404 22.7953 72.3193 23.3896 71.958C24.0289 71.5694 24.7686 71.2201 25.4736 70.9121C26.1732 70.6065 26.9291 70.3033 27.5488 70.0449C27.9503 69.8775 28.2969 69.7268 28.5869 69.5908C28.4156 69.4838 28.2458 69.377 28.0791 69.2725C28.0582 69.2791 28.0375 69.2874 28.0166 69.2939L28.0137 69.2949C24.8119 70.2934 21.8551 68.8426 19.7461 66.9502C17.8347 65.2351 16.3264 62.9192 15.5322 60.8047C14.3303 60.1357 12.8722 59.2388 11.9814 58.041C11.4074 57.2689 11.0021 56.2931 11.0801 55.1406C11.0948 54.9236 11.1252 54.709 11.1719 54.4971C10.3018 54.3774 9.35679 54.2329 8.45215 54.0449C6.62828 53.6659 4.43926 53.0248 3.05371 51.6836C2.66197 51.3043 2.31375 50.8628 2.07617 50.3105C1.83882 49.7588 1.75753 49.2034 1.75 48.6621C1.74128 48.034 1.87398 47.2667 2.04688 46.5029C2.22763 45.7045 2.48449 44.7768 2.79102 43.7764C3.40476 41.7732 4.24042 39.3991 5.12598 37.0361C6.88933 32.331 8.90407 27.5312 9.84375 25.6641L10.0996 25.1631C10.7189 23.9669 11.5066 22.6035 12.6006 21.499C13.1168 20.9778 13.7898 20.6567 14.3877 20.4414C15.0141 20.2159 15.7269 20.0491 16.4629 19.9209C17.9362 19.6643 19.685 19.5327 21.4082 19.4668C24.2822 19.3569 27.3351 19.4217 29.0898 19.4424C29.3632 19.0775 29.7024 18.6115 30.0225 18.1367C30.3088 17.712 30.5569 17.3171 30.7256 17.0068C30.7754 16.9153 30.8115 16.8412 30.8379 16.7852C30.8248 16.4252 30.8058 16.1729 30.7871 15.9707C30.7686 15.7706 30.7297 15.4307 30.751 15.0889C30.7825 14.582 30.9461 14.0927 31.1748 13.5303C30.6741 12.5659 30.1014 11.4148 29.7168 10.2188C29.2225 8.68138 28.9623 6.85571 29.6406 5.00684C30.3822 2.9862 31.9656 2.35705 33.0762 1.8877L33.4033 1.75H35.5693Z" fill="white" stroke="white" stroke-width="3.5"/>
<path d="M83.8699 46.3295C83.0095 45.0444 81.5189 43.7143 80.112 43.0503C77.691 41.9098 75.0555 40.9523 72.5826 39.8976C69.999 38.7955 67.4199 37.978 64.9628 36.5484C64.2446 36.16 63.3277 35.7287 62.6638 35.2544C63.0206 32.7476 63.2826 29.4301 63.1426 26.9368C62.9687 23.8677 59.5292 22.8537 57.0427 22.5962C54.6353 22.2394 52.1353 22.1333 49.7075 21.8894C49.1632 21.8306 48.5806 21.8352 48.0544 21.7742C47.8398 20.8505 47.4401 20.0668 47.1465 19.1703C46.81 18.1382 46.2951 16.7561 46.1144 15.6969C46.067 14.7597 46.5616 13.5898 46.8078 12.7204C47.7472 9.42088 45.6492 6.88925 43.0092 5.19095C41.5367 4.24469 39.9355 4.22437 38.4473 5.15707C37.2774 4.21307 35.7575 3.33005 34.197 3.47459C31.295 3.84496 30.6898 6.10107 31.1098 8.60335C31.3921 10.2881 32.3067 11.8825 33.122 13.3572C33.1175 13.3843 33.113 13.4114 33.1062 13.4385C32.903 14.3961 31.8889 15.0465 32.5732 16.1305C32.5981 16.1712 32.6229 16.2141 32.6545 16.2502L32.6229 17.4878C31.4644 18.8677 30.9698 19.6716 30.0303 21.1847C26.6224 21.2977 23.1694 21.0876 19.766 21.3473C17.9254 21.3903 14.7569 21.4332 13.5148 23.0118C10.9561 26.2593 9.67786 30.4892 8.15346 34.2788C6.7352 37.8018 5.30339 41.1442 4.29164 44.8209C3.77899 46.6795 2.61593 48.8521 4.34584 50.5278C5.39147 51.4763 7.51434 51.8331 8.84903 52.2103C10.4525 52.6642 12.3269 52.7771 13.9891 53.03C13.4539 53.4411 13.0564 53.8589 12.8938 54.5499C12.2998 57.0703 15.0934 58.5337 16.9521 59.5658C17.0763 59.9813 17.6635 61.6841 17.9367 61.91C18.7113 62.5536 18.7136 62.8314 19.2669 63.6738C20.1499 65.022 21.4914 66.3432 22.9322 67.0907C24.2173 67.784 25.5361 68.1521 26.9928 67.7546C27.397 67.644 27.8645 67.3391 28.2575 67.1765C29.084 67.8111 29.8 68.2763 30.6965 68.8206C30.4865 69.6426 30.2855 70.6702 29.4951 71.1377C28.3704 71.8016 23.21 73.4209 22.9503 74.523C22.9119 74.6901 22.9661 74.8482 23.07 74.9769C23.5149 75.5302 24.4499 75.5867 25.1071 75.6296C25.57 75.6635 26.033 75.6748 26.4982 75.6589C26.2882 76.4991 25.9381 77.8225 27.2051 78.0031C28.4811 78.1861 30.1726 77.2059 31.2001 76.551C33.6392 77.3347 36.0579 77.6937 34.2896 74.322C33.7815 73.3554 34.2422 71.6323 34.4567 70.5641C37.0787 71.481 39.7436 72.2172 42.5349 72.3866C42.9369 72.4114 43.3547 72.4566 43.7522 72.5221C43.0543 74.9272 41.9635 75.5889 40.2946 77.3889C39.1722 79.3469 42.4491 79.2994 43.5489 79.1481C43.8312 79.724 44.1948 80.1192 44.5878 80.6048C46.6903 83.1974 47.5417 79.9769 49.0593 79.243C54.7482 79.4891 51.67 77.2466 50.0372 74.6878C49.6691 74.1142 49.5359 73.0099 49.3281 72.3369C52.0698 72.2081 58.6845 71.499 58.619 67.8224C61.6611 68.1228 65.9045 67.7208 68.3368 65.6882C69.1656 64.9949 69.4502 64.5297 69.8838 63.5541C73.1833 62.7207 80.8821 61.7993 80.1933 56.8648C80.1775 56.7586 80.0894 56.5509 80.042 56.4447C81.3225 56.0676 82.4539 55.6611 83.1224 54.4054C83.7841 53.161 83.6554 52.1877 82.883 51.0766C85.0172 49.918 85.1346 48.2017 83.8767 46.3295H83.8699ZM61.2862 24.8907C62.9777 25.8844 62.3521 29.3149 62.3454 30.9658C62.3341 32.987 61.8643 35.155 61.6814 37.1808C61.4465 39.7802 61.3584 42.4631 60.8097 45.0241C60.236 47.3277 60.3173 51.8692 59.0617 53.8137C58.1177 52.7387 56.573 51.5599 55.4573 50.5368C53.7771 48.9943 52.142 47.156 50.4844 45.6519C49.3033 44.507 47.9686 43.4591 46.8326 42.2779C45.0282 40.399 42.9572 38.7255 41.1596 36.8533C42.5869 35.9974 44.24 35.3718 45.6831 34.5159C49.6352 32.1695 53.5309 29.7304 57.5757 27.5443C58.8788 26.8397 60.5861 26.239 61.2884 24.893L61.2862 24.8907ZM43.9577 6.81698C46.2206 8.62142 46.9433 11.135 45.6808 13.8157C44.5268 11.6251 43.777 10.8007 42.1329 8.98953C42.9121 7.95068 43.0927 7.17606 42.7291 5.90911C43.1289 6.12592 43.6009 6.53016 43.9577 6.81698ZM40.3127 5.20902C42.7811 5.05093 42.343 8.17426 41.5887 8.27363L41.3922 8.07715C40.665 7.22574 39.8181 6.41725 38.9938 5.65392C39.4884 5.40549 39.7842 5.32871 40.3127 5.20676V5.20902ZM33.515 15.6088C33.8718 12.8626 33.6663 11.2727 36.8958 10.6449C38.2666 10.5614 39.6013 11.0017 40.8276 11.5709C42.9753 12.5916 44.6623 14.3848 45.5498 16.589C45.8525 17.3365 46.0218 18.1314 46.2748 18.8902C46.591 19.8342 46.9455 20.7873 47.2888 21.7268C46.0083 21.6545 45.2382 21.5777 43.908 21.5709C41.9658 21.5077 40.0891 21.1712 38.2734 21.1057C37.5371 18.635 35.9563 17.1965 33.3524 17C33.3908 16.5438 33.454 16.065 33.5127 15.6088H33.515ZM33.4608 17.7407C35.342 17.8311 36.9251 19.1567 37.4378 20.9499C36.0782 21.4196 34.7006 21.8374 33.3072 22.2055C32.7833 22.3252 30.3149 23.3257 30.1139 22.7656C30.5271 21.5393 32.4739 18.4928 33.4608 17.7407ZM19.7412 22.0655C23.0181 21.8081 26.3514 22.0249 29.6193 21.939C28.7408 24.01 30.3668 23.8316 31.8167 23.4047C33.5669 22.8876 35.3262 22.4494 37.0493 21.8397C38.4021 21.668 40.7892 22.1581 42.2255 22.2055C45.3488 22.3072 48.558 22.4969 51.6655 22.8085C54.3417 23.0773 58.3209 23.1044 60.7103 24.36C60.5477 24.7643 60.3896 25.0872 60.0192 25.3424C59.1972 25.9205 58.2825 26.3383 57.3995 26.8081C56.4781 27.2982 55.5431 27.8063 54.6398 28.3325L47.5824 32.5195C45.6244 33.6803 43.9599 34.6243 41.9048 35.6383C39.9333 36.6117 38.2305 37.5308 36.1708 38.3574C35.6266 38.5968 35.1952 38.6465 34.6329 38.7594C32.2254 39.2404 30.7507 37.7228 29.0276 36.3362C26.4237 34.2291 23.7543 32.0859 21.2294 29.893C19.4769 28.3686 15.2606 25.9093 14.9331 23.6215C15.8635 21.8216 18.0112 22.2078 19.7389 22.0723L19.7412 22.0655ZM4.14936 48.554C4.13355 47.4857 4.66879 46.0336 4.98948 45.0264C5.58117 43.1677 6.1006 41.2662 6.85038 39.4821C8.6503 35.2047 10.0957 30.7873 12.1124 26.6071C12.5753 25.6495 13.4697 24.1342 14.1652 23.3618C14.1811 23.5764 14.2059 23.9738 14.2759 24.1703C15.256 26.8465 18.6346 28.5741 20.6716 30.3673C22.5619 32.0317 24.2669 33.3574 26.1595 34.9563C26.7037 35.4147 27.4264 36.1081 27.9842 36.4355C26.9747 37.1063 25.7575 37.8064 24.7073 38.4568C20.9404 40.7693 17.135 43.0142 13.289 45.1958C11.2632 46.2256 9.33684 47.4338 7.25688 48.3665C6.35579 48.7708 5.45696 49.2812 4.60555 49.7803C4.44747 49.4844 4.15388 48.8701 4.14936 48.5517V48.554ZM13.6119 52.2419C10.807 51.8986 7.83051 51.465 5.2379 50.2839C6.60873 49.3896 8.03602 48.8701 9.45428 48.1181C12.6002 46.4492 15.6671 44.6741 18.7384 42.8741C22.047 40.9545 25.3193 38.9762 28.5556 36.9391C29.8677 37.856 30.5113 38.73 32.1419 39.2946C34.8835 40.2431 38.0453 38.3529 40.4866 37.2124C41.5616 38.3439 42.9234 39.5476 44.0774 40.6316L49.9198 46.1172C51.5978 47.6777 53.226 49.4438 54.9063 51.0246C56.1348 52.1809 57.4605 53.1226 58.5829 54.376L58.4429 54.5048C57.0743 55.7514 55.0689 55.2704 53.3819 55.3697C51.399 55.4962 49.4252 55.5504 47.4401 55.4172C46.7829 55.3517 45.9631 55.4601 45.3195 55.3697C43.8741 55.1665 42.4401 55.0242 40.9857 54.9045C40.2427 54.8435 39.5132 54.6809 38.7612 54.6516H38.6754C37.5846 54.6696 36.4509 54.6064 35.3578 54.5296C33.7318 54.4144 31.8618 54.4619 30.2584 54.2699C27.519 53.8702 24.7186 53.8679 21.9702 53.5743C20.4142 53.4072 18.8536 53.0775 17.275 52.9533C16.0939 52.8607 14.7908 52.3887 13.6074 52.2441L13.6119 52.2419ZM24.818 57.5468C25.2629 57.2193 25.4955 57.059 25.9765 56.7948C26.1549 56.7812 26.1504 56.7699 26.3108 56.8422C26.7511 57.3706 27.9707 60.3156 28.2439 61.036C27.8216 61.4786 27.6387 61.5667 27.108 61.8242C26.8799 61.8513 26.8325 61.8648 26.6021 61.8151C25.9946 61.1805 25.0145 58.4547 24.8202 57.5491L24.818 57.5468ZM25.7349 62.2736C25.3216 62.6078 25.1929 62.6936 24.6712 62.784C23.8762 62.3684 22.9051 59.1977 22.7629 58.3011C23.2032 57.9646 23.3613 57.9081 23.8695 57.7546C23.9756 57.8336 25.5271 61.788 25.7326 62.2736H25.7349ZM27.2728 56.9641C26.2972 55.0581 25.4661 56.4967 24.2647 56.9483C23.3591 57.2893 23.3139 57.0093 22.3812 57.671C21.9544 56.3228 21.8211 55.6972 21.6066 54.2993C24.9941 54.4777 28.4878 54.9361 31.8347 55.0761C31.0466 55.4239 30.2607 55.7785 29.477 56.1376C28.7521 56.4221 28.0136 56.6705 27.2751 56.9641H27.2728ZM21.5072 57.3684C21.2339 57.2216 20.1567 56.2324 19.8225 55.9592C18.8356 55.171 17.8328 54.4031 16.8143 53.6579C18.1648 53.8589 19.4273 53.9176 20.8794 54.1638C20.9404 55.1891 21.2249 56.386 21.5095 57.3684H21.5072ZM16.1165 58.1814C15.2854 57.6258 14.3504 57.2442 13.8536 56.3092C13.0948 54.8842 13.7023 54.0057 14.9512 53.3123C15.1409 53.3078 15.1409 53.3101 15.326 53.3553C15.4909 53.6918 15.2515 54.4302 15.3961 54.9429C15.7732 56.2731 16.3355 57.4903 16.9272 58.7257L16.1165 58.1814ZM17.7335 58.6986C17.2208 57.7094 15.9742 55.0761 16.0555 54.0576C16.7466 54.5048 21.1504 57.793 21.4462 58.3711L21.2972 58.4163C20.159 58.5721 18.883 58.6489 17.7335 58.6986ZM24.0998 66.84C21.8776 65.8373 20.8116 64.7149 19.5108 62.7004C20.5745 62.6846 22.3564 62.5423 23.3952 62.4136C23.5014 62.4362 23.9259 63.1363 24.0276 63.2808C25.0235 64.6787 26.234 65.5776 27.5303 66.6774C26.4282 67.4294 25.2742 67.2533 24.1021 66.84H24.0998ZM34.136 76.2416C33.7182 76.5397 32.2661 76.2213 31.8212 75.9729C31.7399 75.9277 31.7422 75.5325 31.7241 75.4105C31.5457 75.2479 31.6518 75.3021 31.374 75.2818C31.0985 75.3879 31.0737 75.6657 30.9269 75.8012C30.3374 76.3523 27.8329 77.7321 27.0876 77.1833C26.8934 76.813 27.108 76.2529 27.2141 75.8148C27.5122 74.7127 28.0339 74.6946 28.2688 73.78C28.2914 73.6942 28.2281 73.6693 28.1513 73.597C27.51 73.527 27.0312 74.4214 26.7534 74.9137C25.6107 74.9521 24.7638 74.9317 23.6481 74.6607C24.9987 73.658 27.8013 72.775 29.3822 72.0297C29.9693 71.7542 30.3894 71.2483 31.0737 70.957C31.487 70.9751 32.038 71.1648 32.3722 71.3996C32.6884 71.6255 32.9391 71.9326 33.0927 72.2894C33.3185 72.7998 33.3004 73.579 33.4946 74.1413C33.7363 74.8437 34.0276 75.5031 34.1405 76.2416H34.136ZM31.0579 70.2095L31.3492 69.2113C32.1532 69.6381 32.9255 70.0537 33.7792 70.3698C33.6866 70.747 33.6053 71.1625 33.5218 71.5464C32.8239 70.607 32.1283 70.424 31.0579 70.2095ZM49.7685 75.6296C50.3286 76.481 51.128 77.1766 51.5413 78.0912C51.5887 78.2019 51.5481 78.2041 51.469 78.3238C50.8593 78.6784 49.642 78.5316 48.9035 78.4977C48.7183 78.2493 48.4677 75.476 47.6659 76.35C47.5508 77.0072 48.0386 77.6576 48.0995 78.2583C48.1786 79.06 47.0313 80.1599 46.4984 80.7583C45.5679 81.0903 45.0282 79.934 44.5742 79.4259C43.716 78.4638 44.7097 77.3685 44.3439 76.8514C44.0819 76.7272 44.2038 76.7271 43.9712 76.7768C43.5851 77.1269 43.4857 77.9444 43.4337 78.4525C42.815 78.5 41.1415 78.6129 40.7892 78.037C40.936 77.7525 41.4667 77.1856 41.6993 76.9372C42.7472 75.8261 43.3412 75.3631 43.9848 73.9855C44.9175 73.3667 45.6176 73.2854 46.7084 73.2131C47.2436 73.177 48.628 73.4344 48.89 73.9697C49.1881 74.5794 49.38 75.0401 49.7662 75.6296H49.7685ZM60.3173 67.2013C59.6534 67.2239 58.9668 67.041 58.2329 67.0591C57.3408 67.0816 58.2622 68.7596 57.395 69.2158C55.4483 71.1241 51.6384 71.5035 49.0774 71.6029C48.8245 71.1286 48.7838 70.9638 48.3186 70.6092C47.6614 70.1079 46.0444 69.2723 45.5566 70.3427C46.2274 70.9118 47.0923 70.4489 47.7811 71.0406C48.3886 71.5623 48.4699 72.2104 48.6754 72.9308C47.2572 72.242 45.9993 72.4091 44.5223 72.8518C44.6984 72.1969 45.0011 71.7294 44.4116 71.3025C44.3687 71.3364 44.0435 71.6526 44.0661 71.6436C43.5625 71.8671 41.9568 71.6142 41.4464 71.5555C36.2544 70.9954 31.3447 68.9087 27.3383 65.5595C26.4214 64.7894 25.8794 64.401 25.1274 63.4547C25.7146 63.2785 26.0782 62.942 26.5614 62.5672C27.8465 62.6078 28.6934 61.998 29.0027 60.7537C29.2557 60.4691 31.4644 59.891 32.0493 59.6629C35.1839 58.4411 37.7765 57.2058 40.7192 55.6114C41.8348 55.7853 43.0182 55.7333 44.1519 55.9456C44.7775 56.6705 46.1212 58.0436 46.9229 58.4818C51.1303 60.7785 55.9474 62.47 60.6877 63.1882C63.3503 63.5902 66.4014 64.2045 69.0527 63.6286C67.4335 66.6458 63.3842 67.0929 60.3173 67.2013ZM81.8238 50.7423C81.7719 51.3182 82.5984 51.736 82.7294 52.287C83.1901 54.2428 81.4828 55.3517 79.8252 55.7582C79.5474 55.8259 79.1567 55.9772 79.037 56.2234C79.0821 56.4763 79.3306 56.7473 79.4954 56.9641C79.5135 57.7568 79.5248 58.5676 78.9625 59.2067C76.7696 61.7022 70.9339 62.7094 67.8129 63.0685C66.0536 63.3689 63.4587 62.8201 61.6837 62.6033C57.8647 62.1358 54.5111 61.0721 50.9767 59.6132C48.3322 58.5224 47.3452 58.1136 45.2766 56.1037C46.6632 56.0789 48.1492 56.2076 49.563 56.2166C51.0151 56.2256 52.2549 56.1489 53.6958 56.0856C54.7798 56.0676 56.0829 56.1963 57.1421 55.9614C61.0219 55.1078 60.7577 49.9316 61.1936 46.867C61.3562 45.7333 61.6859 44.6199 61.8395 43.4817C62.176 41.0223 62.2257 38.5042 62.5351 36.0493C63.1516 36.4626 64.0053 36.8624 64.6602 37.2147C67.1128 38.5358 69.6399 39.5927 72.2551 40.5525C73.2059 40.9026 74.1499 41.4085 75.0984 41.7698C77.7384 42.7748 80.4823 43.6172 82.4833 45.7378C83.1292 46.4108 83.9783 47.6416 83.9444 48.6104C83.8925 50.1416 82.3229 50.2861 81.8216 50.7401L81.8238 50.7423Z" fill="black"/>
<path d="M21.9745 53.5738C24.7229 53.8674 27.5233 53.8697 30.2627 54.2694C31.8661 54.4614 33.7361 54.4117 35.3621 54.5291C36.4529 54.6082 37.5866 54.6714 38.6796 54.6488H38.7655C39.5175 54.6827 40.2447 54.843 40.99 54.9063C42.4444 55.026 43.8762 55.1682 45.3238 55.3715C45.9674 55.4618 46.7872 55.3534 47.4444 55.4189C49.4295 55.5544 51.4033 55.5002 53.3862 55.3715C55.0709 55.2721 57.0764 55.7532 58.4472 54.5065L58.5872 54.3778C57.4648 53.1244 56.1391 52.1827 54.9106 51.0264C53.2303 49.4455 51.5998 47.6795 49.9241 46.1189L44.0817 40.6334C42.9299 39.5516 41.5681 38.3479 40.4909 37.2142C38.0496 38.3547 34.8901 40.2449 32.1462 39.2964C30.5156 38.7318 29.872 37.8578 28.5599 36.9409C25.3236 38.9802 22.0513 40.9586 18.7427 42.8759C15.6691 44.6736 12.6045 46.4487 9.45857 48.1199C8.04031 48.8719 6.61528 49.3913 5.24219 50.2856C7.8348 51.4668 10.8113 51.9004 13.6162 52.2436C14.8019 52.3882 16.105 52.8602 17.2838 52.9528C18.8624 53.077 20.4207 53.4067 21.979 53.5738H21.9745Z" fill="#FEFEFE"/>
<path d="M82.486 45.7397C80.4851 43.6168 77.7411 42.7767 75.1011 41.7717C74.1526 41.4104 73.2086 40.9045 72.2578 40.5545C69.6449 39.5947 67.1155 38.5377 64.6629 37.2166C64.0102 36.8643 63.1543 36.4646 62.5378 36.0513C62.2306 38.5084 62.1787 41.0242 61.8422 43.4836C61.6864 44.6218 61.3566 45.7352 61.1963 46.8689C60.7604 49.9335 61.0247 55.1097 57.1448 55.9633C56.0856 56.196 54.7825 56.0695 53.6985 56.0875C52.2577 56.1508 51.0156 56.2276 49.5657 56.2185C48.1519 56.2095 46.6637 56.0808 45.2793 56.1056C47.348 58.1156 48.3349 58.5221 50.9794 59.6151C54.5138 61.074 57.8675 62.1377 61.6864 62.6052C63.4592 62.822 66.0563 63.3685 67.8156 63.0704C70.9344 62.7114 76.77 61.7041 78.9652 59.2086C79.5275 58.5695 79.5162 57.7587 79.4982 56.9661C79.3333 56.7492 79.0826 56.4782 79.0397 56.2253C79.1594 55.9814 79.5501 55.8278 79.8279 55.7601C81.4855 55.3536 83.1906 54.247 82.7321 52.289C82.6034 51.7402 81.7746 51.3201 81.8265 50.7442C82.3279 50.2903 83.8975 50.1458 83.9494 48.6146C83.9833 47.6458 83.1341 46.4149 82.4882 45.7419L82.486 45.7397ZM75.3111 51.8734C74.6449 52.9665 73.7912 53.1133 72.6598 53.3843C72.6372 55.1661 71.3432 56.2953 69.7013 56.6973C68.7777 56.9231 67.6304 57.1445 66.7474 56.6521C66.7632 56.4557 66.7609 56.4963 66.8196 56.3021C67.2216 55.9543 68.1318 56.2276 68.6986 56.1417C70.6408 55.8436 71.2257 55.4665 71.9778 53.6621C71.8265 53.4182 71.6932 53.2691 71.6977 52.9958C72.1607 52.0902 74.069 53.4995 75.1711 50.3806C74.6946 47.8603 72.9466 47.4877 70.9841 46.3201C70.6273 46.1078 70.074 45.9768 69.7872 45.6968C69.6358 45.1028 70.6928 44.746 70.7357 43.9465C70.817 42.4538 66.788 41.7288 66.298 41.1303C66.237 40.9068 66.2935 40.8322 66.377 40.6132C66.4764 40.6132 66.6412 40.6245 66.7361 40.6583C68.3915 41.2252 70.4669 41.835 71.4358 43.3887C71.5058 44.3824 71.3635 44.6331 70.8079 45.4054C71.7158 45.882 72.4475 46.2704 73.3418 46.8079C74.5275 47.5238 75.4218 48.1991 75.7854 49.6218C75.9977 50.4484 75.738 51.1756 75.3111 51.8734Z" fill="#8F95A0"/>
<path d="M73.339 46.808C72.4447 46.2705 71.713 45.8821 70.8051 45.4055C71.3629 44.6332 71.503 44.3825 71.433 43.3888C70.4641 41.8351 68.3909 41.2253 66.7333 40.6584C66.6384 40.6246 66.4736 40.6155 66.3742 40.6133C66.2906 40.8301 66.2342 40.9069 66.2952 41.1304C66.7852 41.7289 70.8142 42.4561 70.7329 43.9466C70.69 44.7484 69.633 45.1052 69.7843 45.6969C70.0712 45.9769 70.6245 46.1079 70.9813 46.3202C72.9461 47.49 74.694 47.8604 75.1683 50.3807C74.0662 53.4996 72.1579 52.0903 71.6949 52.9959C71.6904 53.2715 71.8237 53.4183 71.975 53.6622C71.2229 55.4666 70.638 55.8437 68.6958 56.1418C68.129 56.2299 67.2211 55.9567 66.8168 56.3022C66.7581 56.4942 66.7581 56.4535 66.7446 56.6522C67.6276 57.1446 68.7749 56.9232 69.6985 56.6974C71.3404 56.2954 72.6344 55.1662 72.657 53.3844C73.7884 53.1156 74.6398 52.9666 75.3083 51.8735C75.7352 51.1757 75.9949 50.4462 75.7826 49.6219C75.419 48.1992 74.5247 47.5216 73.339 46.808Z" fill="black"/>
<path d="M21.2316 29.8885C23.7564 32.0814 26.4258 34.2268 29.0297 36.3316C30.7506 37.7183 32.2253 39.2359 34.635 38.7549C35.1974 38.6419 35.6287 38.5923 36.173 38.3529C38.2304 37.5263 39.9354 36.6071 41.907 35.6338C43.9621 34.6198 45.6265 33.6758 47.5845 32.515L54.6419 28.328C55.5453 27.804 56.4803 27.2936 57.4017 26.8036C58.2847 26.3361 59.1993 25.916 60.0214 25.3379C60.3918 25.0849 60.5498 24.762 60.7124 24.3555C58.3253 23.0998 54.3438 23.0727 51.6677 22.804C48.5579 22.4923 45.351 22.3026 42.2277 22.201C40.7913 22.1536 38.402 21.6635 37.0515 21.8351C35.3261 22.4449 33.5691 22.883 31.8188 23.4002C30.369 23.827 28.7429 24.0077 29.6214 21.9345C26.3558 22.0203 23.0202 21.8035 19.7433 22.061C18.0134 22.1965 15.8657 21.8125 14.9375 23.6102C15.265 25.8979 19.4813 28.3596 21.2338 29.8817L21.2316 29.8885Z" fill="#FEFEFE"/>
<path d="M60.6883 63.1882C55.9479 62.4723 51.1308 60.7785 46.9235 58.4817C46.1218 58.0436 44.778 56.6705 44.1525 55.9456C43.0165 55.7333 41.8354 55.7852 40.7197 55.6113C37.7771 57.2057 35.1845 58.4433 32.0498 59.6628C31.4649 59.8909 29.2562 60.4691 29.0033 60.7536C28.6939 62.0003 27.8448 62.6078 26.562 62.5671C26.081 62.942 25.7151 63.2785 25.1279 63.4547C25.88 64.4009 26.422 64.7871 27.3389 65.5595C31.3452 68.9086 36.2549 70.9954 41.4469 71.5554C41.9551 71.6142 43.5608 71.8671 44.0666 71.6435C44.0441 71.6526 44.3715 71.3364 44.4122 71.3025C44.6741 70.7921 45.049 70.5685 45.5594 70.3427C46.045 69.2722 47.6642 70.1078 48.3214 70.6092C48.7866 70.9637 48.8273 71.1263 49.0802 71.6029C51.6412 71.5035 55.4511 71.1218 57.3978 69.2158C58.265 68.7596 57.3436 67.0816 58.2357 67.059C58.9674 67.041 59.6539 67.2239 60.3201 67.2013C63.387 67.0929 67.4363 66.6457 69.0555 63.6285C66.4042 64.2044 63.3509 63.5902 60.6905 63.1882H60.6883ZM44.7803 68.0121C44.8322 67.5672 45.4736 67.4068 45.8282 67.2871C46.4447 67.2645 47.461 67.1471 47.7613 67.8427C47.7094 68.0843 47.7704 67.985 47.549 68.1363C47.2735 68.186 47.1855 68.1205 46.9099 68.0143C46.2889 67.9895 45.0806 68.3531 44.778 68.0098L44.7803 68.0121ZM48.7279 70.3743C48.3304 70.2975 48.2017 70.1033 47.9126 69.821C47.5332 69.7442 47.1787 69.7239 46.9483 69.4213C46.9054 69.1209 46.9077 69.2271 47.059 68.9109C47.7659 68.9177 49.3716 69.3942 48.7279 70.3721V70.3743Z" fill="#8F95A0"/>
<path d="M47.551 68.1387C47.7723 67.9873 47.7113 68.0867 47.7633 67.8451C47.4629 67.1495 46.4466 67.2669 45.8301 67.2895C45.4733 67.4069 44.8342 67.5673 44.7822 68.0144C45.0848 68.3577 46.2931 67.9919 46.9141 68.019C47.1896 68.1251 47.2777 68.1906 47.5532 68.1409L47.551 68.1387Z" fill="black"/>
<path d="M47.0589 68.9106C46.9099 69.2268 46.9076 69.1184 46.9483 69.421C47.1809 69.7237 47.5332 69.744 47.9126 69.8208C48.2017 70.1031 48.3304 70.2973 48.7279 70.3741C49.3715 69.3939 47.7658 68.9197 47.0589 68.9129V68.9106Z" fill="black"/>
<path d="M45.6807 34.5158C44.2376 35.3717 42.5845 35.9973 41.1572 36.8532C42.9549 38.7254 45.0258 40.3966 46.8303 42.2778C47.9662 43.4612 49.3009 44.5091 50.482 45.6518C52.1397 47.1559 53.7748 48.9942 55.455 50.5367C56.5706 51.562 58.1153 52.7386 59.0593 53.8136C60.315 51.8691 60.2337 47.3276 60.8073 45.024C61.3561 42.4653 61.4442 39.7801 61.6791 37.1807C61.862 35.1572 62.3317 32.9891 62.343 30.9656C62.352 29.3148 62.9754 25.8821 61.2838 24.8906C60.5815 26.2389 58.8742 26.8373 57.5711 27.542C53.5263 29.7258 49.6284 32.1671 45.6785 34.5135L45.6807 34.5158Z" fill="#F2F4FA"/>
<path d="M13.2893 45.1977C17.1331 43.0184 20.9407 40.7713 24.7076 38.4587C25.7578 37.8083 26.975 37.1082 27.9845 36.4375C27.4267 36.11 26.7018 35.4167 26.1598 34.9583C24.2672 33.3616 22.5622 32.0337 20.6719 30.3692C18.6349 28.5761 15.2586 26.8462 14.2762 24.1723C14.2039 23.9758 14.1791 23.5806 14.1655 23.3638C13.47 24.1339 12.5757 25.6515 12.1127 26.6091C10.096 30.7893 8.65286 35.2044 6.85068 39.484C6.1009 41.2681 5.58148 43.1697 4.98978 45.0283C4.66909 46.0333 4.13612 47.4877 4.14967 48.5559C4.15418 48.8743 4.44777 49.4886 4.60586 49.7845C5.45727 49.2854 6.3561 48.775 7.25719 48.3707C9.33715 47.438 11.2635 46.2298 13.2893 45.2V45.1977Z" fill="#F2F4FA"/>
<path d="M38.2752 21.1058C40.0909 21.1712 41.9676 21.51 43.9098 21.571C45.24 21.5777 46.0101 21.6545 47.2906 21.7268C46.9473 20.7896 46.5928 19.8365 46.2766 18.8903C46.0237 18.1337 45.8543 17.3365 45.5517 16.589C44.6641 14.3826 42.9771 12.5917 40.8294 11.5709C39.6031 11.0018 38.2684 10.5614 36.8976 10.645C33.6681 11.2728 33.8736 12.8627 33.5168 15.6089C33.4581 16.0651 33.3948 16.5438 33.3564 17C35.9581 17.1965 37.5412 18.6351 38.2774 21.1058H38.2752ZM38.2436 14.2335C38.7562 13.3008 39.3502 13.0253 40.2851 12.7249C42.006 12.4923 42.618 13.6509 43.221 15.0127C43.6027 15.1888 43.6772 15.2227 43.9911 15.505C44.5173 16.8397 44.0024 17.7882 42.6496 17.7182C42.6948 17.7205 41.857 18.3912 41.6605 18.4906C40.9084 18.7503 40.0954 18.8383 39.3524 18.4951C38.7065 18.1925 38.2142 17.6346 37.9974 16.9571C37.7422 16.1689 37.8483 14.9562 38.2436 14.2335Z" fill="#8F95A0"/>
<path d="M39.3529 18.4949C40.0959 18.8404 40.909 18.7501 41.661 18.4904C41.8575 18.391 42.6953 17.7202 42.6502 17.718C44.0029 17.788 44.5156 16.8395 43.9916 15.5048C43.6777 15.2225 43.6032 15.1886 43.2215 15.0125C42.6185 13.6507 42.0065 12.4921 40.2856 12.7247C39.3507 13.0228 38.7567 13.2984 38.2441 14.2333C37.8489 14.9537 37.7427 16.1687 37.9979 16.9569C38.2147 17.6367 38.707 18.1945 39.3529 18.4949ZM38.9058 14.5585C39.24 13.8946 39.7504 13.6665 40.4166 13.4542C42.2843 13.3255 43.0454 15.7397 42.1646 17.1173C41.8371 17.6277 41.399 17.8332 40.8209 17.9551C38.7612 18.26 38.1131 16.1326 38.9058 14.5563V14.5585Z" fill="black"/>
<path d="M40.8199 17.9575C41.3981 17.8356 41.8362 17.6301 42.1637 17.1197C43.0467 15.7421 42.2834 13.3279 40.4157 13.4566C39.7495 13.6689 39.2391 13.897 38.9048 14.561C38.1122 16.135 38.7603 18.2647 40.8199 17.9598V17.9575ZM39.4107 14.9268C39.6727 14.4819 40.0295 14.317 40.5083 14.2064C41.1068 14.2764 41.6059 14.5926 41.7865 15.191C41.9062 15.5908 41.8565 16.0221 41.6442 16.3835C41.38 16.8419 41.0548 17.0045 40.5715 17.1378C39.9437 17.0135 39.4785 16.7651 39.2775 16.1147C39.1533 15.7172 39.2029 15.2881 39.4107 14.9268Z" fill="#FEFEFE"/>
<path d="M40.5742 17.1374C41.0575 17.0042 41.3827 16.8416 41.6469 16.3831C41.857 16.0218 41.9089 15.5904 41.7892 15.1907C41.6085 14.5922 41.1094 14.2761 40.511 14.2061C40.0322 14.3167 39.6754 14.4838 39.4134 14.9265C39.2056 15.2856 39.1582 15.7169 39.2801 16.1144C39.4834 16.767 39.9486 17.0132 40.5742 17.1374Z" fill="black"/>
<path d="M46.7131 73.2107C45.6223 73.283 44.9222 73.3621 43.9895 73.9831C43.3459 75.3607 42.752 75.8237 41.7041 76.9348C41.4692 77.1832 40.9407 77.7478 40.7939 78.0346C41.1463 78.6105 42.8197 78.4999 43.4385 78.4502C43.4904 77.942 43.5898 77.1245 43.976 76.7745C44.2086 76.7248 44.0866 76.7248 44.3486 76.849C44.7167 77.3662 43.7208 78.4615 44.579 79.4235C45.0329 79.9317 45.5727 81.0857 46.5031 80.756C47.0361 80.1575 48.1833 79.0577 48.1043 78.256C48.0433 77.6552 47.5555 77.0048 47.6707 76.3476C48.4702 75.4736 48.7231 78.2469 48.9083 78.4953C49.6445 78.5292 50.864 78.676 51.4738 78.3214C51.5506 78.2017 51.5935 78.1995 51.5461 78.0888C51.1305 77.1742 50.3311 76.4786 49.7732 75.6272C49.3871 75.0378 49.1951 74.5771 48.897 73.9673C48.635 73.4321 47.2506 73.1724 46.7154 73.2107H46.7131ZM47.2845 76.0495C47.0361 76.0766 47.14 76.1082 46.9548 75.984C46.3157 75.6566 45.6743 76.0857 45.2068 75.6408C45.1842 75.4149 45.1684 75.5233 45.2678 75.3043C45.4823 75.1326 45.6178 75.1326 45.9001 75.0784C46.336 75.0649 47.3477 75.0129 47.4471 75.704C47.472 75.8779 47.3906 75.9366 47.2845 76.0495Z" fill="#F1D3AF"/>
<path d="M45.8987 75.0783C45.6164 75.1348 45.4832 75.1325 45.2664 75.3041C45.167 75.5209 45.1828 75.4125 45.2054 75.6406C45.6729 76.0855 46.3165 75.6564 46.9534 75.9839C47.1363 76.1104 47.0347 76.0765 47.2831 76.0494C47.3892 75.9365 47.4705 75.8778 47.4457 75.7039C47.3441 75.0128 46.3346 75.0647 45.8987 75.0783Z" fill="black"/>
<path d="M33.09 72.289C32.9365 71.9322 32.688 71.625 32.3696 71.3992C32.0331 71.1621 31.4821 70.9746 31.071 70.9565C30.3867 71.2501 29.9667 71.7537 29.3795 72.0293C27.7987 72.7745 24.9938 73.6576 23.6455 74.6603C24.7611 74.9313 25.608 74.9516 26.7508 74.9132C27.0285 74.4209 27.5073 73.5266 28.1487 73.5966C28.2255 73.6688 28.2887 73.6937 28.2661 73.7795C28.0313 74.6941 27.5096 74.71 27.2115 75.8143C27.1053 76.2524 26.8908 76.8125 27.085 77.1829C27.8303 77.7317 30.3348 76.3495 30.9242 75.8007C31.071 75.6652 31.0959 75.3875 31.3714 75.2813C31.6492 75.3016 31.543 75.2452 31.7214 75.4101C31.7395 75.5343 31.7373 75.9272 31.8186 75.9724C32.2635 76.2231 33.7156 76.5415 34.1334 76.2411C34.0205 75.5049 33.7291 74.8455 33.4875 74.1408C33.2955 73.5785 33.3113 72.7994 33.0855 72.289H33.09Z" fill="#F1D3AF"/>
<path d="M33.3066 22.205C34.6978 21.8369 36.0754 21.4191 37.4372 20.9494C36.9245 19.1562 35.3414 17.8306 33.4602 17.7402C32.4733 18.4923 30.5266 21.5388 30.1133 22.7651C30.3143 23.3252 32.7827 22.327 33.3066 22.205Z" fill="#FFDB70"/>
<path d="M24.0275 63.2808C23.9236 63.1363 23.5013 62.4362 23.3951 62.4136C22.3563 62.5423 20.5767 62.6823 19.5107 62.7004C20.8116 64.7149 21.8798 65.8373 24.0998 66.84C25.2741 67.251 26.4259 67.4272 27.528 66.6774C26.2339 65.5776 25.0212 64.6787 24.0252 63.2808H24.0275Z" fill="#F0665A"/>
<path d="M31.8327 55.0782C28.4858 54.9381 24.9921 54.4797 21.6045 54.3013C21.8213 55.6969 21.9523 56.3248 22.3791 57.673C23.3118 57.0113 23.357 57.2914 24.2626 56.9503C25.4618 56.4987 26.2951 55.0601 27.2707 56.9661C28.0092 56.6726 28.75 56.4241 29.4727 56.1396C30.2563 55.7805 31.0422 55.4259 31.8304 55.0782H31.8327Z" fill="#8F95A0"/>
<path d="M42.1338 8.98911C43.7779 10.8003 44.5254 11.6246 45.6817 13.8153C46.9441 11.1346 46.2237 8.621 43.9586 6.81656C43.6017 6.532 43.1297 6.1255 42.73 5.90869C43.0936 7.17338 42.9129 7.948 42.1338 8.98911Z" fill="#F0665A"/>
<path d="M21.4463 58.3701C21.1482 57.792 16.7466 54.5038 16.0556 54.0566C15.9743 55.0752 17.2209 57.7084 17.7335 58.6976C18.883 58.6457 20.159 58.5711 21.2972 58.4153L21.4463 58.3701Z" fill="#F2F4FA"/>
<path d="M27.1054 61.8236C27.6361 61.5661 27.8191 61.4803 28.2414 61.0354C27.9704 60.315 26.7486 57.3701 26.3082 56.8416C26.1501 56.7693 26.1524 56.7829 25.974 56.7942C25.4929 57.0584 25.2603 57.2188 24.8154 57.5462C25.0096 58.4518 25.9898 61.1754 26.5973 61.8123C26.8276 61.8642 26.8751 61.8484 27.1032 61.8213L27.1054 61.8236Z" fill="#F0665A"/>
<path d="M15.3256 53.3546C15.1404 53.3094 15.1404 53.3072 14.9507 53.3117C13.7018 54.005 13.0943 54.8835 13.8531 56.3085C14.35 57.2435 15.2872 57.6252 16.116 58.1807L16.9268 58.725C16.3351 57.4897 15.7728 56.2701 15.3956 54.9422C15.2511 54.4296 15.4905 53.6911 15.3256 53.3546Z" fill="#8F95A0"/>
<path d="M22.7637 58.3009C22.9037 59.1975 23.8771 62.3705 24.672 62.7838C25.1937 62.6912 25.3224 62.6076 25.7357 62.2734C25.5302 61.7878 23.9764 57.8357 23.8725 57.7544C23.3644 57.9057 23.2041 57.9622 22.7659 58.3009H22.7637Z" fill="#F0665A"/>
<path d="M44.4095 71.3045C44.9989 71.7314 44.6963 72.1988 44.5201 72.8538C45.9971 72.4111 47.2528 72.244 48.6733 72.9328C48.47 72.2124 48.3865 71.5642 47.779 71.0426C47.0902 70.4509 46.2275 70.9138 45.5545 70.3447C45.0441 70.5706 44.6692 70.7941 44.4072 71.3045H44.4095Z" fill="#F1D3AF"/>
<path d="M19.8229 55.9585C20.1572 56.2318 21.2344 57.2187 21.5077 57.3677C21.2231 56.3876 20.9385 55.1884 20.8776 54.1631C19.4254 53.9169 18.163 53.856 16.8125 53.6572C17.831 54.4025 18.8337 55.1703 19.8207 55.9585H19.8229Z" fill="#F2F4FA"/>
<path d="M41.3945 8.07658L41.591 8.27306C42.3453 8.17143 42.7834 5.05036 40.315 5.20844C39.7888 5.3304 39.4907 5.40492 38.9961 5.6556C39.8204 6.41893 40.6673 7.22743 41.3945 8.07883V8.07658Z" fill="#F0665A"/>
<path d="M33.5225 71.5461C33.606 71.1644 33.6873 70.7466 33.7799 70.3695C32.9263 70.0533 32.1539 69.6378 31.3499 69.2109L31.0586 70.2091C32.1291 70.4237 32.8246 70.6066 33.5225 71.5461Z" fill="#F1D3AF"/>
<path d="M46.0288 5.54301C46.4331 5.42784 46.668 5.00326 46.5483 4.59901C46.4286 4.19477 46.0017 3.96441 45.5975 4.08636C45.1978 4.20832 44.9719 4.62837 45.0916 5.0281C45.2091 5.42784 45.6269 5.65819 46.0288 5.54301Z" fill="black"/>
</svg>
