<svg xmlns="http://www.w3.org/2000/svg" width="82" height="79" fill="none" viewBox="0 0 82 79"><path fill="#000" d="M80.438 42.87c-.86-1.284-2.35-2.615-3.758-3.279-2.42-1.14-5.056-2.098-7.53-3.152-2.583-1.102-5.162-1.92-7.619-3.35-.718-.388-1.635-.82-2.299-1.294.357-2.506.619-5.824.479-8.317-.174-3.07-3.614-4.083-6.1-4.34-2.407-.358-4.907-.464-7.335-.708-.544-.058-1.127-.054-1.653-.115-.215-.924-.614-1.707-.908-2.604-.337-1.032-.852-2.414-1.032-3.473-.048-.937.447-2.107.693-2.977.94-3.3-1.158-5.83-3.798-7.529-1.473-.946-3.074-.967-4.562-.034-1.17-.944-2.69-1.827-4.25-1.682-2.903.37-3.508 2.626-3.088 5.128.282 1.685 1.197 3.28 2.012 4.754l-.015.082c-.204.957-1.218 1.608-.533 2.691.024.041.05.084.08.12l-.03 1.238c-1.16 1.38-1.654 2.184-2.593 3.697-3.408.113-6.861-.097-10.265.162-1.84.043-5.009.086-6.25 1.665C7.523 22.8 6.245 27.03 4.721 30.82 3.304 34.343 1.872 37.685.86 41.362c-.513 1.858-1.676 4.031.054 5.707 1.046.948 3.169 1.305 4.503 1.682 1.604.454 3.478.567 5.14.82-.535.411-.932.829-1.095 1.52-.594 2.52 2.2 3.984 4.058 5.016.125.415.712 2.118.985 2.344.775.644.777.921 1.33 1.764.883 1.348 2.225 2.67 3.666 3.417 1.285.693 2.604 1.061 4.06.664.404-.111.872-.416 1.265-.579.826.635 1.542 1.1 2.439 1.645-.21.822-.411 1.85-1.202 2.317-1.124.664-6.285 2.283-6.544 3.385a.53.53 0 0 0 .12.454c.444.553 1.38.61 2.036.653q.694.051 1.392.029c-.21.84-.56 2.163.706 2.344 1.276.183 2.968-.797 3.996-1.452 2.439.784 4.857 1.143 3.089-2.229-.508-.967-.047-2.69.167-3.758 2.622.917 5.287 1.653 8.078 1.823.402.024.82.07 1.218.135-.698 2.405-1.79 3.067-3.458 4.867-1.122 1.958 2.154 1.91 3.254 1.76.283.575.646.97 1.04 1.456 2.102 2.592 2.953-.628 4.47-1.362 5.69.246 2.611-1.996.979-4.555-.369-.574-.502-1.678-.71-2.351 2.742-.129 9.357-.838 9.291-4.515 3.042.3 7.286-.101 9.718-2.134.829-.693 1.114-1.158 1.547-2.134 3.3-.833 10.998-1.755 10.31-6.69a2.2 2.2 0 0 0-.152-.42c1.28-.376 2.412-.783 3.08-2.039.662-1.244.534-2.217-.239-3.328 2.135-1.159 2.252-2.875.994-4.748zM57.855 21.433c1.691.993 1.066 4.424 1.059 6.075-.012 2.021-.481 4.19-.664 6.215-.235 2.6-.323 5.282-.872 7.843-.574 2.304-.492 6.845-1.748 8.79-.944-1.075-2.489-2.254-3.604-3.277-1.68-1.543-3.316-3.381-4.973-4.885-1.181-1.145-2.516-2.193-3.652-3.374-1.805-1.879-3.875-3.553-5.673-5.425 1.427-.856 3.08-1.481 4.523-2.337 3.953-2.346 7.848-4.786 11.893-6.972 1.303-.704 3.01-1.305 3.713-2.651zM40.526 3.358c2.263 1.804 2.986 4.318 1.723 6.999-1.154-2.19-1.904-3.015-3.548-4.826.78-1.04.96-1.814.596-3.08.4.216.872.62 1.229.907M36.881 1.75c2.468-.158 2.03 2.965 1.276 3.065l-.196-.197c-.728-.851-1.575-1.66-2.399-2.423.495-.248.79-.325 1.319-.447zm-6.798 10.4c.357-2.746.152-4.336 3.381-4.964 1.37-.084 2.706.357 3.932.926a9.48 9.48 0 0 1 4.722 5.018c.303.747.472 1.542.725 2.301.316.944.67 1.897 1.014 2.837-1.28-.073-2.05-.15-3.38-.156-1.943-.063-3.82-.4-5.635-.465-.736-2.47-2.317-3.91-4.921-4.106.038-.456.101-.935.16-1.391zm-.054 2.132c1.881.09 3.464 1.416 3.977 3.209q-2.04.704-4.13 1.256c-.524.12-2.993 1.12-3.194.56.414-1.227 2.36-4.273 3.347-5.025m-13.72 4.325c3.277-.258 6.61-.041 9.879-.127-.879 2.071.747 1.893 2.197 1.466 1.75-.517 3.51-.956 5.233-1.565 1.352-.172 3.74.318 5.176.366 3.123.101 6.332.29 9.44.602 2.676.27 6.655.296 9.045 1.552-.163.404-.321.727-.691.982-.822.579-1.737.996-2.62 1.466a82 82 0 0 0-2.76 1.524l-7.057 4.188c-1.958 1.16-3.623 2.104-5.678 3.118-1.971.974-3.674 1.893-5.734 2.72-.544.239-.975.288-1.538.401-2.407.481-3.882-1.036-5.605-2.423-2.604-2.107-5.273-4.25-7.798-6.443-1.753-1.524-5.97-3.984-6.297-6.271.93-1.8 3.079-1.414 4.806-1.55zM.719 45.095c-.016-1.068.52-2.52.84-3.528.592-1.858 1.111-3.76 1.86-5.544 1.8-4.277 3.246-8.695 5.263-12.875.463-.957 1.357-2.473 2.053-3.245.015.214.04.612.11.808.98 2.677 4.359 4.404 6.396 6.197 1.89 1.665 3.595 2.99 5.488 4.59.544.458 1.267 1.151 1.825 1.479-1.01.67-2.227 1.37-3.277 2.02a383 383 0 0 1-11.419 6.74c-2.025 1.03-3.952 2.238-6.032 3.17-.9.405-1.8.915-2.651 1.414-.158-.296-.452-.91-.456-1.228zm9.462 3.688c-2.805-.343-5.781-.777-8.374-1.958 1.371-.894 2.798-1.414 4.217-2.166 3.146-1.669 6.212-3.444 9.284-5.244q4.962-2.88 9.817-5.935c1.312.917 1.956 1.791 3.586 2.356 2.742.948 5.904-.942 8.345-2.083 1.075 1.132 2.437 2.336 3.59 3.42l5.843 5.485c1.678 1.56 3.306 3.327 4.987 4.908 1.228 1.156 2.554 2.098 3.676 3.351l-.14.129c-1.368 1.246-3.374.765-5.06.865-1.984.126-3.957.18-5.943.047-.657-.065-1.477.043-2.12-.047a75 75 0 0 0-4.334-.465c-.743-.061-1.472-.224-2.224-.253h-.086c-1.091.018-2.225-.046-3.318-.122-1.626-.116-3.496-.068-5.1-.26-2.739-.4-5.539-.402-8.288-.696-1.555-.167-3.116-.497-4.695-.62-1.18-.093-2.484-.565-3.667-.71zm11.206 5.305a9 9 0 0 1 1.159-.752c.178-.014.174-.025.334.047.44.529 1.66 3.474 1.933 4.194-.422.443-.605.53-1.136.788-.228.027-.275.04-.505-.009-.608-.635-1.588-3.36-1.782-4.266zm.917 4.727c-.413.334-.542.42-1.064.51-.794-.416-1.765-3.586-1.908-4.483.44-.336.599-.393 1.107-.546.106.079 1.658 4.033 1.863 4.519zm1.538-5.31c-.975-1.906-1.806-.467-3.008-.016-.906.341-.95.061-1.883.723-.427-1.348-.56-1.974-.775-3.372 3.387.179 6.881.637 10.228.777q-1.182.523-2.358 1.062c-.725.284-1.463.533-2.202.826zm-5.765.404c-.274-.146-1.35-1.136-1.685-1.409a90 90 0 0 0-3.008-2.301c1.35.2 2.613.26 4.065.506.06 1.025.345 2.222.63 3.204zm-5.391.813c-.831-.555-1.766-.937-2.263-1.872-.759-1.425-.151-2.303 1.098-2.997.19-.004.19-.002.374.043.165.337-.074 1.075.07 1.588.378 1.33.94 2.547 1.532 3.783zm1.617.518c-.513-.99-1.76-3.623-1.678-4.641.69.447 5.095 3.735 5.39 4.313l-.148.045c-1.139.156-2.415.233-3.564.283m6.366 8.141c-2.222-1.003-3.288-2.125-4.589-4.14 1.064-.015 2.846-.158 3.885-.286.106.022.53.722.632.867.996 1.398 2.206 2.297 3.503 3.396-1.102.752-2.256.576-3.429.163zm10.036 9.402c-.417.298-1.87-.02-2.314-.27-.082-.044-.08-.44-.098-.562-.178-.162-.072-.108-.35-.128-.275.106-.3.384-.447.52-.59.55-3.094 1.93-3.839 1.381-.194-.37.02-.93.127-1.368.298-1.102.82-1.12 1.054-2.035.023-.086-.04-.11-.117-.183-.642-.07-1.12.824-1.398 1.317-1.143.038-1.99.018-3.105-.253 1.35-1.003 4.153-1.886 5.734-2.631.587-.276 1.007-.782 1.691-1.073.413.018.964.208 1.299.443.316.225.566.533.72.89.226.51.208 1.289.402 1.851.242.703.533 1.362.646 2.1zm-3.078-6.032.292-.999c.803.427 1.576.843 2.43 1.159-.093.377-.174.793-.258 1.177-.698-.94-1.393-1.123-2.464-1.337m18.71 5.42c.56.851 1.36 1.547 1.774 2.461.047.11.006.113-.073.233-.61.354-1.827.208-2.565.174-.185-.249-.436-3.022-1.238-2.148-.115.657.373 1.308.434 1.908.079.802-1.068 1.902-1.601 2.5-.93.332-1.47-.824-1.924-1.332-.859-.962.135-2.058-.23-2.575-.263-.124-.14-.124-.373-.074-.387.35-.486 1.167-.538 1.676-.619.047-2.292.16-2.644-.416.146-.285.677-.851.91-1.1 1.048-1.11 1.642-1.574 2.285-2.951.933-.62 1.633-.7 2.724-.773.535-.036 1.92.221 2.181.757.298.61.49 1.07.877 1.66zm10.55-8.429c-.664.023-1.35-.16-2.085-.142-.892.023.03 1.7-.838 2.157-1.946 1.908-5.756 2.287-8.317 2.387-.253-.474-.294-.64-.759-.994-.657-.501-2.274-1.337-2.762-.266.67.569 1.536.106 2.224.698.608.521.69 1.17.895 1.89-1.419-.689-2.676-.522-4.153-.08.176-.654.478-1.122-.111-1.548-.043.033-.368.35-.346.34-.503.224-2.109-.029-2.62-.087A26.4 26.4 0 0 1 23.908 62.1c-.917-.77-1.46-1.159-2.211-2.105.587-.176.95-.513 1.434-.888 1.285.04 2.132-.569 2.441-1.813.253-.285 2.462-.863 3.047-1.091 3.134-1.222 5.727-2.457 8.67-4.052 1.115.174 2.299.122 3.432.335.626.725 1.97 2.098 2.771 2.536 4.208 2.296 9.025 3.988 13.765 4.706 2.663.402 5.714 1.017 8.365.44-1.62 3.018-5.668 3.465-8.735 3.573m21.506-16.459c-.052.576.775.994.906 1.545.46 1.956-1.247 3.065-2.904 3.471-.278.068-.669.22-.789.465.045.253.294.524.459.741.018.793.03 1.604-.533 2.243-2.193 2.495-8.029 3.503-11.15 3.861-1.759.3-4.354-.248-6.129-.465-3.819-.467-7.173-1.53-10.707-2.99-2.645-1.09-3.631-1.5-5.7-3.51 1.387-.024 2.873.105 4.286.114 1.453.009 2.692-.068 4.133-.131 1.084-.018 2.387.11 3.446-.125 3.88-.853 3.616-6.03 4.052-9.094.163-1.134.492-2.247.646-3.385.336-2.46.386-4.978.695-7.433.617.414 1.47.813 2.125 1.166 2.453 1.32 4.98 2.378 7.595 3.338.951.35 1.895.855 2.844 1.217 2.64 1.005 5.384 1.847 7.385 3.968.645.673 1.495 1.904 1.46 2.872-.051 1.532-1.62 1.676-2.122 2.13z"/><path fill="#fefefe" d="M18.543 50.115c2.748.293 5.549.296 8.288.695 1.604.192 3.473.143 5.1.26 1.09.08 2.224.142 3.317.12h.086c.752.034 1.48.194 2.224.257a76 76 0 0 1 4.334.465c.644.09 1.464-.018 2.12.048 1.986.135 3.96.081 5.943-.047 1.684-.1 3.69.381 5.06-.865l.14-.13c-1.122-1.253-2.447-2.194-3.676-3.35-1.68-1.581-3.31-3.347-4.987-4.908l-5.842-5.486c-1.152-1.081-2.514-2.285-3.59-3.419-2.442 1.14-5.602 3.03-8.346 2.082-1.63-.564-2.274-1.438-3.586-2.355a309 309 0 0 1-9.817 5.935c-3.073 1.798-6.138 3.573-9.284 5.244-1.418.752-2.843 1.271-4.216 2.166 2.592 1.18 5.569 1.614 8.374 1.958 1.185.144 2.488.616 3.667.709 1.579.124 3.137.454 4.695.62z"/><path fill="#8f95a0" d="M79.054 42.28c-2-2.122-4.745-2.962-7.385-3.967-.948-.362-1.892-.867-2.843-1.218-2.613-.96-5.142-2.016-7.595-3.337-.652-.353-1.508-.752-2.125-1.166-.307 2.457-.359 4.973-.695 7.433-.156 1.138-.486 2.251-.646 3.385-.436 3.065-.172 8.24-4.052 9.094-1.059.233-2.362.107-3.446.125-1.441.063-2.683.14-4.133.13-1.414-.008-2.902-.137-4.286-.112 2.068 2.01 3.055 2.416 5.7 3.51 3.534 1.458 6.888 2.522 10.707 2.99 1.773.216 4.37.763 6.129.464 3.119-.359 8.954-1.366 11.15-3.861.562-.64.55-1.45.532-2.243-.164-.217-.415-.488-.458-.74.12-.245.51-.398.788-.466 1.658-.406 3.363-1.513 2.904-3.471-.128-.549-.957-.969-.905-1.545.501-.454 2.07-.598 2.123-2.13.034-.968-.816-2.199-1.461-2.872zm-7.175 6.134c-.666 1.093-1.52 1.24-2.65 1.511-.023 1.782-1.317 2.911-2.96 3.313-.923.226-2.07.447-2.953-.045.015-.196.013-.156.072-.35.402-.348 1.312-.074 1.879-.16 1.942-.298 2.527-.675 3.28-2.48-.152-.244-.285-.393-.28-.666.462-.906 2.37.504 3.473-2.615-.477-2.52-2.225-2.893-4.188-4.06-.356-.213-.91-.344-1.197-.624-.15-.594.906-.951.949-1.75.081-1.493-3.948-2.218-4.438-2.817-.06-.223-.004-.298.08-.517.099 0 .264.011.358.045 1.656.567 3.731 1.177 4.7 2.73.07.994-.072 1.245-.628 2.017.908.477 1.64.865 2.534 1.403 1.186.716 2.08 1.391 2.444 2.814.212.826-.048 1.554-.475 2.251"/><path fill="#000" d="M69.907 43.349a47 47 0 0 0-2.533-1.402c.557-.773.697-1.024.627-2.017-.969-1.554-3.042-2.164-4.7-2.73a1.4 1.4 0 0 0-.358-.046c-.084.217-.14.294-.08.517.49.599 4.52 1.326 4.438 2.817-.043.801-1.1 1.158-.948 1.75.287.28.84.41 1.197.623 1.964 1.17 3.712 1.54 4.187 4.06-1.102 3.12-3.01 1.71-3.474 2.616-.004.276.129.422.28.666-.752 1.805-1.337 2.182-3.279 2.48-.567.088-1.474-.185-1.879.16-.058.192-.058.151-.072.35.883.493 2.03.271 2.954.045 1.642-.402 2.936-1.53 2.958-3.313 1.132-.268 1.983-.417 2.652-1.51.427-.698.686-1.428.474-2.252-.364-1.423-1.258-2.1-2.444-2.814"/><path fill="#fefefe" d="M17.8 26.43c2.525 2.192 5.194 4.338 7.798 6.443 1.721 1.386 3.196 2.904 5.605 2.423.563-.113.994-.163 1.538-.402 2.058-.827 3.763-1.746 5.734-2.72 2.056-1.013 3.72-1.957 5.678-3.118l7.057-4.187a86 86 0 0 1 2.76-1.524c.883-.468 1.798-.888 2.62-1.466.37-.253.528-.576.69-.983-2.386-1.255-6.368-1.282-9.044-1.551-3.11-.312-6.317-.501-9.44-.603-1.436-.047-3.826-.538-5.176-.366-1.726.61-3.483 1.048-5.233 1.565-1.45.427-3.076.608-2.197-1.465-3.266.085-6.601-.131-9.878.126-1.73.136-3.878-.248-4.806 1.55.327 2.287 4.544 4.749 6.296 6.27z"/><path fill="#8f95a0" d="M57.257 59.73c-4.74-.717-9.558-2.41-13.765-4.707-.802-.438-2.146-1.812-2.771-2.536-1.136-.213-2.317-.16-3.433-.335-2.943 1.595-5.535 2.832-8.67 4.052-.585.228-2.793.806-3.046 1.09-.31 1.247-1.159 1.855-2.442 1.814-.48.375-.846.712-1.434.888.752.946 1.294 1.332 2.211 2.104a26.4 26.4 0 0 0 14.108 5.997c.508.058 2.114.311 2.62.088-.023.009.305-.308.346-.341.261-.51.636-.734 1.147-.96.485-1.07 2.105-.235 2.762.266.465.355.506.517.759.994 2.56-.1 6.37-.481 8.317-2.387.867-.456-.054-2.134.838-2.157.732-.018 1.418.165 2.084.142 3.067-.108 7.117-.555 8.736-3.572-2.651.575-5.705-.039-8.365-.44zm-15.908 4.823c.052-.445.693-.605 1.048-.725.616-.023 1.632-.14 1.933.556-.052.241.009.142-.213.293-.275.05-.363-.016-.639-.122-.62-.025-1.829.34-2.132-.004zm3.947 2.362c-.397-.077-.526-.27-.815-.553-.38-.077-.734-.097-.964-.4-.043-.3-.041-.194.11-.51.707.007 2.313.483 1.67 1.461z"/><path fill="#000" d="M44.12 64.68c.22-.152.16-.052.212-.294-.3-.695-1.317-.578-1.934-.555-.356.117-.995.277-1.047.724.302.344 1.51-.022 2.132.005.275.106.363.172.639.122zm-.493.772c-.149.316-.151.207-.11.51.232.303.585.323.964.4.289.282.418.476.815.553.644-.98-.962-1.454-1.669-1.461z"/><path fill="#f2f4fa" d="M42.25 31.057c-1.444.856-3.097 1.481-4.524 2.337 1.797 1.872 3.868 3.544 5.673 5.425 1.136 1.183 2.47 2.231 3.651 3.374 1.658 1.504 3.293 3.342 4.973 4.885 1.116 1.025 2.66 2.202 3.605 3.277 1.255-1.945 1.174-6.486 1.748-8.79.549-2.559.637-5.244.871-7.843.183-2.024.653-4.192.664-6.215.01-1.651.633-5.084-1.059-6.075-.702 1.348-2.41 1.946-3.713 2.651-4.044 2.184-7.942 4.625-11.892 6.972zM9.858 41.739a381 381 0 0 0 11.418-6.74c1.05-.65 2.267-1.35 3.277-2.02-.558-.328-1.283-1.021-1.825-1.48-1.892-1.596-3.597-2.924-5.488-4.589-2.037-1.793-5.413-3.523-6.395-6.197-.073-.196-.098-.591-.111-.808-.696.77-1.59 2.287-2.053 3.245-2.017 4.18-3.46 8.595-5.262 12.875-.75 1.784-1.27 3.686-1.86 5.544-.322 1.005-.855 2.46-.841 3.528.005.318.298.933.456 1.228.852-.499 1.75-1.009 2.652-1.413 2.08-.933 4.006-2.141 6.032-3.171z"/><path fill="#8f95a0" d="M34.844 17.647c1.815.065 3.692.404 5.634.465 1.33.007 2.1.084 3.381.156-.343-.937-.698-1.89-1.014-2.837-.253-.756-.422-1.553-.725-2.301a9.47 9.47 0 0 0-4.722-5.018c-1.227-.57-2.561-1.01-3.932-.926-3.23.628-3.024 2.218-3.38 4.964-.06.456-.123.935-.161 1.391 2.601.197 4.185 1.635 4.92 4.106zm-.032-6.872c.513-.933 1.107-1.209 2.041-1.51 1.721-.232 2.333.927 2.936 2.289.382.176.457.21.77.492.527 1.335.012 2.283-1.341 2.213.045.002-.793.673-.99.773-.751.26-1.564.347-2.307.004a2.57 2.57 0 0 1-1.355-1.538c-.255-.788-.15-2 .246-2.723"/><path fill="#000" d="M35.921 15.036c.743.345 1.556.255 2.308-.005.197-.099 1.035-.77.99-.772 1.352.07 1.865-.879 1.341-2.213-.314-.282-.388-.316-.77-.492-.603-1.362-1.215-2.52-2.936-2.288-.935.298-1.529.573-2.042 1.508-.395.72-.5 1.936-.246 2.724.217.68.71 1.238 1.355 1.538m-.447-3.936c.334-.664.845-.893 1.511-1.105 1.868-.129 2.629 2.286 1.748 3.663-.327.51-.766.716-1.344.838-2.06.305-2.708-1.822-1.915-3.399z"/><path fill="#fefefe" d="M37.388 14.499c.578-.122 1.017-.328 1.344-.838.883-1.378.12-3.792-1.748-3.663-.666.212-1.177.44-1.51 1.104-.793 1.574-.145 3.704 1.914 3.399zm-1.409-3.031c.262-.445.619-.61 1.098-.72.598.07 1.097.386 1.278.984.12.4.07.831-.142 1.193-.265.458-.59.62-1.073.754-.628-.124-1.093-.373-1.294-1.023a1.5 1.5 0 0 1 .133-1.188"/><path fill="#000" d="M37.143 13.678c.483-.133.808-.295 1.072-.754a1.5 1.5 0 0 0 .143-1.192c-.181-.599-.68-.915-1.279-.985-.479.11-.835.278-1.097.72-.208.36-.255.79-.133 1.188.203.653.668.9 1.294 1.023"/><path fill="#f1d3af" d="M43.282 69.752c-1.091.072-1.791.151-2.724.772-.644 1.378-1.238 1.84-2.286 2.952-.234.248-.763.813-.91 1.1.353.576 2.026.465 2.645.415.052-.508.151-1.326.537-1.675.233-.05.111-.05.373.074.368.517-.628 1.612.23 2.575.454.508.994 1.662 1.925 1.332.532-.599 1.68-1.698 1.6-2.5-.06-.6-.548-1.251-.433-1.908.8-.874 1.052 1.899 1.238 2.147.736.034 1.955.181 2.565-.174.077-.12.12-.121.072-.232-.415-.915-1.215-1.61-1.772-2.462-.387-.59-.578-1.05-.877-1.66-.262-.535-1.646-.795-2.181-.756zm.57 2.839c-.248.027-.144.058-.329-.066-.639-.327-1.28.102-1.748-.343-.022-.226-.038-.118.061-.337.215-.171.35-.171.633-.226.435-.013 1.447-.065 1.547.626.024.174-.057.233-.163.346"/><path fill="#000" d="M42.467 71.62c-.282.056-.416.053-.632.225-.1.217-.084.109-.061.337.467.444 1.11.016 1.748.343.183.126.081.093.33.065.106-.112.187-.171.162-.345-.102-.691-1.111-.64-1.547-.626"/><path fill="#f1d3af" d="M29.658 68.83a2.1 2.1 0 0 0-.72-.89 2.76 2.76 0 0 0-1.299-.442c-.684.293-1.104.797-1.691 1.072-1.581.746-4.386 1.629-5.734 2.631 1.116.271 1.962.292 3.105.253.278-.492.757-1.386 1.398-1.316.077.072.14.097.117.182-.234.915-.756.931-1.054 2.035-.106.438-.32.998-.127 1.369.746.549 3.25-.834 3.84-1.382.146-.136.171-.413.447-.52.277.02.171-.036.35.13.018.123.016.516.097.561.445.251 1.897.57 2.315.27-.113-.737-.405-1.397-.646-2.101-.192-.562-.176-1.342-.402-1.852z"/><path fill="#ffdb70" d="M29.875 18.746a59 59 0 0 0 4.13-1.256c-.512-1.793-2.095-3.118-3.977-3.209-.986.752-2.933 3.799-3.346 5.025.2.56 2.669-.438 3.193-.56"/><path fill="#f0665a" d="M20.596 59.822c-.104-.145-.526-.845-.633-.867-1.038.128-2.818.268-3.884.286 1.3 2.015 2.37 3.137 4.59 4.14 1.174.411 2.325.587 3.427-.163-1.294-1.1-2.506-1.998-3.502-3.396z"/><path fill="#8f95a0" d="M28.401 51.62c-3.347-.14-6.84-.6-10.228-.778.217 1.396.348 2.024.775 3.372.932-.662.977-.382 1.883-.723 1.2-.451 2.032-1.89 3.008.016.739-.293 1.48-.542 2.202-.826q1.176-.54 2.358-1.062z"/><path fill="#f0665a" d="M38.702 5.53c1.644 1.811 2.392 2.636 3.548 4.826 1.263-2.68.542-5.194-1.723-6.998-.357-.285-.829-.691-1.229-.908.364 1.264.183 2.039-.596 3.08"/><path fill="#f2f4fa" d="M18.015 54.911c-.299-.578-4.7-3.866-5.391-4.313-.081 1.018 1.165 3.651 1.678 4.64 1.15-.051 2.425-.126 3.564-.282z"/><path fill="#f0665a" d="M23.674 58.365c.53-.258.713-.344 1.136-.789-.271-.72-1.493-3.665-1.933-4.193-.159-.073-.156-.06-.335-.048a9 9 0 0 0-1.158.752c.194.906 1.174 3.63 1.782 4.266.23.052.277.036.506.01z"/><path fill="#8f95a0" d="M11.894 49.896c-.185-.046-.185-.048-.375-.043-1.249.693-1.856 1.572-1.098 2.996.497.936 1.435 1.317 2.263 1.873l.811.544c-.591-1.235-1.154-2.455-1.531-3.783-.145-.512.095-1.25-.07-1.587"/><path fill="#f0665a" d="M19.332 54.842c.14.897 1.113 4.07 1.908 4.483.522-.093.65-.176 1.064-.51-.205-.486-1.76-4.438-1.863-4.52-.508.152-.669.208-1.107.547z"/><path fill="#f1d3af" d="M40.978 67.846c.59.426.287.894.11 1.549 1.477-.443 2.733-.61 4.154.079-.204-.72-.287-1.369-.895-1.89-.689-.592-1.551-.13-2.224-.698-.51.226-.885.45-1.147.96z"/><path fill="#f2f4fa" d="M16.391 52.5c.335.273 1.412 1.26 1.685 1.409-.285-.98-.57-2.18-.63-3.205-1.452-.246-2.715-.307-4.065-.506a90 90 0 0 1 3.008 2.301z"/><path fill="#f0665a" d="m37.963 4.618.196.196c.755-.102 1.193-3.223-1.276-3.065-.526.122-.824.197-1.319.448.825.763 1.672 1.571 2.399 2.423z"/><path fill="#f1d3af" d="M30.09 68.087c.084-.382.166-.8.258-1.177-.853-.316-1.626-.731-2.43-1.158l-.291.998c1.07.215 1.766.398 2.464 1.337"/><path fill="#000" d="M42.597 2.084a.759.759 0 1 0-.417-1.46.759.759 0 0 0 .417 1.46"/></svg>