<svg xmlns="http://www.w3.org/2000/svg" width="87" height="71" fill="none" viewBox="0 0 87 71"><path fill="#000" d="m62.96 31.495.08-.008zm1.029-.023c-.18 0-.34-.006-.493-.006q.134-.001.28.004l.215.002zm-.851.004.081-.004q-.04 0-.081.004"/><path fill="#000" d="M85.886 20.614c-.01-1 .072-2.093.09-3.103q.053-3.357.038-6.716c-.006-1.31-.05-2.613-.08-3.926-.031-1.248-.799-.939-1.733-.947-.317-.002-.622.004-.94-.008-.078-.645-.078-1.784-.934-1.802-3.988-.093-7.96.117-11.947.109-.147-1.363-.367-2.165-1.487-3.101-.293-.244-.94-.637-1.283-.71-1.85-.379-4.26-.45-6.124-.39-1.825.099-3.623.167-5.452.181-.963.006-1.948.11-2.915.126-1.019.016-2.04.037-3.06.014-2.605-.06-5.21-.224-7.813-.288-1.594-.033-3.44.117-5.054.146-1.776.033-3.603.085-5.376.163-1.711.076-3.61.34-5.322.375-2.101.019-4.194.128-6.295.167-.74.015-1.555.167-2.3.219-2.286.16-5.194.305-6.847 2.115-1.392 1.526-1.384 3.92-1.376 5.865 0 .742-.02 1.62.02 2.35q.389 8.025.506 16.055c.04 1.9.002 3.803.041 5.702.006.253-.006.52.017.77-1.312.304-2.277.898-3.023 2.042-.485.745-.501 1.273-.8 1.988-1.508.643-5.091 1.052-6.02 1.635-.154.097-.236.26-.304.425-.47 1.134.651 4.464 1.165 5.627.34.771.618 1.448 1.455 1.776l.112.043c1.837-.454 3.623-1.27 5.549-1.652.507.188 1.375.974 2.062 1.347-.275 3.592-.295 7.46.391 11.015.473 2.444 2.621 4.01 5.063 4.128 2.239.107 4.495.126 6.734.175 5.679-.11 11.362.215 17.043.209a83 83 0 0 0 3.369-.056c1.17-.056 2.761-.173 3.91-.111 3.526-.025 7.285.014 10.78-.223-.555.499-1.353 1.324-1.76 1.957q-.75.271-1.494.559c-1.586 3.36-.623 2.89 2.35 2.239.576.276 2.49 1.115 3.067 1.056 1.627-.171 3.355-.908 4.957-1.25 4.885-1.037 9.737-2.14 14.453-3.806.575-.19 1.233-.147 1.802-.345 1.975-.686 1.307-2.581.967-3.932-.689-2.74-2.054-2.833-4.328-1.784-.114.052-1.421.277-1.669.332q-2.875.632-5.726 1.372c.792-1.786.9-4.003.986-5.941.185-4.1.041-8.248-.07-12.351l-.231-9.376c-.035-1.1-.149-2.465-.13-3.537 1.159-.022 2.365-.02 3.522-.099 1.089-.092 2.155-.286 3.254-.278 2.437.016 4.87.04 7.307-.025.91-.058 1.034-.542 1.056-1.336.05-1.73-.154-3.466-.173-5.188M82.401 5.403l.046.016c.092.165.094 1.136.125 1.42.371 3.401.336 6.78.378 10.193.01.88.152 1.842.127 2.7-.043 1.521-.105 3.01-.099 4.534-3.699-.008-7.363.111-11.054.177-3.4-.045-6.765.1-10.16.305-1.637.1-3.387.01-5.033.06-1.46.043-2.893.101-4.353.025.497-.353.798-.5 1.35-.744 1.593-.735 3.626-1.968 5.14-2.84 1.117-.645 2.899-1.53 3.874-2.231.724.674 1.786 1.324 2.71 1.67a5.7 5.7 0 0 0 4.462-.15c2.92-1.332 4.487-4.955 3.585-8.032-.105-.36-.303-.752-.463-1.095 1.426-.773 2.56-1.567 3.91-2.443l5.46-3.563zM62.196 15.436c-.196-2.538 1.299-4.59 3.573-5.604.934-.417 1.586-.466 2.606-.532 1.368-.089 2.56.585 3.413 1.606 3.083 3.689.093 9.772-4.763 9.421-1.417-.212-2.316-.657-3.458-1.55-.996-.767-1.28-2.17-1.37-3.34zm13.2-10.555c2.209-.097 4.386-.083 6.597-.076-1.419 1.074-3.64 2.369-5.151 3.369-.998.66-3.23 2.206-4.231 2.606-.427-.565-.796-.855-1.334-1.284-1.466-1.165-2.78-.996-4.535-.74-2.074.4-4.266 2.19-4.934 4.208-.578 1.74-.35 3.893.47 5.512-.944.688-2.33 1.276-3.336 1.905-2.512 1.573-5.211 2.771-7.725 4.33-.061-5.588-.185-11.157.1-16.745.045-.92-.027-2.155.232-3.073.046-.156.205-.185.353-.241.301-.019.652-.019.953-.012 3.532.043 7.083.23 10.613.224 3.975-.035 7.953.19 11.929.019zM14.874 2.169c.983-.235 2.012-.198 3.002-.332 2.171-.295 4.324-.226 6.505-.352.732-.044 1.504.012 2.236-.05 5-.42 9.986-.49 14.997-.67 1.344-.047 2.672.074 4.008.149 5.3.288 10.57.053 15.865-.178 1.256-.06 4.743.03 5.825.34.388.114.751.3 1.07.547.963.734 1.151 1.485 1.291 2.6a40 40 0 0 1-1.87-.043c-2.924-.12-5.864-.004-8.79-.097l-3.578-.087c-1.357-.045-2.765-.181-4.11.03-.907.96-.626 2.73-.723 3.975-.06.76-.09 1.608-.097 2.373-2.674.212-6.09.252-8.768.28l-12.768.101c-2.406.036-4.88.293-7.3.337-1.146.02-2.342.195-3.51.226-1.943.101-3.908.085-5.853.275-.624.06-1.276.15-1.9.115-.026-.783.011-1.742-.013-2.456-.128-3.64.352-6.474 4.485-7.077zm-3.999 23.594-.016-.724c-.136-1.318 0-2.953-.157-4.334l-.017-.703.003-.143V19.7c0-.226-.009-.513-.021-.82a80 80 0 0 0-.054-1.196 38 38 0 0 0-.074-1.147l-.018-.643c-.015-.563-.017-1.144-.015-1.728 0-.584.006-1.167.004-1.732.734.02 1.308-.087 2.035-.153q1.018-.082 2.036-.105c.233-.008.532-.041.769-.06 1.447-.15 3.425.01 4.852-.222l.763-.03q.357-.044.674-.065l.21-.012q.173-.009.347-.015c.344-.01.692-.012 1.095-.027a72 72 0 0 0 2.9-.156h.122c1.052-.143 2.815-.08 3.93-.122.757-.029 1.838-.064 2.576-.046-.245.988-.542 2.3-.913 3.25-1.831 4.683-4.939 9.178-9.234 11.871-4.054 2.543-7.054 3.268-11.751 3.72-.005-1.47-.064-3.054-.05-4.497zm-.627 20.494c-.61-.392-1.13-1.04-1.89-1.097-.972-.014-5.137 1.759-5.663 1.48-.827-.437-2.466-5.862-1.83-6.396.53-.445 5.158-.942 5.967-1.697.587-.548.577-1.713 1.125-2.346.99-1.244 1.912-1.435 3.368-1.687 2.969-.09 6.714 1.45 9.26 2.984l-5.501 1.697a9 9 0 0 0-.402-.613c-1.027-1.394-3.415-1.85-4.739-.765-2.027 1.598-.742 5.374 1.786 5.533 2.499.156 3.332-1.326 3.559-3.473 2.068-.651 3.664-1.185 5.79-1.765-.167.43-.355.823-.549 1.24-1.84 3.165-3.45 6.19-7.295 7.118-.924.222-2.149.321-2.986-.215zm3.361-4.04c-.165.096-.299.178-.478.246-.427.101-1.043.28-1.454.17-3.163-.859-2.55-5.702 1.223-4.5l.57.293c1.406 1.016 1.414 2.693.14 3.792m46.21 25.221c-.21-.033-.423-.078-.63-.12a28 28 0 0 0-1.73-.686c-.24-.66-.535-1.607-.636-2.291.571-.64.907-1.037 1.565-1.592.377.52.507.594 1.054.878-.192.413-.396.844-.365 1.312.047.728.497.856.96 1.25.032.17-.172 1.012-.218 1.25m2.293-.515-1.31.358-.156.027-.058-.084c.008-.266.13-.815.425-.891 1.858-.466 3.716-.802 5.56-1.345 3.556-1.047 7.282-1.67 10.825-2.759l.058.015c.142.173.185.416.247.637-5.104 1.79-10.399 2.598-15.589 4.04zm17.61-9.812c1.486-.067 1.742 2.14 1.97 3.195.296 1.36-.265 1.703-1.496 1.911l-.716.105c-.398-1.544-.66-3.219-1.286-4.631a6.7 6.7 0 0 1 1.53-.58zm-.949 5.46c-.132.02-.212.021-.346.026-.402-.52-1.184-3.999-1.256-4.77.798.175 1.47 3.974 1.602 4.745m-1.899-2.496c.163.435.27.987.375 1.447-2.573.835-5.74 1.427-8.386 2.11-1.235.317-7.677 2.144-8.43 1.926-.564-.285-.818-.69-.521-1.324.247-.53 1.175-.547 1.72-.695 1.697-.46 3.445-.745 5.175-1.052 1.947-.422 3.926-1.002 5.86-1.489 1.363-.342 2.737-.602 4.094-.97l.117.047zm-.882-1.951.303-.025c.284.163.317.774.433 1.196-1.273.37-2.574.578-3.834.91a300 300 0 0 1-6.035 1.538c-1.066.187-2.19.414-3.252.594-.781.132-3.064.917-3.695.664-.332-.095-.788-.246-.835-.636a.45.45 0 0 1 .32-.224c1.69-.4 3.42-.716 5.11-1.103 1.735-.398 3.494-.967 5.22-1.423 2.075-.547 4.192-.963 6.267-1.493zm-5.246-8.184q-.001.183-.007.363l-.012.532q-.014.496-.041.946-.027.456-.07.848l-.004.227c-.013.657-.046 2.113-.161 2.387-.147 1.18-.231 2.63-1.031 3.566q-.08.092-.17.179c-2.074.614-4.12 1.18-6.212 1.64q-1.045.229-2.11.422a4 4 0 0 0-.278.058c-.65.146-1.313.381-1.967.48a43 43 0 0 1-2.303.122q-.388.013-.745.027-4.771.145-9.547.115c-1.604 0-3.212.116-4.825.163a38 38 0 0 1-1.614.018c-4.096-.047-8.19-.121-12.286-.24-2.757-.081-5.485.119-8.248-.065-1.911-.128-3.85.254-5.586-.824-.944-.555-1.517-1.345-1.854-2.339a7 7 0 0 1-.13-.439c-.131-.425-.2-1.101-.245-1.61l-.018-.207c-.108-.482-.134-.967-.172-1.46l-.04-.288c-.071-1.206-.03-2.139-.042-3.322-.023-.173-.027-.445-.035-.627.062-1.128.142-2.157.138-3.287.284.02.534.033.773.031a6.5 6.5 0 0 0 1.231-.134l.592-.153c1.023-.28 1.73-.694 2.64-1.233.593-.393.892-.618 1.391-1.123.994-1.136 1.788-2.26 2.574-3.547.121-.204.237-.43.348-.641.485-.84.771-1.386 1.132-2.297-.06-.308-.181-.662-.274-.965-.441-.361-1.714-1.033-2.227-1.275l-.648-.323a41 41 0 0 1-1.064-.46l-.585-.256c-1.485-.493-2.174-.705-3.687-1.02l-.608-.083a12 12 0 0 0-.88-.05 8 8 0 0 0-.881.035c-.002-.26-.01-.546-.013-.833v-.014c0-.28 0-.56.021-.81l-.037-.225c.01-.1.014-.225.014-.357q0-.087-.002-.173c-.002-.111-.008-.223-.01-.322l-.004-.142c.645-.023 1.05-.07 1.689-.163l.544-.076c.136-.042 1.276-.213 1.501-.252a31 31 0 0 0 2.235-.484l.59-.174c1.386-.447 2.549-.93 3.809-1.651l1.097-.633a16.5 16.5 0 0 0 2.717-1.835l.596-.533c.555-.461.844-.764 1.316-1.31.144-.174.317-.343.478-.506.61-.625 1.223-1.51 1.755-2.227l.515-.716c.13-.214.268-.422.405-.633.06-.09.113-.183.173-.272l.332-.54c.418-.707 1.56-3.052 1.796-3.796l.23-.592a9 9 0 0 0 .304-.96l.04-.14c.055-.203.104-.389.141-.517.105-.435.171-1.107.4-1.488.046-.075.161-.064.283-.083.456.072 2.42.037 2.96.027l.63-.008c1.01.022 2.054.012 3.101-.002.06-.052.045-.033.217-.025l.03.02c1.12-.018 2.244-.04 3.339-.045l.22-.02c1.176-.066 2.347-.035 3.551-.133l.462-.022c.705-.058 1.47-.027 2.126-.09-.02.97-.074 2.076-.058 3.037v5.012c-.002 1.006.017 2.019.033 3.027.017 1.009.033 2.015.027 3.002.136.205.231.372.452.431q.046.013.103.019c.419.045.82-.014 1.252-.025h.185c-.006.394-.074 1.075.128 1.367.237.176.538.421.827.45 1.076.107 2.26.103 3.346.14 1.347.045 2.774.208 4.102.22 2.089-.065 4.516-.088 6.61-.108.03.579.217 3.6.063 3.938.152-.34-.034-3.361-.062-3.938l.65-.005c.659-.024 1.372-.037 2.028-.078.008 1.415.056 2.833.114 4.254.02.033.014.045.004.126.055 1.363.12 2.726.169 4.093.029.043.018.05.006.16.04 1.106.07 2.211.078 3.318l.01.6q.03 1.93.093 3.858v.062l-.004.621c.041 1.4.108 3.444.087 5.275zM85.29 26.402c-2.507.12-5.347-.012-7.862.025-1.102.016-2.22.278-3.293.33-1.044.051-2.13.045-3.182.082q-4.033.155-8.069.219c-3.124.035-5.988-.272-9.106-.305-.218-.046-.228-.038-.428-.16-.194-.278-.128-.65-.116-1.006 1.99.013 3.998-.088 6-.086 2.782.004 5.556-.24 8.343-.301l11.812-.219c1.214-.02 2.43.017 3.645-.008.561-.01.625-.258.662-.777.041-.619.002-1.246.031-1.864.097-2.104.004-4.184-.07-6.287-.068-1.949.002-3.902-.111-5.85-.07-1.186-.186-2.37-.273-3.557.54.014 1.069.043 1.607-.015.136-.022.126-.016.268-.008.342.516.088 11.859.037 13.403-.054 1.615.262 4.81.107 6.382zM32.728 50.895"/><path fill="#000" d="M33.114 50.778a.3.3 0 0 0 .07-.061.3.3 0 0 1-.07.058zm-.101.049a1 1 0 0 0 .09-.042q-.04.022-.088.042zm-.117-10.855.002.593zm-1.684 13.855v.014c-.028-.668-.084-1.493-.04-2.134-.044.637.012 1.456.04 2.12m.013.303v.015l-.002-.096v.082zm1.851-6.524.002.26zm.054 1.889-.013-.184.01.163v.02zm-.03-.6.002.074-.006-.172v.017q0 .04.002.079zm-.02-.854v.106l-.002-.222v.118zm.028 1.08q.001.054.006.11l-.008-.168v.058zm-.016-.496q0 .04.002.078c0-.06-.004-.122-.004-.184v.02q0 .044.002.086m-.03-3.199q0 .109.004.23v.601c0 .412 0 .866.004 1.321-.006-.911 0-1.83-.016-2.384l.006.23zm.021 2.91v.093q0-.1-.004-.199v.108zM30.807 35.76l-.002.496zm36.778 13.763c-.635-.126-1.06.013-1.484-.01.424.025.847-.115 1.484.01m-32.726 6.302h.02l-.02-.002zm1.235-2.293-.002-.048zm-.914 2.311h-.042zm6.589-21.803c.214-.025.482-.081.699-.118-.217.037-.487.09-.7.117m25.219-2.492c-.458-.365-1.794-.072-2.378-.075.584 0 1.92-.29 2.378.075m-4.673.534c.014.437.03.874.035 1.313-.005-.437-.021-.876-.035-1.313m-21.17 2.011c-1.198.006-2.178.144-3.277.175 1.101-.033 2.079-.17 3.277-.175m-9.171-1.302s-.013 0-.022.002l.047-.004h-.028zm-1.277 1.665v.008q0-.037-.003-.07v.064zm.021.346-.006-.088v.036q0 .026.004.052zm.059-1.309-.005.017.013-.04-.006.016v.007zm1.51-.724-.053.002zm-.96.152s-.005 0-.007.002l.037-.012-.02.006q-.005 0-.01.004m.194-.06.022-.004q-.009 0-.011.002-.006 0-.011.002m.196-.036s.01 0 .015-.003h-.015zm-.546.164-.016.01.032-.017-.012.007zm-.333.35s.01-.02.017-.03l-.008.013zm.187-.244.023-.02-.014.01q-.005.003-.009.008zm-.089.092.004-.004zm-.205.494s0 .017-.003.025q.002-.023.008-.047v.007l-.002.015zm11.006 1.124c-.251.398-.455.712-.6 1.165q-.053.168-.09.328c-.316 1.394.325 2.46 1.682 2.407a3 3 0 0 0 .676-.11l.052-.014c-.11.289-.206.563-.342.841a3.97 3.97 0 0 0-2.413 1.906 4 4 0 0 0-.334.759 3.2 3.2 0 0 0-.154.865c-.023.687.197 1.361.678 2.017l-.017.066c-.066.26-.173.734-.321.854l-.06.008c-.28.041-.553.06-.819.128a2 2 0 0 0-.284.097c-1.048.45-1.349 1.476-1.388 2.524L35.726 50.7c.23.213.292.285.356.609a31 31 0 0 0 1.957-1.743c.3 1.314.623 2.091 1.578 3.097.402.12.822.168 1.24.14.752.056 1.597.147 2.343.112-.746.037-1.592-.054-2.342-.111l-.043-.031c-1.056-.809-1.897-1.976-2.042-3.326-.13-1.2-.053-2.656 1.452-2.807l.033.044c-.126.47-.479 1.27-.097 1.668 1.11 1.157 2.204 1.334 3.72 1.668 2.019.447 4.066.72 6.182.633 2.816-.115 6.301-1.623 8.268-3.656.926-1.027 1.714-1.748 1.679-3.178 2.493.566 2.394 2.883 1.369 4.727-1.208 2.175-3.165 3.429-5.475 4.188-.468.164-2.38.117-3.01.12.63 0 2.542.044 3.01-.12.28.131 1.761.08 2.079-.023.903-.586 1.516-.959 2.349-1.683a9 9 0 0 0 .443-.45c.433-.47.833-1 1.169-1.521.111-.349.245-.643.38-.949.127-.29.257-.591.37-.958q.052-.162.095-.343c.728.266 1.176.677 2.093.908-.01-.287.023-.613-.148-.792-.59-.227-1.361-.631-1.945-.918a2 2 0 0 0-.032-.26 3.4 3.4 0 0 0-.13-.486l-.017-.052a2 2 0 0 0-.058-.14l-.051-.126-.033-.068q-.045-.097-.093-.19l-.004-.008a3.6 3.6 0 0 0-.464-.662q-.063-.067-.126-.127c-.627-.605-1.258-.718-2.107-.774a17 17 0 0 0-1.231-1.802c.35-1.217-.097-2.345-1.052-2.994a3 3 0 0 0-.738-.367c-.705-.243-1.062-.206-1.786-.163-.396-.893-1.039-2.12-1.5-2.973-.106-.21-.211-.489-.3-.712l-.381-.67q-.366-.554-.718-1.117c-.124-.149-.28-.376-.398-.537-.726-1.012-1.382-1.796-2.433-2.47l-.588-.25a2 2 0 0 0-.218-.022c-1.085-.041-2.091.967-2.817 1.666l-.528.528c-.175.177-.43.454-.614.606l-.487.542c-.307.32-1.17 1.33-1.417 1.547-.121.146-.629.781-.732.88m13.927 3.646c.592.043 1.336.32 1.716.794.598.744.4 1.559.352 2.413.433.449 1.823 2.158 1.545 2.773-1.07 2.349-3.215 3.674-5.502 4.625-3.396 1.414-6.53.899-10.004.212-1.543-.326-1.918-.383-3.11-1.427.13-.591.6-1.507.812-2.27.184-.121.225-.159.39-.307.165-.514-.936-1.074-.94-2.058-.186-1.697 2.01-3.722 3.66-3.054 1.827.742 3.054-.177 4.943-.334.433-.037 2.598.04 2.76-.023 1.502-.581 1.508-1.218 3.378-1.342zm-12.269-4.452c.322-.571 2.763-2.944 3.388-3.474.359-.306.846-.6 1.27-.817.516.019.928.311 1.316.629a10.5 10.5 0 0 1 1.67 1.924c.404.532.641.901.984 1.466.317.462.672 1.266.928 1.79l1.23 2.464c-.622.243-.86.369-1.391.781-.22.155-.357.254-.594.382-.662-.05-1.22-.08-1.83-.078q-.302 0-.63.012c-.505.082-.973.117-1.508.223-.707.138-1.736.47-2.424.433s-.934-.35-1.763-.37h-.1c.37-1.04.687-2.86.918-3.998.025-.117-.07-.222-.15-.305-.522-.148-.654.61-.74 1.004-.128.572-.217 1.145-.349 1.72q-.273.074-.547.138c-.595.138-1.257-.01-1.37-.707-.124-.765.265-1.441.661-2.056.367-.46.62-.736 1.035-1.157zm14.976-.038-.354.018zm.523-.021-.326.012zm.527-.017-.323.01zm-2.116.098q.273-.02.538-.035-.265.016-.538.035"/><path fill="#000" d="m53.753 34.048.128-.006h-.017q-.056.002-.109.006zm-.057.002h-.008l-.16.012q-.084.006-.161.017l-.302.02.303-.02q.15-.02.33-.03zm.464-.02.12-.003h-.044zm-.204.008.117-.004h-.03q-.043 0-.087.004"/><path fill="#cef3fd" d="M10.956 33.833c-.002-.26-.01-.546-.013-.833 0 .287.01.573.013.833m39.999-8.239c-.221-.06-.314-.225-.452-.431.136.204.23.37.452.43m-13.088 8.673c1.1-.033 2.079-.17 3.277-.176-1.198.006-2.178.145-3.277.176M25.721 58.423l-.418.008zm2.655.008q.378.013.757.035c.297.019.625.015.924.019-.3-.004-.627 0-.924-.02a23 23 0 0 0-.757-.036zm-1.706-.021h-.113zm5.623-20.51-.042.002q.033 0 .067-.005h-.025zm-.408.026.075-.004zm.157-.01.047-.002q-.025 0-.047.002m.413-.022.07-.002q-.036 0-.07.002m-.738.043.134-.009zm-.191.003q.068 0 .145-.003-.076.004-.145.004m-.064 13.087-.032.011q.015-.007.032-.01m-.118.055s-.009.006-.011.009zm1.2-.17q-.18.014-.37.023.188-.008.37-.023m-.432.025q-.04 0-.084.004c.028 0 .055-.005.084-.005m-.534.059-.028.006zm.315-.044-.047.004q.022 0 .047-.004m-.148.017q-.023.002-.045.006.023-.002.045-.006m-.548.483a3 3 0 0 1 .033-.213v-.002.002a5 5 0 0 0-.033.213m1.816-.625a1 1 0 0 0 .087-.042q-.039.022-.087.042m-1.8 3c-.029-.666-.083-1.483-.041-2.12q.009-.12.02-.23c-.078.659-.012 1.601.019 2.35zm.051-2.663.015-.02zm1.312-.253q.077-.006.15-.016a2 2 0 0 0-.15.016M10.942 31.594l-.002-.174zm12.234 8.318c.724-.62 1.023-1.359 1.018-2.07.005.711-.294 1.447-1.018 2.07"/><path fill="#000" d="m21.858 55.165.61-.04c.151-.02.269-.029.376-.04.177-.022.326-.054.548-.18.069-.147.118-.39.157-.557.015-1.14-.06-2.349-.07-3.508l-.027-.398a20 20 0 0 0-.041-.938c-.058-.95-.02-1.406-1.062-1.478l-.625-.008-.212.002c-1.09.012-2.602-.019-3.565.105l-.623.023c-.344.03-.765.028-1.017.307-.5.556-.187 4.845-.214 5.86.053.266.06.328.175.567.806.511.903.297 1.7.423l.107.014c.91.048 2.841-.084 3.78-.157zm-4.973-.784c-.143-.52-.134-4.714-.105-5.464 1.602-.149 2.765-.12 4.344-.17.547-.028.961-.026 1.508-.01.098 2.009.193 3.594.202 5.638-1.046.109-3.184.247-4.238.255-.443-.024-1.381-.014-1.711-.251z"/><path fill="#83dcf9" d="M16.311 48.457c.25-.278.672-.276 1.017-.307-.043-.549-.041-1.326-.054-1.953q-.002-.133-.006-.258c-.33 0-.61.035-.901-.1-.91.538-1.617.952-2.64 1.233.07 1.16.073 2.284.124 3.439.384-.015 1.893-.142 2.134.01.04.209.048.217.027.44-.276.206-1.74.158-2.16.169.034 1.024.119 2.156.119 3.163.68.008 1.456 0 2.128.029.025-1.015-.289-5.304.214-5.86zm1.661 6.85c-.796-.126-.893.089-1.699-.423-.711.044-1.575.02-2.301.019.03.548.134 2.715.076 3.206l-.115.093c.57.07 1.396.138 2.175.177.116.007.229.01.342.017q.367.015.693.018h.398c-.006-.717-.097-2.447-.029-3.018.149-.1.26-.077.462-.089z"/><path fill="#cef3fd" d="M17.971 55.307c-.2.015-.311-.01-.462.089-.068.571.025 2.301.03 3.019l.62.061c-.006-.95.012-2.237-.08-3.154z"/><path fill="#83dcf9" d="M13.332 54.276c-.013-1.042-.048-2.1-.075-3.143-.736.025-1.49.068-2.229.105.013 1.184-.029 2.116.042 3.322l.072-.183c.332-.219 1.711-.116 2.19-.101m-.2-7.054c-.462.09-.833.13-1.231.134-.24 0-.487-.01-.774-.031.005 1.13-.076 2.159-.138 3.287.714-.056 1.497-.05 2.217-.06q-.05-1.666-.076-3.33zm.308 10.935c0-1.048-.054-2.203-.077-3.262-.544.004-1.759.034-2.252-.046.04.493.064.976.172 1.46.263.606.449.957.709 1.202.187.177.414.297.736.417l.008.004.206.07q.219.071.495.152zm4.64-2.835c.092.917.073 2.204.08 3.155 1.216.002 2.575-.025 3.781.01 0-1.09-.05-2.227-.082-3.322-.936.072-2.869.204-3.78.157"/><path fill="#f67043" d="M22.833 54.377c-.008-2.043-.105-3.63-.202-5.638a17 17 0 0 0-1.507.01c-1.58.048-2.743.021-4.345.17-.029.75-.037 4.945.105 5.464.33.237 1.268.227 1.712.252 1.053-.008 3.192-.147 4.237-.256z"/><path fill="#000" d="M43.57 13.859a4.7 4.7 0 0 0-.998-.479l-.212-.07a5.3 5.3 0 0 0-1.28-.225l-.114.007a5 5 0 0 0-.594.099q-.284.065-.542.167a3.2 3.2 0 0 0-1.08.707q-.104.102-.203.216t-.191.244c-.901 1.56-1.345 2.963-.58 4.718.648 1.268 1.887 2.175 3.32 2.31l.058.005.206.027c1.32.033 2.223-.355 3.089-1.353.186-.294.334-.577.497-.882l.035-.087c.093-.192.188-.443.272-.643.153-.388.219-.759.22-1.116a3.5 3.5 0 0 0-.201-1.15 7.4 7.4 0 0 0-.512-1.126l-.53-.83a3.4 3.4 0 0 0-.66-.537zm1.081 2.913c.371 1.807-.748 3.656-2.586 4.102-5.258.17-4.843-6.403-1.27-7.06 1.843-.126 3.483 1.146 3.856 2.958"/><path fill="#d9fe8c" d="M40.796 13.813c-3.571.658-3.988 7.232 1.27 7.06 1.837-.443 2.957-2.294 2.586-4.1-.373-1.815-2.015-3.085-3.856-2.96"/><path fill="#000" d="M32.03 23.027a6 6 0 0 1-.173.287l-.365.579q-.092.176-.177.344c-.404.792-.748 1.493-1.229 2.302q-.38.794-.748 1.598c-.196.567-.334.874.253 1.272l.51.1c1.237.036 2.206.044 3.439-.03l.604-.045q.098-.012.192-.019c1.047-.111 2.017-.167 3.072-.252.23-.066.363-.136.582-.237q.04-.064.076-.13c.163-.29.163-.385.076-.7-.305-.615-.65-1.273-.895-1.908-.387-.786-.826-1.27-1.235-2.048a9 9 0 0 1-.173-.352l-.313-.576c-.207-.356-.483-.736-.704-1.096-.266-.433-.536-1-.851-1.382l-.493-.122s-.014.007-.023.009l-.146.055c-.429.637-.87 1.64-1.276 2.353zm1.578-1.466c.472.414 1.654 2.788 2.052 3.4.666 1.025 1.394 2.316 1.835 3.462-.852.147-2.695.21-3.728.322a23.4 23.4 0 0 1-3.895.022c.43-1.222 1.076-2.255 1.668-3.393.67-1.293 1.408-2.516 2.07-3.815z"/><path fill="#fe93bf" d="M29.873 28.77q1.948.147 3.895-.023c1.033-.114 2.877-.176 3.728-.322-.443-1.149-1.169-2.437-1.835-3.462-.398-.613-1.577-2.986-2.052-3.4-.661 1.299-1.4 2.521-2.07 3.814-.591 1.14-1.237 2.174-1.668 3.394z"/><path fill="#83dcf9" d="M26.805 55.004c.004.563.159 3.031.041 3.328-.218.043-.22.04-.428.025-.258-.365-.235-2.761-.252-3.38-.447 0-2.443.04-2.775-.074a1.3 1.3 0 0 1-.549.18c-.107.012-.225.02-.375.04.066 1.135.08 2.227.097 3.361q.48-.004.963-.014.176-.002.352-.008l.78-.019.643-.014q.209-.005.419-.008.417-.01.833-.013h.86q.09 0 .179.002.296.003.592.013.094.002.187.006.38.012.757.035c.297.019.625.014.924.02l-.087-3.474-3.165-.008z"/><path fill="#cef3fd" d="M21.858 55.165c.033 1.093.085 2.23.083 3.322h.625c-.017-1.133-.031-2.227-.097-3.36l-.61.04z"/><path fill="#83dcf9" d="M33.127 49.471a8 8 0 0 1-.018-.352v-.04l-.006-.187q0-.04-.003-.079-.001-.096-.006-.191l-.002-.085q0-.102-.004-.204v-.074q0-.11-.004-.22v-.052c-.008-.584-.006-1.194-.008-1.73v-.601q.001-.121-.004-.23-.001-.125-.007-.23c-.037-1.218-.162-2.837-.166-4.109q-.002-.273.006-.522-1.29-.001-2.578.05c.019 1.45.07 2.94.07 4.382.59-.019 2.01-.11 2.53.016l.079.08c-.008.188.02.297-.064.434-.431.088-1.994.08-2.534.092.028 1.417.107 3.003.107 4.4.476-.016 2.342-.102 2.67-.034a6 6 0 0 1-.045-.446v-.004l-.004-.066zm15.778-26.628c.462-.01 1.435-.21 1.538.324-.191.457-1.035.284-1.5.313.057 1.31.131 2.625.148 3.934.503 0 3.163.056 3.445-.111.056-.159.064-.184.089-.349-.204-.294-.136-.973-.128-1.367h-.186c-.43.01-.833.07-1.251.025a1 1 0 0 1-.103-.018c-.221-.06-.316-.225-.452-.431.006-.99-.01-1.994-.027-3.003-.016-1.008-.035-2.023-.033-3.027q-.84.028-1.682.025c.095 1.111.13 2.555.146 3.687zM22.02 41.242l.108.04c.152.32.123 3.36.128 3.904 1.152.004 2.408-.041 3.559-.078a320 320 0 0 1-.134-4.452c-.574.016-1.733.068-2.262-.002-.545.34-.761.466-1.399.59zm16.333-26.715a4 4 0 0 1 .394-.46q.14-.136.285-.251a3.2 3.2 0 0 1 .796-.456q.258-.102.542-.167t.594-.099l.113-.006c.311.014.635.06.959.138q.16.04.322.086.108.033.212.07c.352.124.693.283.998.479q.184.118.35.252.168.133.31.286c.051-.67-.062-2.303-.087-3.047-1.095.002-2.218.026-3.338.043.099.068.225.152.229.287.014.385.072 1.043.043 1.408l-.113.006c-.203-.017-.36.014-.479-.093-.053-.457-.082-1.078-.016-1.53q.063-.05.088-.074c-1.047.017-2.09.025-3.1.002q.089 1.514.11 3.033c.264 0 .565-.033.784.095z"/><path fill="#cef3fd" d="M40.486 13c.118.108.277.077.479.093l.113-.006c.029-.365-.029-1.023-.043-1.408-.004-.134-.13-.219-.23-.287l-.03-.02c-.171-.009-.157-.027-.216.024l-.09.074c-.065.454-.036 1.073.017 1.53"/><path fill="#fff" d="M23.175 39.912c.724-.62 1.023-1.359 1.018-2.07-.01-1.778-1.911-3.392-3.781-2.621q-.14.059-.28.134a3.4 3.4 0 0 0-.553.382q-.137.114-.27.251c.513.241 1.785.914 2.227 1.274.092.303.214.658.274.965-.361.912-.65 1.456-1.132 2.298.889.261 1.814-.025 2.497-.613"/><path fill="#83dcf9" d="M25.986 50.16c-.01-1.443-.093-2.965-.124-4.42q-1.784.049-3.567.071a79 79 0 0 1 .053 2.217c1.042.072 1.005.53 1.063 1.479.018.31.037.622.04.938l.058-.155c.23-.132 2.013-.113 2.477-.13m3.356-22.026q-1.74.042-3.479.041.044 1.836.118 3.67c1.16.023 2.36 0 3.524-.01-.006-.352-.101-2.29.09-2.429-.587-.398-.449-.705-.253-1.272m.116-.59a141 141 0 0 1-.107-3.61q-.555.022-1.11.037c-.333.006-1.01.08-1.226-.126-.472.546-.761.85-1.316 1.311.083.472.101 1.835.12 2.386h3.64zm15.528 3.685c-.186-.456-.192-2.55-.21-3.17l-3.205.013c.031 1.208.046 2.474.118 3.679.472-.005 2.425-.07 2.68.084.184-.152.44-.429.615-.606zm-.044-11.879c.231.201.237 3.082.256 3.604.944-.075 2.126-.07 3.095-.1-.082-1.137-.095-2.517-.144-3.676a71 71 0 0 1-3.17.085l-.035.086zM31.35 55.641c-.122-.258-.085-.532-.1-.84l-.072.178c-.21.078-.36.052-.585.041q.045 1.733.05 3.464h.119c.913.003 2.808.069 3.678.017h.013l.16-.012c-.206-.023-.502 0-.601-.103-.091-.652-.025-1.65-.066-2.337-.013-.2.018-.19.12-.278-.492-.177-2.21.256-2.717-.132zm-1.393-32.335c.435-.022 1.557-.105 1.904.005q.084-.134.173-.287c.408-.713.847-1.716 1.276-2.353l.147-.055.022-.009c-.1-.134-.068-.88-.066-1.099-.567 0-2.674.167-3.07-.016q-.089.134-.173.272c-.136.21-.275.419-.404.633.253.371.19 2.332.194 2.91zm-8.299 21.906c-.004-1.27-.06-2.584-.084-3.86-.588-.007-.701-.023-1.246-.186-.787 1.287-1.581 2.413-2.573 3.547.076.208.047.328.157.556.255.095 3.27-.037 3.748-.06zm-.301-13.329a140 140 0 0 0-.068-3.726c-1.258.721-2.423 1.204-3.809 1.651.077.238.09 1.74.101 2.085zm16.721-.12 2.967-.012q-.038-1.841-.105-3.679l-2.796.019c.086.315.086.412-.076.7l-.077.13c.09.642.079 2.133.087 2.842m7.174-13.143a78 78 0 0 0 2.864-.048c-.089-1.157-.097-2.586-.136-3.771-.885.022-2.126-.004-3.017.1-.074.01-.153.228-.202.325.204.377.383.75.511 1.125.128.376.204.757.202 1.151-.002.359-.07.728-.22 1.116zm-9.727 4.588c.472-.08 1.144-.05 1.67-.107l-.085-3.656q-1.542.021-3.085.062c.009.28.062 1.018-.055 1.223.315.38.585.948.851 1.381.221.36.497.74.704 1.097"/><path fill="#299ad9" d="M22.02 41.242c.636-.125.853-.251 1.397-.59l.635-.612c.988-.994 1.064-2.336.54-3.559a4 4 0 0 0-.113-.243l-.402-.592c-.42-.516-.794-.802-1.268-1.01a5 5 0 0 0-.21-.085 7 7 0 0 0-.642-.2l-.53-.082c-.921-.03-2.029.542-2.65 1.25a4 4 0 0 0-.117.142l.648.323q.133-.136.27-.251a3.2 3.2 0 0 1 .833-.516c1.87-.771 3.771.843 3.781 2.621.005.711-.294 1.447-1.018 2.07-.685.586-1.608.873-2.497.613-.111.21-.227.437-.349.64.545.164.658.18 1.246.186l.445-.109z"/><path fill="#83dcf9" d="M51.568 31.78c.258-.126.784-.085 1.093-.085a250 250 0 0 0-.078-3.724q-1.728.047-3.456.05c.014.45.025.841.01 1.288 1.05.675 1.706 1.458 2.433 2.47zM33.937 14.506c.988-.023 2.013-.058 2.999-.06-.005-1.04-.077-2.012-.108-3.041-.54.01-2.505.045-2.96-.027.065.72.086 2.373.07 3.128M21.428 34.27l-.033-1.752-3.808.014c.012.817.056 1.873.01 2.67q.529.24 1.064.46.055-.072.118-.142c.622-.707 1.728-1.28 2.65-1.251zm4.71 20.099c-.015-1.174-.083-2.397-.116-3.578-.847.014-1.695.054-2.544.052.01 1.158.084 2.367.07 3.507zm18.753-40.135q1.529-.011 3.054-.064c.006-.672-.215-2.505-.029-2.976-1.204.097-2.375.064-3.55.132l.342.06c.136.138.165 2.448.183 2.848M22.812 34.637c.474.209.847.495 1.27 1.01.356-.055 1.016-.028 1.404-.024l-.105-3.145-3.374.042c.006.363.114 1.614-.045 1.837.237.064.447.128.641.2q.108.041.21.085zM21.725 48.02a153 153 0 0 0-.045-2.186c-1.246.033-2.557.09-3.794.095.022.71.064 1.495.062 2.198.963-.124 2.474-.093 3.565-.105q.109 0 .212-.002m12.421-18.59c.074.714.057 1.654.062 2.384l3.253-.045c-.014-.879-.053-1.722-.053-2.609-1.056.085-2.023.14-3.073.252l-.191.018zm-4.043.08q-.001 1.164.035 2.33l3.45-.013c-.017-.771-.044-1.58-.046-2.349-1.231.075-2.2.069-3.44.031m28.282 4.45.163-.006.363-.015q.087-.002.173-.006a22 22 0 0 1 .52-.014l.414-.01q.056 0 .111-.003l.48-.012.496-.012.6-.019q.318-.012.645-.029.003-.218 0-.437c-.004-.437-.02-.876-.035-1.313l-.08.148c-.264.072-.936.043-1.256.043.027.47.25 1.435-.278 1.586-.522-.159-.334-1.095-.332-1.592q-1.55.025-3.098.027l.036 1.728q.278-.02.55-.037l.116-.006q.209-.013.414-.021zM41.095 21.552c-1.434-.134-2.675-1.041-3.32-2.31-.139.638.066 2.978.057 3.85l2.935-.055c-.013-.33-.114-1.155.053-1.41.037-.058.237-.058.332-.069zM13.314 32.557l.012 1.373c1.513.315 2.202.528 3.687 1.018l-.062-2.416zm35.282-17.756c.053 1.192.128 2.572.13 3.76.511-.013 1.224-.048 1.72-.025v-3.81q-.926.03-1.85.075m-15.236.352q-.443.005-.888.004c-.235.743-1.378 3.09-1.796 3.797.889-.04 1.823-.044 2.715-.06-.026-1.237-.022-2.501-.03-3.74m-.47 23.266q.007-.26.017-.53h-.167q-.113-.001-.219.004l-.068.002q-.071.001-.136.006l-.066.004-.163.01q-.022 0-.045.003-.043.002-.082.006l-.075.004-.037.002-.132.008-.045.002q-.077.004-.144.004c-.535 0-.673-.196-.712-1.305l-.01-.381-.594-.007q.035 1.866.095 3.73c.855-.004 1.736-.018 2.59-.008a23 23 0 0 1-.002-1.552zm17.554-24.302c-.016-.96.037-2.066.058-3.037-.656.066-1.42.033-2.126.09.152.607.144 2.296.183 2.987.454-.01 1.497-.077 1.885-.04m3.242 19.932h.012l.05-.002h.004l.107-.007h.027l.068-.002q.043 0 .087-.004h.043l.072-.002q.038 0 .074-.002h.786c.61 0 1.227.015 1.658.017h.008l-.047-1.745-3.308.013.04 1.775q.073-.01.16-.017l.161-.012zm-36.741-2.149-.053-1.92a30 30 0 0 1-2.236.485c-.224.04-1.367.21-1.5.252.166.175.133.934.142 1.218l3.65-.035zm24.41-10.314c.035.448.032.99.04 1.446l3.162-.066c-.01-.774-.037-1.986-.114-2.735-.866.998-1.769 1.386-3.089 1.353zm-.211 12.504a97 97 0 0 1-.046-1.724l-2.987.044c.012.32.123 1.597-.048 1.793l-.198.062c1.1-.033 2.079-.169 3.277-.175zm7.404-5.031-.056-1.035q-1.553.033-3.11.041c.034.874.058 1.767.13 2.637.727-.699 1.733-1.707 2.817-1.666q.109.003.219.023m-12.874 5.25 1.883-.046a31 31 0 0 0-.087-1.858c-.874.009-2.276-.051-3.142.077-.087.012-.087.12-.126.243q.15-.016.276-.027c1.28-.103 1.013.301 1.196 1.61m-11.62 5.731 1.585-.008c-.018-1.244-.105-2.545-.134-3.807l-1.024.012q.06.12.113.244c.524 1.223.447 2.565-.54 3.559m7.171 14.104v-.095l-.008-.21v-.015c-.033-.749-.097-1.691-.019-2.35q0-.014.002-.023.013-.113.033-.213v-.002a.2.2 0 0 1 .033-.074l.015-.019a.3.3 0 0 1 .053-.05q.005-.002.01-.008a.5.5 0 0 1 .09-.043q.015-.007.03-.01a1 1 0 0 1 .087-.025l.026-.006q.059-.013.124-.023.022-.001.043-.006l.104-.012q.02 0 .045-.004.067-.007.138-.01c.027 0 .054-.005.083-.005q.032 0 .063-.004.188-.008.37-.023l.033-.002q.15-.011.282-.039.013-.001.025-.006.06-.014.115-.033l.015-.006a.6.6 0 0 0 .099-.05.3.3 0 0 0 .068-.057l.01-.013a.2.2 0 0 0 .041-.078c-.596-.068-2.064-.004-2.717.012.012.654.016 3.231.097 3.67.183.098.404.073.616.073v-.035q.001-.097-.004-.2zm-.478-18.977-.007-.072-.028-.346q0-.03-.005-.062 0-.019-.002-.035l-.008-.145v-.381q0-.049.002-.095v-.03q.002-.05.006-.096v-.041q.007-.05.01-.099.001-.013.005-.027l.01-.062.002-.014.002-.012c0-.009.005-.017.005-.025l.02-.083.006-.022.009-.031v-.006l.014-.04.008-.02.03-.068.007-.019q.004-.01.009-.016a.3.3 0 0 1 .026-.046l.01-.016q.019-.03.04-.056l.012-.016q.023-.025.043-.05l.015-.014q.018-.02.04-.035.005-.006.012-.01l.014-.013a1 1 0 0 1 .074-.051l.035-.021h.004l.025-.012q.01-.007.02-.01l.069-.032.023-.008.014-.006q.005 0 .01-.004c.017-.007.033-.01.05-.017l.024-.008.08-.023q.01-.001.021-.006.01 0 .019-.004l.076-.017.031-.006q.041-.009.085-.014.009 0 .02-.004l.023-.002.101-.013q.018 0 .035-.004l.074-.008h.036q.017 0 .039-.004.056-.005.117-.008l.04-.002.13-.009h.034l.145-.006h.055q.07 0 .14-.004h.009q.423-.01.96-.019c-.049-.107-.065-.208-.148-.218-.959-.116-2.44-.05-3.381-.04.006.475-.007 2.844.125 3.116.163.058.209.046.38.046.086.057.09.05.152.127l-.024-.237-.036-.356zm-5.535-7.623c-.06-.534-.079-1.297-.108-1.855a16.6 16.6 0 0 1-2.717 1.835c.86.064 1.946.028 2.825.02m17.257 6.38c.247-.216 1.109-1.227 1.416-1.546-.715-.03-1.439-.017-2.155-.01l.04 1.674c.214-.025.482-.08.699-.118m-31.428-1.381c-.046-.149-.054-.213-.079-.367-.018.25-.022.53-.02.81v.015c0 .286.01.573.012.833.305-.03.592-.038.88-.035a10 10 0 0 1 .881.05l-.033-1.298c-.398.01-1.284.05-1.641-.008m20.277-8.307.177-.344q-.76.018-1.521.025c.008.497.03 2.24.115 2.62.48-.808.825-1.509 1.229-2.3m-1.991-.927c-.009-.636.016-1.6-.083-2.197-.53.717-1.144 1.602-1.755 2.227.419.035 1.378-.017 1.835-.03zm-16.664 8.628c-.004-.416-.012-.73-.053-1.144a14 14 0 0 1-1.69.163q.001.064.005.142c.004.1.008.21.01.322l.002.173c0 .132-.002.258-.014.357.536-.025 1.19-.01 1.736-.013zm24.584-5.755c.041-.287-.012-2.05-.016-2.441l-1.392.04q.087.187.173.354c.408.777.848 1.262 1.235 2.047m-3.906-11.671c-.017-.472-.005-1.132-.157-1.56l-.143.517q-.017.067-.039.138l-.016.062a9 9 0 0 1-.287.899l.642-.054zm19.343 18.919c.03-.299.015-.808.015-1.126l-.732.008q.352.563.717 1.116zM26.436 45.096l3.19-.064.103-.06c.05-.39.018-1.115.012-1.534q-.018-1.407-.052-2.818c-1.082.008-2.245-.005-3.321.03-.157.213.051 3.85.07 4.444zm.017.64c.074 1.476.11 2.93.165 4.404l.726-.006q1.264-.068 2.532-.103c-.023-1.441-.085-2.98-.087-4.408l-.664.028q-1.335.05-2.672.087zm-.218-5.706q1.717 0 3.435-.035c.015-1.237-.051-2.51-.056-3.76h-3.499c.087 1.094.122 2.684.12 3.795m30.385-8.364c.026-1.24-.05-2.475-.055-3.712-1.107.002-2.235-.006-3.34.013.014 1.229.07 2.503.07 3.72zm3.8.002c.023-1.216-.052-2.429-.053-3.643-1.075.002-2.17-.007-3.242.012.014 1.206.068 2.458.068 3.652l3.227-.019zm-38.49-3.485c.021 1.22.06 2.479.065 3.695 1.093-.004 2.255.01 3.342-.018l-.115-3.693c-1.085.006-2.213.03-3.293.016zm20.225-.738 2.581-.015c-.04-1.284-.098-2.596-.125-3.876l-.685.029c-.796.028-1.715.084-2.503.08q.073 1.887.12 3.773l.61.007zm4.635-.02h1.687c-.04-1.268-.066-2.677-.181-3.934-.419.006-.972 0-1.378.029q-.86.03-1.724.033c.1 1.297.134 2.58.18 3.878l1.418-.008zM26.638 50.744c.024 1.2.134 2.44.125 3.623l1.796.006h1.403q-.06-1.853-.056-3.716l-1.746.052-1.522.033zm10.236-35.681-.251.008q-1.336.037-2.675.056c.008.573.03 3.369.105 3.689.153.057.143.053.308.045.89-.01 1.808-.01 2.697-.035-.008-.726-.01-3.023-.105-3.693l-.079-.074zm2.692 8.642-1.693.026c.015 1.087.103 2.728.052 3.751l1.136-.008 1.86-.015c-.009-1.264-.128-2.548-.118-3.791-.402.012-.837.016-1.235.037zm-9.992 11.92-.056-3.159-3.53.01c.027 1.028.116 2.147.122 3.145z"/><path fill="#cef3fd" d="m31.539 32.856.067-.015c-.028.007-.053.01-.078.017q.008 0 .01-.002m1.542 15.133v-.124l-.002-.26v-.022c-.004-.456-.004-.91-.004-1.322 0 .536 0 1.144.009 1.73z"/><path fill="#cef3fd" d="M11.386 56.54c.39.858.633 1.126 1.344 1.388-.324-.12-.55-.241-.736-.416-.26-.246-.445-.596-.71-1.203-.106-.482-.133-.967-.17-1.46.492.08 1.709.05 2.251.046.023 1.06.077 2.214.077 3.262v.002l.49.045.116-.093c.058-.49-.046-2.657-.076-3.206.725.002 1.59.023 2.3-.019-.115-.239-.12-.3-.174-.567-.673-.028-1.448-.02-2.128-.028 0-1.007-.085-2.139-.12-3.163.42-.01 1.885.037 2.16-.17.021-.22.013-.228-.026-.439-.241-.152-1.75-.025-2.134-.01-.052-1.153-.054-2.279-.124-3.44 1.023-.28 1.73-.694 2.64-1.233.29.136.57.1.9.101l.007.258c.012.627.012 1.404.053 1.953l.623-.023c0-.703-.041-1.489-.062-2.198 1.238-.006 2.551-.064 3.794-.095q.03 1.093.046 2.186l.625.008c1.04.072 1.004.53 1.061 1.479-.057-.95-.02-1.407-1.061-1.479a80 80 0 0 0-.054-2.216q1.784-.022 3.567-.073c.031 1.456.114 2.978.124 4.421-.464.017-2.248-.002-2.477.13l-.057.155.027.398c.85 0 1.695-.037 2.544-.052.035 1.182.101 2.405.116 3.578l-2.59-.019c-.04.165-.087.409-.157.557.332.114 2.328.076 2.775.074.017.619-.008 3.015.252 3.38.21.014.21.016.429-.025.117-.297-.04-2.765-.041-3.328l3.165.008.086 3.475h.689-.1q-.007-1.733-.05-3.464c.224.01.375.037.585-.042l.072-.177-.02-.42c-.215 0-.435.024-.617-.073-.078-.439-.082-3.019-.097-3.67.654-.017 2.12-.08 2.718-.013-.03-.21-.041-.426-.056-.639-.328-.068-2.194.017-2.67.035 0-1.398-.078-2.985-.107-4.4.54-.012 2.103-.006 2.534-.093.085-.136.056-.245.064-.433l-.078-.08c-.52-.128-1.94-.037-2.53-.017 0-1.441-.052-2.932-.07-4.381a60 60 0 0 1 2.577-.05v-.594c-.856-.01-1.734.004-2.592.008a250 250 0 0 1-.095-3.73l.594.007v-.495c-.062-.079-.066-.069-.153-.128-.17 0-.216.012-.379-.046-.134-.27-.12-2.641-.126-3.115.943-.01 2.423-.077 3.382.039.082.01.099.111.148.218-.358.007-.678.01-.96.019.063 0 .127-.004.193-.004q.117 0 .24-.004l.525-.008.524-.005c.04-.123.037-.23.126-.243.866-.128 2.27-.068 3.142-.076.054.637.07 1.218.087 1.858h.31l.197-.06c.17-.196.058-1.474.048-1.794l2.987-.043q.015.862.046 1.723c.198-.008.425-.033.625-.05.214-.024.482-.08.699-.117.247-.216 1.109-1.227 1.416-1.546l.487-.542c-.256-.157-2.209-.09-2.68-.085-.073-1.202-.087-2.468-.118-3.679l3.204-.012c.017.619.025 2.714.21 3.17l.528-.529c-.072-.87-.097-1.762-.13-2.637q1.557-.01 3.11-.041l.056 1.035.587.25c.017-.448.004-.84-.01-1.29q1.728-.002 3.456-.049.055 1.863.078 3.724c-.31 0-.835-.043-1.093.085.118.16.275.387.398.536q.353.561.718 1.118l.381.67.301-.02-.039-1.776 3.308-.013.047 1.745.62-.017q.273-.02.539-.035h.012q-.272.015-.55.037l-.035-1.728q1.55-.003 3.097-.026c0 .499-.19 1.435.332 1.591.528-.15.307-1.115.278-1.585.318 0 .992.029 1.256-.044l.08-.148.08-.443-1.418.004c0-1.258-.053-2.565-.078-3.831v-.05c-1.328-.012-2.755-.175-4.102-.22-1.086-.038-2.27-.034-3.346-.14-.289-.03-.59-.275-.827-.45a1.4 1.4 0 0 1-.089.348c-.28.167-2.942.112-3.445.112-.015-1.31-.091-2.627-.149-3.935.468-.029 1.31.145 1.501-.313-.103-.534-1.076-.334-1.538-.324-.016-1.13-.05-2.573-.146-3.687q.841.003 1.682-.024v-.599c-.495-.02-1.208.015-1.72.025 0-1.19-.076-2.567-.13-3.759a185 185 0 0 1 1.85-.076v-.604c-.387-.037-1.433.029-1.884.039-.04-.69-.031-2.38-.184-2.986l-.462.023c-.185.47.035 2.301.03 2.975q-1.528.052-3.055.064c-.018-.4-.047-2.71-.183-2.847l-.343-.06-.22.02c.025.745.138 2.378.086 3.048l.53.829c.05-.097.13-.316.203-.324.89-.107 2.132-.078 3.016-.1.04 1.185.048 2.614.136 3.77q-1.432.054-2.864.048c-.084.202-.18.452-.272.643a71 71 0 0 0 3.17-.084c.049 1.159.063 2.538.144 3.676-.968.03-2.151.025-3.096.1-.018-.522-.026-3.403-.255-3.605-.165.307-.312.588-.497.883.076.748.103 1.96.113 2.734l-3.16.066c-.009-.456-.007-.998-.042-1.446l-.206-.027c-.095.01-.295.01-.332.069-.165.257-.066 1.08-.054 1.41l-2.934.056c.008-.873-.196-3.213-.058-3.85-.765-1.755-.32-3.155.58-4.718-.219-.13-.522-.095-.784-.095a74 74 0 0 0-.111-3.033l-.63.008c.034 1.03.104 2.002.108 3.042-.986 0-2.01.037-2.998.06.016-.753-.006-2.407-.07-3.129-.122.019-.237.009-.283.083-.229.381-.295 1.053-.4 1.489.153.428.14 1.088.157 1.56l-.641.054-.231.592q.444.001.889-.004c.008 1.24.004 2.503.03 3.74-.892.017-1.826.02-2.715.06l-.332.54c.396.182 2.503.017 3.07.017 0 .218-.037.965.066 1.099l.493.121c.117-.204.066-.942.056-1.222q1.541-.04 3.084-.062l.085 3.656c-.528.058-1.2.027-1.67.107l.313.575 1.392-.04c.006.39.06 2.156.016 2.44.246.638.59 1.293.895 1.908l2.796-.019q.068 1.84.106 3.679l-2.968.012c-.008-.709.005-2.2-.086-2.841-.219.1-.353.171-.582.237 0 .887.04 1.73.054 2.608l-3.254.046c-.006-.73.012-1.67-.062-2.384l.192-.018-.192.018-.604.046c0 .769.029 1.577.045 2.348l-3.45.012a80 80 0 0 1-.034-2.33c1.237.036 2.206.044 3.439-.03-1.231.074-2.2.068-3.44.03l-.509-.1c-.194.138-.097 2.076-.09 2.428-1.163.01-2.364.033-3.524.01q-.075-1.833-.118-3.67 1.74 0 3.479-.04.364-.803.748-1.599c-.082-.381-.105-2.124-.115-2.62a77 77 0 0 0 1.521-.026l.365-.579c-.346-.11-1.468-.027-1.903-.004-.006-.577.058-2.538-.194-2.91l-.515.716c.097.6.074 1.561.082 2.198-.457.012-1.416.064-1.835.029-.159.163-.332.332-.478.505.214.206.89.132 1.227.126q.555-.012 1.109-.037.03 1.805.107 3.61h-3.64c-.018-.552-.036-1.917-.119-2.387l-.596.532c.03.558.048 1.321.107 1.855-.88.007-1.965.044-2.825-.02l-1.097.633q.06 1.863.069 3.726l-3.776.01c-.01-.344-.025-1.847-.101-2.084l-.59.173.054 1.92-3.65.035c-.006-.285.025-1.044-.142-1.22l-.544.077c.04.415.049.728.053 1.145-.546.002-1.198-.013-1.736.012l.037.225c-.019.25-.023.53-.02.81 0-.28 0-.56.02-.81.025.154.033.218.078.367.36.058 1.244.018 1.642.008l.033 1.297.608.083c1.514.315 2.202.527 3.687 1.02l.585.256c.046-.798.003-1.854-.01-2.67l3.809-.015.033 1.753c-.922-.03-2.03.542-2.65 1.252.623-.708 1.728-1.281 2.65-1.25l.53.082c.16-.222.051-1.474.045-1.837l3.373-.041.106 3.144c-.388-.004-1.046-.03-1.405.025-.42-.515-.794-.802-1.27-1.01.474.208.848.495 1.268 1.01l.402.592 1.025-.012c.03 1.261.116 2.56.134 3.806l-1.585.008-.636.613c.53.07 1.687.018 2.262.002q.051 2.225.135 4.452c-1.151.037-2.407.082-3.56.078-.004-.544.025-3.582-.127-3.903l-.108-.042-.445.11c.027 1.274.08 2.59.085 3.86-.479.022-3.491.152-3.75.06-.108-.23-.08-.349-.156-.557-.497.503-.798.73-1.392 1.124-.91.538-1.616.952-2.64 1.233l-.59.152q.025 1.666.075 3.33c-.72.01-1.503.005-2.216.06.008.182.014.454.035.627.738-.037 1.493-.08 2.229-.105.027 1.043.062 2.101.074 3.142-.478-.014-1.858-.117-2.19.102l-.072.183.041.289c.04.492.064.975.171 1.46q.053.122.104.233zm32.5-24.162c-.308.32-1.17 1.33-1.418 1.546-.216.037-.486.09-.699.118l-.039-1.675c.716-.004 1.44-.018 2.155.01m16.48-4.355c.003 1.214.077 2.427.054 3.643l-3.227.019c0-1.194-.053-2.446-.068-3.652 1.075-.019 2.167-.01 3.242-.012zm-3.797-.068c.002 1.237.078 2.472.055 3.711l-3.326.02c0-1.216-.053-2.49-.07-3.719 1.107-.019 2.233-.01 3.34-.012m-3.883 5.476q-.365-.553-.718-1.115l.732-.009c0 .316.015.827-.014 1.126zm-5.77-9.912c.407-.03.96-.022 1.378-.029.115 1.256.144 2.665.181 3.93h-1.687l-1.418.01c-.048-1.298-.08-2.583-.18-3.878q.863 0 1.724-.033zm-2.99.064.685-.029c.027 1.283.085 2.592.126 3.877l-2.582.014-.61-.006a256 256 0 0 0-.12-3.773c.788.004 1.708-.052 2.503-.08zm-9.563-4.718c-.163.007-.155.013-.307-.045-.079-.322-.097-3.116-.106-3.689q1.336-.018 2.675-.056l.251-.008.079.074c.095.668.097 2.967.105 3.693-.889.025-1.804.025-2.697.035zm4.7 8.61-1.137.007c.05-1.022-.037-2.664-.052-3.75l1.693-.027c.4-.023.833-.027 1.235-.037-.01 1.245.108 2.53.118 3.792l-1.86.014zm-9.1 26.902H28.56l-1.796-.01c.009-1.186-.1-2.425-.125-3.623l1.521-.033 1.747-.052q0 1.86.055 3.718m-.085-4.346q-1.266.034-2.532.103l-.726.006c-.056-1.477-.09-2.928-.165-4.405q1.336-.035 2.672-.086l.664-.03c.002 1.43.062 2.968.087 4.41zm-.138-6.59c.006.416.037 1.142-.013 1.533l-.103.06-3.19.064c-.018-.594-.227-4.231-.07-4.443 1.077-.035 2.24-.023 3.322-.031q.034 1.41.052 2.818zm-.126-7.205c.004 1.247.072 2.522.056 3.759q-1.718.034-3.436.035c0-1.112-.033-2.702-.12-3.796h3.5zm-.095-3.768.056 3.16-3.464-.005c-.007-.998-.095-2.117-.122-3.144zm-16.193 1.46-.012-1.373 3.637-.025.062 2.417c-1.485-.493-2.173-.705-3.687-1.019m8.67-2.047c-.003-1.217-.042-2.477-.063-3.695 1.08.014 2.208-.009 3.293-.017l.116 3.693c-1.087.031-2.25.015-3.343.019z"/><path fill="#cef3fd" d="M31.31 32.924s.006 0 .008-.002q.003 0 .007-.003-.008.002-.015.007zm.044-.014.031-.011-.05.017zm-.632.832.006-.04q-.001-.013.004-.025l-.01.063zm2.346 11.916q.001-.123-.005-.232 0 .108.005.232m-1.432-12.822q.038-.005.08-.015h.005zm.262-.039q.028-.002.055-.007l.02-.002zm-1.112.67.006-.022-.015.041q.002-.008.007-.017zm.209-.345.032-.028q.007-.005.009-.009zm-.057.06q.02-.025.043-.048l-.044.05zm.25-.2.01-.007-.025.013.013-.007zm1.938 16.49-.01-.163q0-.04-.004-.08c0-.036-.005-.073-.007-.11l.019.353zM30.853 33.31l.02-.035q-.015.022-.028.047.002-.007.008-.013m-.087.211s.004-.01.004-.014l.004-.017q-.006.015-.008.032m-.031.137v-.007q0 .007-.003.013v-.006zm.4-.647s.015-.008.021-.013q.008-.004.015-.01l-.036.021zm-.371 25.475c.278 0 .645.009 1.05.015.923.016 2.024.037 2.628 0-.868.051-2.763-.015-3.678-.017zm.354-25.466-.056.04zm-.358.523-.02.083zm1.75-.786q-.074.002-.145.006zm.09-.004q.052 0 .107-.005-.072.001-.14.005zm-.436.02-.12.009zm.92 15.489v-.223q0 .112.004.221zM59.096 33.93q.162-.004.323-.01h.019q-.18.007-.359.01zm-26.861-1.16q.026 0 .052-.003.023 0 .044-.002l-.132.008h.034zm27.381 1.146.355-.008h.045l-.414.01h.014zM33.107 49.083v-.019q0-.046-.004-.093 0-.038-.002-.074l.006.188zM31.49 32.868l-.08.023zm-.566.332-.04.056q.018-.03.04-.056m2.165 15.34v-.205q0 .102.004.205zm.006.277V48.8l-.002-.097q0-.04-.002-.079.002.097.006.193zm27.031-14.914q.235-.007.472-.01h.008l-.48.012zm-2.111.075.355-.019h.012l-.414.021q.023 0 .045-.002zm-27.319.024.004-.08v-.017l-.007.096zm-.002.108v-.081l-.003.096v-.015zm27.876-.16q.163-.005.325-.012h.015l-.363.015h.023z"/><path fill="#cef3fd" d="M70.666 44.044c-.522-.026-1.47.019-2.023.031-.078-1.272-.089-2.647-.122-3.93l2.05-.02-.01-.6c-.57-.031-1.462.008-2.056.018a70 70 0 0 0-.11-3.089c.51-.01 1.772.167 2.085-.212 0-.015.002-.023.004-.033q-.001-.08-.006-.161c-.012-.02-.033-.047-.064-.099-.406-.23-1.476-.134-2.025-.13-.066-1.136-.066-2.42-.107-3.58.497-.008 1.708.151 2.02-.224l.007-.062-.004-.126-.07-.11c-.4-.23-1.409-.125-1.95-.117-.06-1.328-.129-2.62-.122-3.95l-.65.004c.029.579.217 3.6.062 3.938-.13.02-.246.033-.375.047l-.07.106.03.375c.343.293.508-.08.504.497-.002.46.144 2.814.072 3.14-.21.083-.318.068-.543.068-.381.37-.777.361-1.309.394l-.299.083-.012.053c.408.122 1.75.087 2.239.085.02 1.025.064 2.095.064 3.113-.518-.002-1.922-.037-2.365.033-.078.198-.045.314-.037.543.253.152 1.969.016 2.429.016.039 1.274.057 2.68.13 3.943-.67.045-1.93.01-2.466.099-.079.17-.068.404-.075.6a44 44 0 0 1 2.567-.066c.023 1.38.048 2.837.11 4.215q-1.252 0-2.501.072c.004.078.002.134 0 .177-.003.132-.003.146.12.268q.162.049.319.054c.424.024.847-.116 1.484.01q.08.016.163.037c.206.002.293-.037.402.068.033.613.248 4.53.145 4.908-.18.111-.353.072-.571.06-.803.33-4.034.418-4.706-.007-.493-.039-1.138-.026-1.643-.03 0-.248.037-.854-.085-1.124a.4.4 0 0 0-.064-.097l-.511.01.02 1.208-2.992-.012c.01-.476.085-.71-.23-1.045l-.048-.015-.113.002c-.347.262-.26.652-.246 1.056l-3.138-.01c.004-.318.068-.809-.252-.98q-.084 0-.169.004c-.307.237-.222.596-.198.963l-3.146-.03c.008-.333.072-.737-.322-.842h-.062c-.355.198-.27.472-.254.84-1.053-.007-2.148 0-3.2-.03-.004-.274.03-.629-.103-.847a3 3 0 0 0-.27-.089l-.247.013q-.01.457-.005.915a298 298 0 0 0-3.317-.018l-.025-.774-.425-.035c-.311.145-.19.483-.163.806l-3.03-.006-.013-.942c-.279.002-.373-.041-.59.087-.107.218-.051.593-.037.853-.633-.004-1.367.006-1.992-.02l-.054-.92v.047l.054.873.006.62v.006l2.031.009c.015.437.037 3.167.171 3.371-1.394-.023-2.408.054-3.74.078-.004-.655-.008-1.348-.029-2.02a34 34 0 0 0-.027-.664l-.495-.035c-.1.088-.132.078-.12.278.042.689-.022 1.687.067 2.336.099.103.394.08.602.103 1.332-.024 2.347-.1 3.74-.078h.435q1.566-.018 3.13 0l.615.01q1.675.018 3.349-.004l.616-.006c1.019.006 2.172-.09 3.227-.111-1.053.018-2.206.117-3.227.111.035-.883-.072-2.392-.107-3.32l3.215.006c-.002 1.021.105 2.149.12 3.203l.632-.004c-.074-1.023-.092-2.147-.128-3.18h3.133c.02.973.02 2.126.109 3.08h.612a73 73 0 0 1-.09-3.068l3.115.015c.007.447-.029 2.775.207 2.953.177.01.29.037.451-.038.068-.55-.01-2.268-.02-2.911l3.002.043c.043.891.033 1.914.043 2.815-1.913.23-4.714.171-6.708.19 1.996-.017 4.797.043 6.708-.19.202-.01.44-.037.644-.058.969-.076 2.311-.187 3.262-.326l.49-.103c1.203-.187 2.112-.6 3.21-1.097.595-.305 1.168-1.233 1.535-1.796-.266-.027-.705-.016-.986-.018-.016-1.666-.094-3.397-.154-5.065.42-.008 1.542.01 1.87-.146.041-.16.04-.373-.068-.503-.39-.062-1.373-.004-1.83.008-.016-1.39-.065-2.806-.09-4.2l1.978-.033c.04 1.4.107 3.443.086 5.274.02-1.829-.043-3.874-.086-5.274l.004-.62zM38.789 58.413c.128-.126.122-.161.116-.409-.023-.983-.083-1.977-.112-2.96q1.515.029 3.027.024c.027.988.019 2.404.1 3.345-1.044-.013-2.087-.01-3.13 0m3.745.008c-.02-1.112-.07-2.242-.078-3.349l3.33.008c.024 1.08.035 2.26.097 3.335q-1.675.023-3.35.004zm18.904-.474q-.04-1.374-.055-2.747l3.138.006c.004.5-.014 1.926.058 2.342l.122.07c-.953.139-2.293.252-3.263.326zm3.755-.431c0-.751-.039-1.545-.066-2.3l3.221-.004c0 .448.015.76.056 1.204-1.1.497-2.009.91-3.21 1.098zm-34.484-22.8v-.027q.001.03.005.063v-.036zm-.01-.209q.002.072.009.145zm.018-.74-.011.1zm2.413 15.772q0-.024-.002-.046v-.021c0 .02.002.046.004.067zm-.031-.644-.001-.08zm-.009-.27-.002-.085zm-2.255-15.288.009-.018zm-.107.343.003-.016zm.193-.482.013-.015-.013.017zm.401-.278.012-.005q-.006.001-.012.005m.406-.102h.013q-.01.001-.022.005h.009zm-.696.265.013-.009zm.476-.22h.01q.005 0 .01-.003l-.02.005zm33.918 8.204"/><path fill="#cef3fd" d="m65.402 39.999-.016-.627q.007.315.016.627m.031 1.384-.002-.174zM35.272 55.845h-.134l.134.002z"/><path fill="#299ad9" d="M70.622 52.632a6 6 0 0 0-.004.227c-.01.656-.045 2.112-.16 2.388l-.01.008c-.146 1.177-.233 2.619-1.03 3.551a2 2 0 0 1-.169.18c-2.074.614-4.12 1.179-6.213 1.639q-1.046.23-2.109.422l-.279.058c-.649.147-1.313.382-1.967.48a43 43 0 0 1-2.303.122 65 65 0 0 0-.744.027 254 254 0 0 1-9.547.115c-1.603.003-3.213.116-4.825.163q-.808.028-1.615.019a718 718 0 0 1-12.285-.241c-2.757-.079-5.487.12-8.248-.064-1.91-.128-3.85.254-5.586-.825-.943-.555-1.516-1.342-1.854-2.338a7 7 0 0 1-.13-.44c.399.185.687.372 1.05.516-.36-.144-.647-.33-1.044-.513-.132-.423-.2-1.102-.245-1.61l-.019-.207q.053.123.103.233c.39.858.633 1.126 1.345 1.388l.008.004a5 5 0 0 0 .206.07c.146.05.31.099.495.155l.49.045a33 33 0 0 0 2.518.194q.367.014.693.018h.398l.62.062c1.217.002 2.576-.025 3.783.01h.624q.482-.004.963-.014l.353-.008.78-.019.643-.014.418-.008q.416-.009.834-.013.43-.002.86 0 .09.003.179.002.296.003.592.013l.187.006q.378.012.757.035c.297.018.625.014.924.018h.707c.278 0 .647.007 1.05.015.923.014 2.024.037 2.628 0h.013l.16-.012c1.333-.025 2.347-.104 3.741-.079h.435q1.566-.018 3.13 0l.615.01q1.672.02 3.349-.004l.616-.006c1.02.006 2.174-.09 3.227-.111l.633-.004c.745-.103 2.308-.1 3.114-.103h.612c1.996-.019 4.795.04 6.708-.19.202-.01.437-.04.644-.058.969-.074 2.309-.187 3.261-.326l.491-.103c1.202-.187 2.11-.6 3.21-1.097l.007.005c.594-.304 1.167-1.234 1.534-1.797.301-.709.245-1.25.678-1.994"/><path fill="#83dcf9" d="M70.3 31.825q.001.063.005.127c.01-.083.017-.094-.004-.127m.173 4.221q.002.081.006.161c.012-.114.023-.118-.006-.161m-.244-4.331.071.11c-.058-1.421-.105-2.84-.113-4.254-.656.039-1.368.053-2.03.078-.006 1.33.06 2.623.122 3.951.543-.008 1.55-.113 1.95.117zm-1.952.522c.042 1.157.042 2.444.107 3.58.549-.004 1.617-.103 2.025.13.033.051.052.078.064.099-.05-1.365-.113-2.73-.169-4.093l-.006.061c-.313.376-1.522.217-2.02.225z"/><path fill="#83dcf9" d="M68.395 36.454q.087 1.544.109 3.089c.594-.01 1.487-.05 2.056-.019a112 112 0 0 0-.079-3.318q0 .015-.004.033c-.311.38-1.575.203-2.084.213zM60.751 55.19l-3.002-.043c.01.643.09 2.36.02 2.911-.16.072-.274.047-.451.037-.235-.18-.2-2.505-.206-2.953l-3.116-.014q.011 1.534.09 3.064c1.997-.016 4.797.043 6.709-.19-.01-.9 0-1.924-.044-2.814zm4.763-18.938a.6.6 0 0 0-.116.072 28 28 0 0 0-.035 1.332c0 .501.007 1.017.019 1.532q0 .093.004.186a61 61 0 0 0 .025.921l.018.774.002.142q0 .087.002.173l.004.307v.13c.005.59-.03 2.561.046 2.972.008-.196-.004-.43.074-.6.536-.087 1.798-.052 2.466-.1-.072-1.261-.09-2.67-.13-3.942-.46 0-2.175.136-2.429-.016-.006-.23-.04-.343.037-.543.444-.07 1.848-.037 2.366-.033 0-1.018-.046-2.088-.064-3.113-.49.002-1.831.037-2.24-.085l.013-.053.299-.083c-.21.01-.27-.014-.365.031zm5.146 8.414-1.977.033c.024 1.393.074 2.812.09 4.2.456-.01 1.44-.07 1.83-.008.107.13.11.342.067.503-.328.156-1.451.138-1.87.146.06 1.668.136 3.398.155 5.064.28 0 .72-.008.985.019.302-.71.246-1.25.679-1.994q.042-.388.07-.847a31 31 0 0 0 .054-1.479l.006-.363c.02-1.829-.044-3.874-.087-5.274zm-24.399 8.946c.132.22.1.573.103.847 1.052.029 2.145.023 3.2.029-.018-.367-.1-.641.254-.84-1.274-.018-2.544-.109-3.825-.125.103.029.167.051.27.089zm7.453-.056c.32.173.258.662.251.98l3.139.01c-.015-.404-.101-.794.245-1.056-.851.02-1.703.033-2.555.048q-.54.008-1.08.02zm-3.835.095c.394.105.33.51.322.842l3.146.03c-.025-.367-.11-.727.198-.963q-1.15.025-2.299.073-.684.029-1.367.018m7.632-.151c.316.337.241.57.231 1.046l2.992.012-.02-1.208a78 78 0 0 1-3.25.138l.047.015zm-22.242 2.345-.132-.002-.058-.004-.056-.002h-.022l-.122-.008h-.02l-.3-.019q.019.327.027.664c.02.673.023 1.365.029 2.021 1.33-.023 2.347-.1 3.74-.078-.133-.204-.156-2.934-.17-3.372l-2.032-.008c-.078.683-.414.813-.884.813zm7.186-.773c.008 1.105.058 2.235.078 3.348q1.675.018 3.35-.004c-.063-1.074-.073-2.253-.098-3.334l-3.33-.008z"/><path fill="#83dcf9" d="M65.66 49.01a44 44 0 0 1 2.502-.073c-.064-1.377-.087-2.835-.11-4.215a44 44 0 0 0-2.567.066c0 1.07.106 2.16.153 3.2.016.347.027.69.023 1.021M46.395 55.09c.035.926.14 2.436.107 3.32 1.018.006 2.171-.09 3.227-.111-.015-1.054-.122-2.182-.12-3.203zm-7.601-.046c.029.984.089 1.977.112 2.961.006.245.012.282-.116.408a132 132 0 0 1 3.13 0c-.08-.938-.072-2.357-.099-3.344q-1.513.006-3.027-.025m14.572.072h-3.133c.036 1.03.054 2.154.128 3.177.745-.1 2.308-.099 3.114-.099-.089-.954-.087-2.105-.11-3.078m11.156.09-3.138-.006q.016 1.374.055 2.747c.97-.077 2.312-.188 3.263-.326l-.122-.07c-.072-.417-.054-1.842-.058-2.343zm4.121-11.131c.553-.01 1.501-.057 2.023-.03v-.062a201 201 0 0 1-.093-3.858l-2.05.02c.033 1.28.044 2.658.122 3.93zm-3.515 11.144c.027.755.066 1.548.066 2.299 1.202-.188 2.111-.6 3.21-1.097a13 13 0 0 1-.055-1.204l-3.221.004zm-29.035-1.735.053.92c.625.027 1.36.014 1.992.02-.014-.26-.07-.634.038-.853.216-.128.31-.084.59-.087l.012.943 3.03.006c-.026-.324-.148-.662.164-.806-1.885-.332-4.007-.136-5.881-.143zm6.306.176.024.773q1.659 0 3.318.018-.003-.458.004-.915c-.948 0-2.047.142-2.965.136q-.199 0-.382-.013m25.41-.275c.004.292.02.548.054.742.025.144-.064.346-.14.47.218.01.391.05.57-.06.104-.377-.108-4.295-.144-4.907-.109-.105-.195-.064-.401-.068.212.67.037 2.577.06 3.823zM67.19 34.48c.005.291.036 1.108 0 1.347.224 0 .331.012.542-.068.072-.326-.075-2.68-.073-3.14.002-.578-.163-.205-.503-.497q.009 1.176.033 2.352v.009z"/><path fill="#299ad9" d="M64.734 46.921c-.59-.227-1.361-.631-1.945-.918.584.287 1.357.691 1.945.918m-2.791 2.135c.112-.348.246-.643.38-.948-.134.307-.268.602-.38.948m-.163-5.173c-.628-.604-1.259-.718-2.108-.773.85.056 1.478.169 2.107.773m-21.287 2.013c-.281.04-.553.06-.82.127.269-.068.539-.086.82-.128m14.374-8.109c.722-.043 1.08-.08 1.786.163-.705-.243-1.062-.206-1.784-.163zm-13.972 7.18-.017.067z"/><path fill="#299ad9" d="M66.988 31.546c-.458-.365-1.794-.072-2.378-.074h-.618q-.111 0-.215-.002l-.28-.004h-.18q-.05-.001-.099.004-.04 0-.08.004l-.101.008-.078.009-.108.016-.074.014q-.06.013-.121.031c-.023.007-.044.01-.066.017a2 2 0 0 0-.196.066l-.08.443c.014.437.03.874.034 1.314v.437l-.645.029q-.303.012-.6.018l-.495.013H60.6q-.236.007-.473.01-.056 0-.11.002h-.046l-.355.008h-.014q-.081 0-.161.004h-.019l-.323.01h-.015c-.058 0-.115.005-.173.007h-.015l-.325.012h-.023l-.163.006h-.012l-.355.019q-.024 0-.045.002l-.116.006h-.012q-.267.016-.538.035l-.621.017h-.008c-.431-.002-1.048-.017-1.658-.017h-.74q-.06 0-.118.002l-.072.002h-.017q-.057 0-.115.005l-.068.002h-.01l-.126.006-.05.002H53.7a9 9 0 0 0-.33.029l-.303.02c.09.221.196.501.3.712.535-.087 1.123-.093 1.671-.075 2.161.079 4.302-.154 6.46-.142.256 0 .6-.041.854-.068-.022 2.297.273 1.732 2.304 1.743 0 2.6.09 5.196.086 7.796 0 .4.153 2.718-.01 2.856.171.18.138.507.148.792.005.121.007.332.03.443.063.452.055.92.061 1.378-.21 0-.515.012-.718 0-.983 0-1.453.082-1.43 1.257.012.572.051 1.157.074 1.728-1.384.08-3.578.242-4.916.192-.318.103-1.798.155-2.079.023-.468.165-2.38.117-3.01.12l-6.172-.036a65 65 0 0 0-3.522.093c-.746.037-1.592-.054-2.342-.111-.419.026-.84-.02-1.241-.14l-.72.032q-.938.019-1.872.015c-.083.012-.157.027-.225.035s-.132.017-.194.017a.7.7 0 0 1-.377-.118c-.254-.33-.16-.893-.145-1.338-.064-.324-.125-.396-.356-.609-.722-.09-1.079-.026-1.794.035-.13-1.63-.068-3.136-.139-4.75-.12-2.751-.193-5.337-.17-8.094 2.69-.057 2.191-.488 2.191-2.88.755-.01 1.539-.009 2.29-.046 1.137-.056 2.498-.22 3.63-.157.105-.099.61-.734.732-.88-.216.037-.486.09-.699.118-.2.016-.427.04-.625.049-1.198.006-2.177.144-3.276.175h-.31l-1.882.044c-.183-1.31.085-1.714-1.196-1.61q-.127.01-.276.026l-.524.004-.526.008q-.124 0-.239.004-.1.001-.194.005h-.008q-.055 0-.107.004h-.089q-.074.002-.144.006h-.035q-.023 0-.044.002-.027 0-.051.002h-.033l-.04.002-.117.008q-.018 0-.039.005h-.008l-.046.004q-.028.002-.053.006l-.035.004-.101.012-.023.002h-.012q-.009 0-.015.002l-.078.015-.031.006-.066.014-.02.005h-.009l-.02.006-.081.023-.025.008-.03.01-.036.012q-.004 0-.008.003l-.023.008-.068.03-.02.01q-.008.002-.01.007l-.032.017-.02.012-.019.012-.055.04-.015.012-.02.018-.031.027-.015.015q-.021.021-.043.047l-.002.002-.013.015-.039.055-.01.017-.019.033-.016.029-.008.018-.03.068-.008.02-.006.022-.012.039-.004.014-.006.023-.021.082-.004.025v.006q-.002.023-.008.046-.004.017-.006.039l-.005.027q-.006.045-.01.099v.058l-.004.078v.389q0 .036.002.07v.048a4 4 0 0 0 .01.18v.026q.002.044.006.087.01.14.025.295l.006.072.035.356.025.238v.495q.001.206.008.38c.04 1.108.18 1.304.712 1.306q.068.001.144-.004l.046-.002.131-.008.038-.002c.024 0 .05-.004.074-.004q.04-.002.082-.007l.046-.002.163-.01.04-.002h.026l.136-.006.068-.002.218-.004h.167l-.016.53c-.015.517-.019 1.006.002 1.552v.594q-.006.248-.004.522c.004 1.272.13 2.89.167 4.11.016.552.01 1.47.016 2.383v.023l.002.26v.057q0 .113.002.22v.085q0 .099.004.198v.091c0 .062.005.122.005.184q0 .049.002.096.001.086.006.172c0 .03.002.064.004.093l.008.166.004.08.013.184.002.046v.004c.012.169.027.32.045.445.015.213.025.43.056.64a.2.2 0 0 1-.041.078l-.01.012a.3.3 0 0 1-.081.068.5.5 0 0 1-.089.042l-.014.006a1 1 0 0 1-.116.033l-.024.006a3 3 0 0 1-.316.041 10 10 0 0 1-.433.027q-.04 0-.082.004a3 3 0 0 0-.184.014l-.103.013-.043.006-.124.023-.027.006q-.046.012-.087.025l-.03.01a.5.5 0 0 0-.1.052.3.3 0 0 0-.067.068.2.2 0 0 0-.033.074v.002a3 3 0 0 0-.033.212q0 .013-.003.023-.013.11-.02.23c-.043.644.012 1.467.041 2.135l.008.21q0 .049.002.095c0 .07.005.138.005.2v.035l.02.421c.015.307-.022.581.1.84.506.387 2.224-.046 2.715.131l.495.035.32.02.121.01h.023l.055.001.1.004h.09c.468 0 .804-.132.885-.812v-.006l-.006-.621-.052-.872v-.048h-.002c1.874.006 3.996-.19 5.88.143l.425.035q.187.01.382.012c.92.004 2.017-.136 2.965-.136l.248-.012c1.278.016 2.55.107 3.825.125h.061q.682.01 1.368-.018a95 95 0 0 1 2.468-.077q.541-.012 1.08-.02c.852-.015 1.703-.027 2.555-.047l.113-.003a75 75 0 0 0 3.25-.138l.512-.01c.548-.062 1.18-.025 1.686-.114.019.504.027.873.105 1.366.673.422 3.904.334 4.706.006.076-.124.165-.326.14-.47a5 5 0 0 1-.053-.743c-.021-1.245.152-3.153-.06-3.823a3 3 0 0 0-.163-.037c-.635-.125-1.06.013-1.485-.01a1.5 1.5 0 0 1-.32-.054c-.121-.121-.121-.138-.119-.268v-.177a19 19 0 0 0-.023-1.02c-.05-1.04-.154-2.13-.152-3.201-.076-.408-.041-2.38-.046-2.971v-.13q0-.152-.004-.307l-.002-.174-.002-.142a50 50 0 0 0-.027-1.068l-.016-.627q0-.093-.004-.186a55 55 0 0 1-.019-1.532c0-.46.01-.907.035-1.332a1 1 0 0 1 .116-.072c.095-.045.154-.02.365-.03.532-.034.93-.026 1.31-.395.036-.24.005-1.055 0-1.346v-.008q-.025-1.176-.034-2.353l-.03-.375a.4.4 0 0 0-.139-.198zm-35.215 5.675c-.101.008-.083 0-.186-.025-.115-.31-.157-3.01-.163-3.52 1.258-.21 2.056-.194 3.3-.28l.094.045c.157.691.367 2.873.225 3.516-.42.315-2.563.214-3.272.266zm1.7 17.797c-.475.006-1.044.054-1.53.08 0-1.138-.088-2.286-.082-3.369.677-.159 1.518-.198 2.225-.251.339-.042.879-.046 1.213.033.107.575.128 2.926.138 3.604-.511.033-1.412-.06-1.965-.095zm33.14-4.85c.197-.029.222-.047.416.01.052.149.113 3.47.136 3.929-.934.047-2.056.02-3.006.018-.192.006-.287.027-.462-.057-.126-.353-.101-3.248-.093-3.81 1.056-.02 1.95-.001 3.008-.09m-2.892-14.6-.628.018-.048-3.355c.652-.079 1.91-.052 2.648-.079l.74-.051.07 3.336c-1.068.134-1.71.13-2.782.128z"/><path fill="#83dcf9" d="M39.389 46.12q.142-.062.284-.097c.268-.069.538-.087.819-.128l.06-.009c.15-.12.255-.596.321-.853l.017-.066c-.48-.654-.701-1.328-.679-2.017a3.2 3.2 0 0 1 .155-.866q.045-.146.107-.29.096-.233.227-.469a3.97 3.97 0 0 1 2.413-1.905c.136-.279.233-.55.342-.841l-.052.014a3.3 3.3 0 0 1-.676.11c-1.357.055-1.998-1.013-1.683-2.407q.037-.161.091-.328c.147-.452.349-.765.6-1.165-1.134-.064-2.495.101-3.631.157-.75.037-1.536.035-2.289.045 0 2.392.497 2.823-2.192 2.88-.023 2.758.052 5.346.171 8.094.07 1.615.009 3.12.139 4.751.715-.062 1.07-.126 1.794-.035l2.276-2.056c.04-1.047.34-2.072 1.388-2.524zm15.477-8.334c.722-.043 1.08-.08 1.784.163.27.093.518.219.738.367.955.648 1.402 1.778 1.052 2.994.227.295.402.534.567.77.214.309.41.612.664 1.032.85.056 1.478.17 2.107.774q.063.06.126.128.105.114.204.251.141.19.26.41l.004.009q.05.093.093.19l.033.067.051.126.058.14.017.052c.055.163.1.328.13.487q.023.132.033.26c.583.286 1.356.69 1.944.917.16-.136.008-2.456.01-2.856.005-2.6-.086-5.196-.086-7.796-2.033-.013-2.326.554-2.303-1.743-.254.027-.598.07-.854.068-2.16-.01-4.3.221-6.46.143-.549-.019-1.137-.013-1.673.074.462.853 1.105 2.082 1.501 2.973"/><path fill="#2974af" d="M64.253 49.533c.202.01.507 0 .718 0-.21 0-.516.013-.718 0"/><path fill="#2974af" d="M62.695 47.15a8 8 0 0 1-.371.959c-.134.307-.268.602-.38.948.009.091.036.407.077.497.128.275.843.706.604 1.05-.08.115-.36.23-.51.3-.034.32-.032.622-.189.896l-.124.062c-.602-.256-.317-.85-1.472-.833-.833.723-1.445 1.097-2.349 1.682 1.34.05 3.535-.111 4.916-.191-.022-.572-.062-1.157-.074-1.729-.025-1.175.447-1.255 1.431-1.257-.192-.202-.334-.417-.495-.644.22-.055.475-.1.701-.146.16-.186.306-.392.45-.588-.023-.111-.023-.321-.03-.443-.917-.231-1.364-.641-2.092-.907q-.045.181-.095.342z"/><path fill="#fde470" d="m61.801 51.864.124-.062c.155-.274.155-.573.19-.895.148-.07.429-.185.509-.3.237-.345-.476-.776-.604-1.05-.044-.093-.07-.409-.077-.497a11 11 0 0 1-1.169 1.521 9 9 0 0 1-.443.45c1.155-.017.87.575 1.472.833zm1.958-2.974c.163.227.305.441.495.643.202.01.507 0 .717 0-.004-.458.002-.926-.062-1.377-.146.196-.292.402-.45.587-.226.046-.48.091-.7.147"/><path fill="#83dcf9" d="M61.224 53.338a.3.3 0 0 1 .064.096c.121.27.082.879.084 1.124.505.004 1.15-.008 1.644.031-.079-.493-.09-.862-.106-1.365-.507.089-1.138.05-1.686.114"/><path fill="#fff" d="M63.696 54.068c.173.085.268.064.462.058.95 0 2.07.03 3.006-.019-.022-.457-.082-3.78-.136-3.928-.194-.057-.218-.039-.416-.01-1.058.089-1.953.07-3.009.09-.008.562-.033 3.457.093 3.81M34.82 33.44l-.095-.045c-1.243.086-2.041.07-3.3.28.009.51.048 3.21.164 3.52.103.027.084.033.185.025.71-.052 2.852.049 3.273-.266.142-.644-.068-2.825-.225-3.516zm-.73 18.038c-.707.053-1.55.093-2.224.251-.007 1.083.08 2.232.082 3.37.483-.027 1.052-.074 1.53-.08.55.032 1.454.125 1.965.094-.01-.678-.03-3.029-.138-3.604-.334-.079-.874-.074-1.212-.033zm31.603-19.323c-.739.026-1.996 0-2.648.078l.047 3.355.63-.019c1.071.002 1.713.006 2.78-.128l-.07-3.336-.74.052z"/><path fill="#62a8e6" d="M55.901 52.734c2.31-.759 4.266-2.013 5.475-4.188 1.025-1.843 1.122-4.16-1.37-4.726.034 1.427-.754 2.15-1.678 3.177-1.967 2.034-5.452 3.54-8.269 3.656-2.115.087-4.163-.185-6.181-.633-1.516-.336-2.61-.511-3.72-1.668-.382-.398-.03-1.198.097-1.668l-.033-.043c-1.506.15-1.582 1.606-1.452 2.806.146 1.35.988 2.518 2.041 3.326l.044.031c.75.056 1.596.146 2.342.111a65 65 0 0 1 3.522-.092l6.172.035c.63 0 2.542.045 3.01-.12z"/><path fill="#2974af" d="M38.036 49.565a31 31 0 0 1-1.957 1.742c-.014.445-.11 1.008.144 1.338a.7.7 0 0 0 .378.118c.062 0 .123-.007.194-.017l.224-.035c.101-.26.184-.56.384-.732.297-.047.377.054.606.24.235-.067.518-.182.742-.125.174.198.145.322.14.603l.72-.033c-.954-1.007-1.278-1.784-1.577-3.098z"/><path fill="#fde470" d="M38.755 52.093c-.225-.06-.508.055-.743.123-.229-.183-.307-.286-.606-.239-.2.172-.282.475-.383.732a81 81 0 0 0 1.872-.014c.004-.28.033-.404-.14-.602"/><path fill="#45b473" d="M49.524 39.817c-1.889.157-3.116 1.077-4.943.334-1.65-.67-3.844 1.355-3.66 3.054.004.984 1.105 1.545.94 2.058-.165.148-.206.188-.39.307-.214.765-.682 1.679-.812 2.27 1.19 1.044 1.567 1.102 3.11 1.427 3.474.69 6.608 1.203 10.005-.212 2.286-.953 4.433-2.276 5.501-4.625.28-.614-1.111-2.324-1.544-2.773.047-.854.245-1.668-.353-2.413-.382-.474-1.124-.75-1.716-.794-1.87.126-1.876.763-3.377 1.343-.163.063-2.328-.013-2.761.022zm-6.846 4.49a.371.371 0 1 1-.425-.61.371.371 0 0 1 .425.61m1.705-.687c-1.89.111-2.21-1.87-.513-2.633.288-.015.47 0 .742.113.342.142.612.42.744.769.332.885-.152 1.478-.973 1.75m12.28-1.767a.36.36 0 0 1 .373-.009.36.36 0 0 1 .179.326.361.361 0 1 1-.555-.318zm-3.236-1.254a1.36 1.36 0 0 1 2.623-.058 1.36 1.36 0 0 1-.887 1.678 1.358 1.358 0 0 1-1.734-1.62zm.013 2.955c.35-.04.391-.031.626.233.05.196.064.107-.03.276-.665.404-3.358.59-4.217.633-.19 1.922-1.547 3.1-3.467 2.43-.4-.242-.738-.65-.861-1.104-.087-.316-.085-.93.09-1.217.359-.587 6.578-.94 7.762-1.229z"/><path fill="#000" d="M45.58 44.808c-.176.286-.178.898-.091 1.216.125.454.462.862.861 1.103 1.92.67 3.277-.507 3.467-2.429.858-.043 3.553-.23 4.217-.633.094-.171.082-.08.03-.276-.233-.264-.276-.272-.626-.233l-.097.023c-1.186.288-7.405.64-7.762 1.228m.649.472c.5-.157 2.153-.373 2.753-.464l.053.004c.075.208.01.326-.055.534-.363 1.124-1.361 1.466-2.407 1.08-.272-.268-.583-.787-.344-1.154"/><path fill="#fe93bf" d="M48.98 45.354c.066-.207.13-.326.055-.534l-.053-.005c-.6.091-2.252.308-2.753.464-.24.37.072.887.344 1.155 1.046.386 2.044.041 2.407-1.08"/><path fill="#000" d="M55.161 42.222a1.357 1.357 0 0 0 .887-1.679 1.36 1.36 0 1 0-.889 1.678zm-9.807-.353a1.35 1.35 0 0 0-.744-.77c-.272-.113-.454-.127-.742-.113-1.698.761-1.378 2.745.513 2.633.82-.272 1.303-.866.973-1.75m-3.076 1.811a.37.37 0 0 0 .021.651.37.37 0 0 0 .38-.027.37.37 0 0 0 .1-.505.37.37 0 0 0-.5-.12m14.731-1.198a.36.36 0 1 0-.47-.148.36.36 0 0 0 .473.148z"/><path fill="#2974af" d="M41.698 37.213c.114.697.774.846 1.372.707q.275-.064.546-.138c.134-.573.223-1.148.349-1.72.086-.393.218-1.152.74-1.004.082.08.175.188.15.306-.23 1.138-.548 2.955-.917 3.996h.099c.829.02 1.076.336 1.763.37.688.038 1.715-.294 2.425-.432.534-.105 1-.138 1.507-.223.274-.192.557-.297.932-.573.124-.311.252-.895.664-.72.196.213.237.388.34.658.343.074.773.217 1.118.32.53-.413.767-.538 1.392-.782l-1.231-2.464c-.256-.524-.61-1.33-.928-1.79a5.5 5.5 0 0 1-1.448-.365c.132-.424.264-.705.464-1.099a10.5 10.5 0 0 0-1.67-1.924c-.3.219-.656.539-1.031.396-.287-.257-.254-.629-.285-1.024a6.8 6.8 0 0 0-1.27.816c-.625.53-3.066 2.905-3.388 3.475.105 1.132.21 1.418-1.035 1.156-.396.617-.785 1.293-.662 2.056zm7.232-.045c.029.24-.083.497-.159.734.219.24.359.35.371.666l-.097.095c-.33.089-.678-.017-1.014-.089-.184.28-.322.641-.675.559-.158-.157-.175-.406-.222-.633-.272-.289-.538-.05-.631-.431.105-.196.439-.412.63-.557.106-.253.22-.587.316-.85.264.104.574.291.825.432.28-.06.46-.15.658.074zm-2.703-3.887c.09-.429.127-.61.286-1.017.382.13.755.458 1.091.71.336-.095.487-.186.775-.031l.037.138c-.063.297-.251.53-.422.79.142.276.414.633.138.866-.285.053-.69-.04-.992-.087-.223.301-.318.615-.714.66l-.113-.099c-.13-.285-.105-.592-.111-.913-.312-.08-.757-.11-.718-.487.173-.231.485-.377.742-.53m5.966 5.86"/><path fill="#fde470" d="M51.33 37.783c-.415-.176-.54.408-.665.72-.375.276-.657.38-.932.572q.33-.012.631-.012c.609 0 1.168.029 1.83.078.234-.125.373-.224.593-.38-.344-.106-.775-.248-1.117-.32-.104-.27-.145-.446-.34-.658m.689-4.057a15 15 0 0 0-.984-1.466c-.2.394-.332.674-.464 1.099.545.208.86.288 1.448.365zm-2.653-3.39c-.387-.317-.8-.61-1.315-.628.03.393-.002.767.284 1.024.376.143.73-.177 1.031-.396m-5.972 3.662c-.415.42-.669.697-1.036 1.157 1.246.262 1.139-.025 1.036-1.157m2.806.299c.006.32-.02.627.11.914l.114.099c.394-.044.489-.359.714-.66.3.047.707.14.992.087.276-.233.004-.59-.139-.867.172-.257.36-.492.423-.79l-.037-.137c-.289-.155-.44-.064-.775.03-.336-.251-.71-.579-1.091-.709-.159.406-.196.588-.287 1.017-.257.152-.569.299-.742.53-.04.377.406.406.718.486m1.247 2.363c-.097.262-.21.596-.315.85-.192.144-.526.363-.631.556.095.382.36.143.631.431.047.227.066.477.223.633.352.083.49-.278.674-.558.338.072.687.177 1.014.088l.097-.094c-.012-.314-.152-.427-.37-.667.075-.237.187-.495.158-.734-.198-.227-.377-.136-.658-.074-.251-.142-.56-.33-.825-.43z"/><path fill="#cef3fd" d="M10.4 11.702c.625.035 1.277-.053 1.901-.115 1.945-.188 3.91-.173 5.852-.274 1.17-.033 2.366-.207 3.512-.227 2.42-.043 4.893-.3 7.3-.336l12.768-.101c2.68-.03 6.093-.068 8.767-.28.006-.766.037-1.611.097-2.374.099-1.246-.184-3.015.724-3.976 1.344-.21 2.753-.076 4.11-.029l3.577.087c2.924.093 5.866-.02 8.79.097.631.025 1.237.047 1.87.043-.14-1.115-.327-1.864-1.29-2.6a3.3 3.3 0 0 0-1.07-.546c-1.083-.312-4.57-.4-5.826-.34-5.295.23-10.565.467-15.865.177C44.283.836 42.953.712 41.61.759c-5.01.18-9.997.248-14.997.67-.732.062-1.505.007-2.235.05-2.182.126-4.335.058-6.506.352-.99.135-2.017.097-3.002.332-4.133.603-4.613 3.438-4.485 7.077.024.714-.015 1.673.012 2.456zm17.936-8.178c.334-.055 1.068.13 1.315.351 1.819 1.631.773 4.03-1.497 4.314a2.3 2.3 0 0 1-1.237-.343 2.04 2.04 0 0 1-.959-1.352c-.357-1.718.8-2.728 2.38-2.968zm-6.927.209A2.304 2.304 0 1 1 19.407 6.3a2.303 2.303 0 0 1 2.002-2.567m-6.097.554c1.652-.257 2.71 2.18 1.75 3.43-.54.703-.88.79-1.684.973-2.823-.035-3.105-3.765-.066-4.403"/><path fill="#000" d="M26.916 7.844c.367.22.806.355 1.237.342 2.27-.284 3.313-2.68 1.497-4.313-.246-.22-.982-.406-1.316-.35-1.58.24-2.736 1.249-2.38 2.966a2.05 2.05 0 0 0 .96 1.353zm1.488-3.606c.176-.017.757.167.916.286.303.231.45.567.5.936.071.469-.057.945-.35 1.318-.369.466-.754.613-1.32.68-.393-.018-.606-.057-.944-.284a1.32 1.32 0 0 1-.57-.883c-.215-1.235.661-1.899 1.768-2.053"/><path fill="#45b473" d="M27.207 7.173c.338.227.549.266.945.285.565-.068.95-.215 1.32-.68.292-.372.42-.85.35-1.318-.052-.372-.198-.706-.501-.936-.157-.12-.74-.304-.916-.287-1.107.155-1.983.819-1.769 2.054.06.36.266.68.571.882"/><path fill="#000" d="M21.971 8.304a2.303 2.303 0 1 0-.558-4.573 2.303 2.303 0 0 0 .558 4.573m-1.65-3.083a1.585 1.585 0 1 1 2.74 1.6 1.585 1.585 0 0 1-2.741-1.6z"/><path fill="#fde470" d="M21.972 7.583a1.584 1.584 0 1 0-1.749-.967 1.586 1.586 0 0 0 1.751.967z"/><path fill="#000" d="M15.377 8.687c.805-.181 1.145-.268 1.685-.973.959-1.25-.097-3.687-1.75-3.429-3.042.635-2.76 4.365.065 4.402m.031-3.686c1.118.07 1.596 1.24 1.118 2.19-.278.552-.72.668-1.27.814-2.048-.402-1.75-2.586.152-3.002z"/><path fill="#f67043" d="M15.256 8.005c.55-.147.992-.262 1.27-.815.476-.948 0-2.12-1.118-2.19-1.903.417-2.2 2.603-.152 3.003z"/><path fill="#45b473" d="M10.923 30.26c4.697-.45 7.697-1.178 11.751-3.72 4.295-2.693 7.403-7.189 9.234-11.871.371-.951.668-2.263.913-3.25-.738-.019-1.818.016-2.575.045-1.116.043-2.879-.02-3.93.122.173.002.451-.017.587.062.093.851-1.66 4.773-2.152 5.68a10 10 0 0 1-1.01 1.539 18.56 18.56 0 0 1-12.595 6.877c-.095.01-.178.014-.273.02-.014 1.442.046 3.025.05 4.497zm15.27-18.672"/><path fill="#83dcf9" d="m10.521 15.894.019.643zm10.543 4.771c2.247-2.002 3.417-3.91 4.415-6.726.288-.817.651-1.47.715-2.351q-1.449.11-2.901.157c-.402.014-.75.016-1.095.026a21 21 0 0 0-.557.027 11 11 0 0 0-.674.066l-.763.03c-.103.475-.412 1.061-.641 1.502.23-.441.538-1.027.641-1.503l.763-.029c-.12.402-.235.726-.408 1.11-1.84 4.099-5.34 7.089-9.859 7.73.157 1.382.02 3.017.157 4.334 3.033-.113 6.596-1.616 9.17-3.532a15 15 0 0 0 1.037-.843z"/><path fill="#df8985" d="m19.173 14.094.02-.035.03-.052q.173-.299.338-.61c.23-.441.538-1.027.641-1.503-1.427.233-3.406.072-4.852.222-.239.019-.536.052-.769.06-.573 1.757-2.311 3.213-4.06 3.716l.019.643c.02.258.049.678.074 1.147.02.39.039.81.053 1.196.01.307.019.593.021.82v.159q0 .08-.002.142c1.676-.293 3.171-.868 4.483-1.697 1.62-1.024 2.959-2.437 4.006-4.208zm-7.468 2.103c-.326.153-.685.33-1.038.398l-.127-.058-.019-.643c1.749-.503 3.487-1.961 4.06-3.716.233-.008.532-.041.77-.06-.523 1.848-1.92 3.265-3.646 4.079"/><path fill="#ad5a54" d="M14.581 12.178q-1.02.022-2.035.105c-.728.066-1.299.173-2.035.152 0 .566-.004 1.149-.004 1.733 0 .583 0 1.165.014 1.728 1.749-.504 3.487-1.961 4.06-3.716z"/><path fill="#d9fe8c" d="M14.58 12.178c-.573 1.757-2.31 3.213-4.06 3.716l.02.643.127.058c.353-.068.711-.243 1.037-.398 1.726-.815 3.124-2.233 3.646-4.079-.24.019-.536.052-.77.06m5.98.796c.17-.384.288-.708.408-1.11l-.763.03c-.103.475-.413 1.061-.641 1.502q-.165.312-.339.61l-.029.052-.02.035c-1.048 1.772-2.386 3.186-4.007 4.209-1.311.829-2.806 1.404-4.482 1.699l.016.703c4.518-.641 8.02-3.631 9.859-7.73zm3.18 5.891c.384-.48.723-.996 1.011-1.538.493-.907 2.246-4.827 2.153-5.681-.136-.076-.415-.06-.588-.062h-.121c-.062.883-.425 1.536-.716 2.353-.998 2.819-2.167 4.724-4.415 6.726-.321.287-.67.57-1.037.844-2.571 1.913-6.136 3.418-9.17 3.532l.017.724c.095-.007.177-.01.272-.021a18.55 18.55 0 0 0 12.595-6.877"/><path fill="#feb086" d="M63.467 4.864c-3.528.006-7.08-.182-10.613-.225a13 13 0 0 0-.953.012c-.148.056-.307.085-.352.242-.26.915-.186 2.15-.233 3.072-.283 5.588-.16 11.16-.1 16.746 2.514-1.56 5.213-2.755 7.725-4.33 1.006-.632 2.392-1.217 3.336-1.906-.82-1.619-1.047-3.771-.47-5.512.67-2.018 2.86-3.808 4.935-4.208 1.754-.256 3.068-.425 4.534.74.538.429.907.72 1.334 1.285 1.002-.4 3.233-1.945 4.231-2.607 1.512-1 3.733-2.295 5.151-3.37-2.21-.005-4.388-.02-6.596.077-3.976.173-7.953-.053-11.929-.018zm-5.736 6.602c-.017.188-.139.268-.285.359-.548.066-2.476.186-2.798-.258-.33-.453-.13-1.932-.072-2.524-.514-.024-1.672-.035-2.1-.216-.412-.402-.379-2.736.05-3.178 3.147.013 2.934-.565 2.82 2.737.481-.004 1.983-.1 2.277.117.24.505.16 2.345.108 2.963"/><path fill="#f67043" d="M55.347 8.386c.114-3.3.326-2.723-2.82-2.736-.43.441-.465 2.776-.05 3.178.427.181 1.588.191 2.099.216-.058.592-.258 2.07.072 2.524.324.443 2.252.326 2.798.258.147-.09.268-.17.285-.359.051-.619.132-2.458-.107-2.963-.295-.217-1.796-.122-2.277-.118m-.695-.14-.04.041c-.292.075-1.345-.016-1.68-.039l.01-1.895c.673.027 1.088.031 1.768-.01-.041.633-.045 1.268-.056 1.903zm.58 2.875c-.013-.724 0-1.304.037-2.027l1.784-.004c-.005.684.012 1.393.02 2.08-.592 0-1.243-.033-1.841-.051z"/><path fill="#fff" d="M55.27 9.093c-.038.724-.05 1.302-.038 2.027.598.019 1.248.05 1.842.052-.009-.687-.025-1.396-.021-2.08l-1.784.003zm-2.326-2.74-.01 1.895c.336.022 1.387.113 1.678.039l.041-.041c.01-.636.015-1.27.056-1.904-.678.042-1.095.037-1.767.01z"/><path fill="#fde470" d="M73.031 11.407c.161.342.359.734.464 1.095.9 3.077-.666 6.7-3.586 8.032a5.7 5.7 0 0 1-4.462.15c-.924-.346-1.986-.996-2.71-1.67-.975.701-2.756 1.586-3.874 2.231-1.513.874-3.547 2.105-5.138 2.84-.55.245-.852.391-1.351.744 1.462.076 2.893.018 4.353-.025 1.645-.05 3.396.041 5.033-.06 3.394-.206 6.76-.348 10.16-.305 3.693-.066 7.355-.186 11.054-.177-.004-1.524.056-3.013.1-4.535.024-.858-.118-1.818-.129-2.699-.04-3.412-.006-6.792-.377-10.192-.03-.285-.033-1.254-.126-1.421l-.045-.017-5.46 3.564c-1.349.874-2.483 1.67-3.91 2.443zm6.572 6.838a2.483 2.483 0 1 1-.03 4.967 2.483 2.483 0 0 1 .032-4.967z"/><path fill="#000" d="M79.617 23.21a2.484 2.484 0 1 0-.055-4.967 2.484 2.484 0 0 0 .053 4.967zm-1.402-3.528c.456-.563.75-.612 1.392-.689.227-.074.724.033.926.15 1.175.677.956 2.51-.16 3.13-.25.141-.498.205-.764.281-.342-.045-.714-.105-1-.297a1.67 1.67 0 0 1-.736-1.142c-.079-.476.037-1.058.342-1.433"/><path fill="#feb086" d="M78.61 22.257c.287.191.658.251 1 .296.267-.076.514-.14.766-.28 1.115-.623 1.334-2.456.158-3.13-.202-.118-.7-.223-.925-.15-.644.076-.939.125-1.392.688-.303.375-.419.957-.343 1.433.073.468.34.883.737 1.143"/><path fill="#fff" d="M13.235 46.474c3.845-.928 5.454-3.953 7.295-7.118.196-.42.381-.81.548-1.24-2.125.578-3.721 1.112-5.79 1.765-.226 2.147-1.062 3.63-3.559 3.473-2.528-.157-3.812-3.935-1.785-5.533 1.323-1.084 3.711-.629 4.738.765q.213.297.402.613l5.502-1.697c-2.547-1.534-6.292-3.075-9.26-2.984-1.457.252-2.378.443-3.368 1.687-.55.633-.538 1.798-1.126 2.346-.808.755-5.437 1.252-5.967 1.697-.636.534 1.004 5.957 1.83 6.397.526.278 4.692-1.495 5.663-1.48.759.057 1.28.706 1.89 1.096.838.536 2.063.44 2.987.215z"/><path fill="#83dcf9" d="M67.022 20.33c4.856.35 7.846-5.735 4.763-9.422-.854-1.02-2.045-1.695-3.412-1.606-1.023.066-1.675.115-2.607.532-2.272 1.014-3.767 3.066-3.573 5.604.09 1.174.373 2.574 1.369 3.34 1.142.894 2.043 1.339 3.458 1.551zm2.56-9.76c.488.012.694.196 1.053.507 2.026 1.763 2.115 4.796.31 6.757-.966 1.052-1.94 1.283-3.356 1.357-.332-.062-.56-.152-.524-.542.276-.285.841-.138 1.324-.223a4 4 0 0 0 1.035-.33c2.213-1.06 2.854-4.522.998-6.17-.216-.191-.889-.752-1-.958-.01-.173.066-.252.163-.4zm.3 2.373c1.167 1.128.771 3.048-.452 3.974-.726.55-1.165.637-2.033.624-2.315-.245-3.458-2.387-1.977-4.321.682-.893 1.486-1.114 2.542-1.248.594-.016 1.51.584 1.92.971m-6.16-.282c.66-1.33 1.84-1.93 3.178-2.367.39-.017.623-.013.771.402-.092.303-.53.303-.835.38-2.526.632-3.458 3.282-2.707 5.597.223.685 1.15 1.256 1.132 1.89-.856.43-1.662-1.228-1.868-1.881-.39-1.23-.242-2.873.33-4.025z"/><path fill="#000" d="M65.42 13.219c-1.48 1.934-.338 4.077 1.977 4.322.868.012 1.307-.074 2.033-.625 1.223-.926 1.62-2.845.452-3.973-.41-.388-1.326-.988-1.92-.971-1.056.134-1.86.354-2.542 1.247m2.569-.532c.344.05 1.118.445 1.332.7 1.326 1.568-.012 3.476-1.889 3.44-1.74-.27-2.577-1.64-1.435-3.185.497-.672 1.196-.852 1.99-.955z"/><path fill="#45b473" d="M67.433 16.826c1.874.037 3.214-1.87 1.888-3.442-.216-.254-.99-.65-1.332-.699-.794.103-1.493.28-1.99.955-1.142 1.544-.305 2.915 1.436 3.186z"/><path fill="#000" d="M70.42 11.926c1.858 1.648 1.215 5.11-.998 6.17a4 4 0 0 1-1.035.33c-.482.082-1.045-.062-1.323.222-.038.39.191.48.523.543 1.417-.075 2.39-.306 3.357-1.357 1.805-1.961 1.716-4.994-.311-6.757-.359-.312-.565-.495-1.052-.508-.095.149-.173.227-.163.4.11.207.782.765 1 .96zm-5.158 6.638c.02-.633-.91-1.204-1.133-1.889-.75-2.317.182-4.965 2.708-5.598.305-.076.74-.076.835-.38-.148-.414-.382-.42-.771-.401-1.338.437-2.518 1.037-3.178 2.367-.57 1.152-.717 2.796-.33 4.025.206.653 1.013 2.31 1.868 1.88z"/><path fill="#f67043" d="M85.183 20.02c.051-1.542.307-12.887-.038-13.403-.14-.006-.132-.014-.268.008-.538.058-1.066.03-1.606.015.087 1.185.202 2.369.272 3.557.114 1.948.043 3.901.112 5.85.072 2.1.165 4.183.07 6.287-.03.618.01 1.245-.031 1.864-.037.52-.101.767-.662.777-1.217.025-2.431-.012-3.646.008l-11.81.219c-2.789.062-5.56.305-8.344.301-2-.002-4.008.099-6 .087-.013.354-.079.727.115 1.006.2.122.21.111.43.159 3.119.033 5.983.34 9.105.305q4.035-.063 8.069-.219c1.051-.037 2.138-.03 3.181-.082 1.075-.052 2.192-.314 3.293-.33 2.516-.037 5.355.095 7.863-.025.156-1.571-.161-4.77-.108-6.382z"/><path fill="#fde470" d="M66.804 62.487c-1.73.308-3.479.592-5.176 1.052-.544.146-1.472.165-1.72.695-.297.637-.043 1.041.522 1.324.753.218 7.194-1.609 8.43-1.926 2.647-.68 5.812-1.275 8.386-2.11-.105-.462-.21-1.012-.375-1.447l-.118-.048c-1.355.367-2.73.627-4.093.971-1.934.487-3.914 1.067-5.86 1.49z"/><path fill="#83dcf9" d="M62.393 31.64a4 4 0 0 1 .196-.067l.066-.016.122-.031.074-.014a2 2 0 0 1 .186-.025q.05-.006.1-.008c.028 0 .054-.005.081-.005q.05 0 .1-.004h.179c.152 0 .315.006.492.006h.009c-.009-.515-.14-3.468 0-3.65.183-.016.39-.063.54.015.088.68.074 2.86.072 3.637.584 0 1.92-.29 2.377.075a.4.4 0 0 1 .139.198l.07-.106c.13-.014.245-.026.375-.047.153-.34-.033-3.361-.062-3.938-2.095.02-4.522.043-6.61.109v.05c.022 1.265.076 2.573.078 3.83l1.419-.004z"/><path fill="#cef3fd" d="M64.539 27.835c-.15-.079-.36-.031-.54-.015-.139.182-.007 3.135 0 3.65h.61c.004-.775.018-2.957-.072-3.637z"/><path fill="#fde470" d="M64.505 61.037c-1.686.388-3.418.701-5.11 1.103a.45.45 0 0 0-.319.225c.048.39.503.54.835.635.631.254 2.914-.534 3.695-.664 1.062-.18 2.186-.406 3.252-.594a335 335 0 0 0 6.036-1.538c1.262-.332 2.563-.538 3.833-.91-.115-.422-.148-1.032-.433-1.195l-.303.024c-2.075.53-4.19.945-6.267 1.493-1.725.456-3.484 1.023-5.22 1.423z"/><path fill="#83dcf9" d="m13.468 38.426-.57-.293c-3.773-1.202-4.385 3.642-1.222 4.5.408.11 1.027-.069 1.454-.17l-.09-.057c-.131-.27-.197-3.842-.141-4.273zc.053 1.256.076 2.546.14 3.792 1.274-1.1 1.266-2.776-.14-3.792"/><path fill="#cef3fd" d="M12.897 38.133c-.056.43.01 4.002.142 4.272l.089.058c.18-.068.313-.15.478-.245-.064-1.246-.086-2.537-.14-3.792z"/><path fill="#fde470" d="M77.395 62.231c-3.543 1.09-7.27 1.712-10.826 2.76-1.844.542-3.701.878-5.56 1.344-.294.076-.416.625-.424.89l.058.085.156-.027q.654-.18 1.31-.358c5.19-1.442 10.485-2.252 15.589-4.04-.062-.22-.106-.464-.248-.637l-.058-.014z"/><path fill="#fe93bf" d="M80.197 62.217c1.229-.208 1.79-.55 1.497-1.911-.23-1.054-.485-3.263-1.972-3.195-.591.155-.98.297-1.53.58.627 1.412.891 3.087 1.287 4.631l.716-.105z"/><path fill="#fff" d="M59.076 64.938c-.03-.468.173-.9.365-1.311-.546-.287-.676-.359-1.054-.879-.657.555-.994.955-1.565 1.592.101.683.396 1.632.635 2.291a28 28 0 0 1 1.73.687c.21.043.421.089.631.12.046-.238.25-1.077.219-1.25-.464-.394-.911-.522-.961-1.25"/><path fill="#c4c3c4" d="M78.774 62.571c-.132-.773-.804-4.571-1.602-4.744.072.77.856 4.25 1.256 4.77.132-.005.214-.007.346-.026"/><path fill="#000" d="M52.712 65.504c.279-.26.742-.617.81-.98-.228-.45-2.694-.744-3.243-.693-.058.147-.138.339-.035.491.429.627 1.035 1.343 1.66 1.772.157.109.684-.475.806-.59zm1.103 3.206c-.396.182-1.078.429-1.287.784.031.493.986.635 1.386.816 1.01.431 1.122-.251.744-.994-.204-.404-.391-.639-.843-.606m-5.369-2.394c-.303-.062-.699-.138-1.004-.115-.06.132-.167.307-.083.443.33.526.807 1.52 1.524 1.38.134-.576.427-1.532-.437-1.708"/></svg>