<svg xmlns="http://www.w3.org/2000/svg" width="80" height="78" fill="none" viewBox="0 0 80 78"><path fill="#98c05c" d="M48.79 61.501c-.248-1.93-2.699-3.59-4.591-2.649-.767.383.03-1.844 1.213-2.795.558-.442 1.024-.898 1.606-1.233 1.247-.708 2.533-1.222 3.872-1.727 2.199-.83 3.184-.529 4.741-1.902.762-.675 1.475-1.3 2.315-1.898.466-.33 1.13-.533 1.693-.688 1.46-.403 2.635-.19 2.921-.432.21-.175-.12-.733-.422-.743-.51-.02-.97-.02-1.46.078l-1.063.213c-.034.01-.039-.194-.005-.218l.908-.636c.223-.16.514-.567.368-.83-.15-.271-.698-.087-1.028.16l-.99.733-.631.466-.19.136c-.285.214-.567-2.416-.586-2.62-.16-1.655-.539-3.377-1.592-4.634l-1.213-1.451a24 24 0 0 0-1.446-1.606c-.883-.888-1.15-.767-2.135-1.684-.14-.131-.034-.645.126-.704l.776-.286a11 11 0 0 0 1.553-.708c.354-.195.893-.296 1.276-.117.84.379 1.582.742 2.373 1.165l2.557 1.363c.772.413 1.47.927 2.184 1.437l2.926 2.1c.514.37 1.102.66 1.679.932l1.247.597c1.12.539.932 1.893 2.004 2.718l1.034.795c1.053.806 2.115 1.587 3.008 2.567l1.14 1.247c.495.544.986 1.053 1.447 1.636 1.44 1.829 1.974 4.566 2.047 6.885.015.47-.13 1.029-.281 1.46l-.665 1.883c-.257.738-.626 1.48-1.058 2.145-.344.524-.82.976-1.257 1.412-1.082 1.078-1.654 2.004-2.659 2.78l-1.897 1.466a6.5 6.5 0 0 1-1.927 1.014l-1.703.539c-.737.233-1.349.713-1.844 1.31-.776.937-.956 1.029-2.11 1.558a11 11 0 0 1-1.97.684l-2.931.699c-1.767.422-2.63.49-4.489.941-2.27.548-2.853.277-4.896.966-.514.174-1.082.233-1.616.068l-1.184-.37c-.63-.193.83-.242 1.272-.363a3.85 3.85 0 0 0 1.936-1.218c.96-1.135 1.023-3.533.766-4.998l-.398-2.266-.257-1.427c-.068-.368-.092-.8-.145-1.193z"/><path fill="#fee6dc" d="M49.211 69.727c.18 1.082.005 3.29-.892 4.1-1.432 1.29-3.664.742-5.256.058-.548-.233-1.15-.519-1.732-.62-1.693-.307-3.314-.51-5.017-.724-2.426-.3-3.237.694-4.625.874-1.543.194-2.97.315-4.488.048l-6.41-1.12c-.408-.074-.874-.268-1.247-.433l-1.752-.771c-.922-.403-1.596-.69-2.353-1.286l-1.02-.796c-.223-.175-.475-.68-.344-.903l.403-.689c.247-.422.553-.902.684-1.363l.49-1.757c.238-.844.592-1.679 1.116-2.387 1.039-1.402 1.878-2.252 3.465-3.009.771-.373 1.654-.34 2.407.025l1.426.684c1.199.577 2.494.52 3.824.247.995-.203 1.465-.81 2.436-.354.747.354-.015 1.606-.893 2.096l-.747.418c-1.15.64-.524 2.572.092 3.377.893 1.17 2.49 1.456 3.906 1.218.417-.073.869-.33 1.218-.558 1.504-.975 2.484-1.073 3.067-1.538 1.465-1.18 1.504-3.038.805-4.702-.398-.956-.713-3.053.248-3.062.51 0 1.053.16 1.373.47l1.165 1.121c.237.233.616.563.907.694l1.398.617c1.217.538 2.528-1.087 4.226.354.407.344.796.898.868 1.426l.418 3.062.325 2.17z"/><path fill="#000" d="m42.248 28.593-.155 1.174c-.014.107-.194.325-.291.374-.52.247-.825-1.276-.199-2.18.199-.28.97-.693.66-.848-.544-.282-1.257-.282-1.334-.636-.025-.107.048-.344.12-.446.38-.515 1.694.335 2.131.757.495.48.83 1.61.257 1.567l-.83-.063c-.077-.005-.344.209-.359.3"/><path fill="#fee6dc" d="M41.802 30.14c.097-.048.277-.266.291-.373l.156-1.174c.014-.092.281-.306.359-.301l.83.063c.572.044.237-1.087-.258-1.567-.437-.422-1.751-1.272-2.13-.757-.073.102-.145.34-.121.446.077.354.79.354 1.334.636.31.155-.46.567-.66.849-.626.902-.32 2.426.2 2.179m-15.057-9.248.694-.476c.116-.082.539.04.568.18.048.209.121.577.13.747l.083 1.082c.044.544.544 1.078 1.116 1.136 3.945.412 3.742-.777 5.809-.364.388.078.737.51.708.917-.039.461-.194 1.043-.442 1.383l-.907 1.228c-.65.883-.553 2.038.155 2.285 1.175.412 2.218-.315 2.786-1.257l1.16-1.936c.33-.553.766-1.072 1.208-1.591.34-.398.922-.68 1.426-.825 1.854-.544 4.207.228 4.79 1.965.397 1.198.679 2.543.218 3.702l-.563 1.432c-.437 1.096-1.223 1.684-2.615 1.684-.714-.505-.422-1.437-1.35-1.543-1.994-.224-2.63.975-4.842.553l-1.679-.32c-.694-.136-1.771-.166-2.232.422-.398.51-.544 1.14-.505 1.751l.04.631c.009.15-.248.47-.394.539l-.878.412-1.703.825c-.554.272-1.17.568-1.626.97l-.859.758c-.146.126-.611.164-.747.019l-.64-.699c-1.107-1.208-1.296-1.718-2.752-2.373-.544-.247-.898-.815-.568-1.402q.145-.245.369-.563c.859-1.242-1.15-1.698-1.956-3.319-.383-.767-.17-1.538.418-2.082 1.058-.97 1.61-2.28 1.63-3.75.005-.423-.213-.898-.383-1.272l-.296-.645c-.112-.238.218-.767.524-.835.383-.087.898-.02 1.184.155l.888.558c.66.413 1.402.355 2.033-.082m3.363 6.58c.014-.296-.898-.16-1.233-.068-1.494.403-1.95-.476-2.819-1.092-.116-.087-.495-.014-.577.102-.452.65.936 1.354 1.47 1.65 1.092.597 3.11.242 3.159-.592"/><path fill="#000" d="M48.708 47.643c-.32 1.83-2.373 2.83-3.95 3.518-1.13.49-2.911.37-4.042.049l-1.747-.5c-.592-.17-1.15-.553-1.626-.96-.417-.37-.65-.85-.78-1.398-.258-1.082-.962-1.087-.864-1.5.053-.208.567-.417.766-.286.248.165.568.49.64.704l.316.985c.185.568.612 1.13 1.204 1.368 1.698.699 4.41 1.505 6.094.612l1.674-.888c1.563-.83 1.83-2.67 1.35-4.227-.292-.956-1.015-1.63-1.825-2.15-1.529-.99-1.01-2.26-2.766-3.1-3.382-1.616-3.305-.854-4.809-1.344-.112-.04-.16-.36-.121-.466.044-.131.335-.325.475-.316 2.189.195 3.077.466 5.037 1.466.718.359 1.242.98 1.592 1.684.703 1.422 1.388 1.45 2.208 2.3 1.184 1.227 1.465 2.77 1.174 4.45"/><path fill="#7f5b4e" d="M20.757 24.827c-.985-.781-1.28-.446-2.742-1.16-1.014-.5-.81-2.232-.33-3.125.2-.368.428-.698.65-1.038l1.587-2.334c1.024-1.514 1.364-2.766.66-4.61-.135-.35-.262-.689-.368-1.033-.393-1.242-.092-2.538.63-3.586.306-.437.612-.893.99-1.262 3.276-3.198 8.434-.024 10.491-2.863.5-.689 1.02-1.29 1.63-1.878C35.29.662 37.48.492 38.906 1.341a10 10 0 0 1 1.684 1.272c.534.504.83 1.286 1.684.82 1.145-.616 2.392-.544 3.692-.238 2.135.51 4.736 2.591 5.877 4.338l1.383 2.126c.276.422.495 1.004.601 1.504l.476 2.32.475 2.746c.282 1.654.534 2.256 1.369 3.75.796 1.418 2.014 1.83 2.426 3.276.514 1.8-.514 4.057-1.766 4.323l-.612.127c-.145.029-.417.32-.422.475l-.024 1.092c-.015.645-.078 1.33-.33 1.912-.3.694-.917 1.315-1.582 1.65l-1.33.674c-1.014.514-1.44.223-2.203 1.106-.441.51-1.208-.213-1.557-.596-.422-.461-.534-1.456-1.47-1.81l-1.053-.403c-.059-.02-.136-.204-.117-.252l.85-1.932c.683-1.562.392-3.348-.263-4.857-.34-.771-.96-1.354-1.688-1.747-1.611-.868-3.067-.781-4.77-.121-1.655.645-2.747 3.605-3.95 4.944-.175.195-.85.607-1.165.374-.35-.252-.034-.834.214-1.164.407-.544.757-1.024 1.053-1.621.402-.81.597-2.402-.52-2.873a3.82 3.82 0 0 0-2.542-.155c-.912.262-4.265 1.063-4.319-.378l-.029-.835a3.6 3.6 0 0 0-.184-.941 1.12 1.12 0 0 0-1.383-.68c-.99.301-1.49 1.208-2.378.631l-.733-.47c-.902-.588-1.863-.452-2.702.252-.262.218-.461.83-.379 1.16.383 1.557 1.121 1.242.33 3.73-.029.088-.267.374-.335.316z"/><path fill="#000" d="M26.337 46.008c-.553-.626-.578-1.431-.354-2.193.077-.258.577-.49.766-.36.102.073.219.398.223.54l.068 1.232c.005.121-.029.393-.077.626-.034.155-.52.276-.626.155m.612-17.944c-.534-.296-1.922-1-1.47-1.65.082-.117.46-.19.577-.102.868.616 1.325 1.494 2.82 1.092.334-.092 1.246-.228 1.232.068-.049.834-2.067 1.188-3.16.592"/><path fill="#fff" d="M26.75 43.455c-.19-.13-.689.102-.767.36-.223.761-.199 1.567.354 2.193.107.121.593 0 .627-.156.048-.232.082-.504.077-.625l-.068-1.233c-.005-.14-.121-.466-.223-.539m-4.891 2.689c.097-.922 2.27-1.354 3.775-3.887.796-1.35.092-2.431 1.373-3.92.786-.908 1.766-1.563 2.834-2.097l1.664-.835 1.126-.577c.553-.287 1.247-.384 1.883-.485l.941-.15c.2-.035.374-.598.204-.685-.136-.073-.48-.107-.616-.092l-1.223.15c-.15.02-.539-.252-.568-.417-.063-.34.063-1.038.403-1.305.19-.15.728-.277.97-.229l1.675.326c1.3.252 2.518.203 3.765-.277.568-.218 1.47-.446 1.766.233l.262.607c.068.15.447.363.626.393 1.951.286 2.407-.49 3.669-.2.587.132 1.01.563 1.232 1.092.592 1.398 1.849 1.582 3.247 2.694l1.091.873c.684.543 1.315 1.106 1.869 1.776l1.32 1.61c1.547 1.889 1.329 3.96 1.834 6.426.145.718.325 1.562-.408 2.159l-1.713 1.407c-1.281 1.053-2.324.864-3.97 1.47a46 46 0 0 0-3.444 1.432c-1.36.626-2.019 1.276-3.096 2.324-.495.476-.83 1.155-1.044 1.81l-.228.694c-.048.15-.475.3-.626.233-1.44-.675-1.378-1.252-2.824-2.305-.417-.306-1.053-.461-1.562-.437-.747.03-1.32.544-1.451 1.267-.165.883-.034 1.805.262 2.644l.335.951c.422 1.194.014 2.878-1.344 3.378l-.738.271c-1.48.549-1.907 1.233-2.688 1.374a3.7 3.7 0 0 1-2.125-.248 2.21 2.21 0 0 1-1.335-2.436c.121-.698 1.204-.519 2.058-1.839.558-.868.664-2.033-.355-2.518-1.858-.893-2.795 1.004-5.667.32.072-.606.844-1.165 1.271-1.465l1.888-1.325c.703-.495 1.436-.903 2.212-1.29.52-.258.99-.564 1.485-.865l1.33-.805c.606-.364.5-.767.432-.82-.296-.233-.913 0-1.16.17l-1.165.78c-1.674 1.131-2.1.904-3.94 2.374-.242.194-.757.383-1.067.296-1.84-.5-3.082-.747-4.31-2.082-1.043-1.135-1.96-.883-2.634-1.98-.427-.694-.937-1.97-.078-2.542 1.058-.709 2.368-1.427 2.494-2.611zm26.848 1.5c.291-1.68.01-3.223-1.174-4.45-.82-.85-1.504-.879-2.208-2.3-.35-.704-.873-1.325-1.592-1.684-1.96-1-2.848-1.272-5.036-1.466-.141-.01-.432.184-.476.316-.039.106.01.426.121.465 1.505.49 1.427-.271 4.81 1.345 1.756.839 1.237 2.11 2.765 3.1.81.52 1.533 1.194 1.825 2.15.48 1.557.213 3.397-1.35 4.226l-1.674.888c-1.683.893-4.396.088-6.094-.611-.592-.238-1.02-.8-1.204-1.368l-.315-.986c-.073-.213-.393-.538-.64-.703-.2-.131-.714.078-.767.286-.097.413.606.417.864 1.5.13.548.364 1.028.78 1.397.476.408 1.034.79 1.626.96l1.747.5c1.13.32 2.912.442 4.042-.048 1.577-.689 3.63-1.689 3.95-3.518"/><path fill="#98c05c" d="M21.495 33.731c.412 1.34 1.305.748 2.61 2.228.495.567.966 1.067 1.504 1.601.316.315.384.718.2 1.145-.966 2.276.062 2.679-2.15 4.62L22.3 44.523c-.902.791-1.897.413-2.387.767-1.102.796-1.878 1.5-2.475 2.693-.214.427-.107.937.15 1.31.801 1.15.165 2.242 1.364 3.664.747.883 1.5.757 2.814 2.057.636.626 1.344 1.092 2.213 1.364l1.51.475c.475.146-.287.442-.918 1.315-.248.34-.636.461-.99.306l-.825-.374c-2.217-.99-4.833 1.044-6.128 2.713-.379.485-.796 1-1.073 1.543-1.053 2.096-.757 3.13-1.83 4.755-.213.325-.455.752-.504 1.111-.111.82.476 1.64 1.097 2.005.834.485-1.567.509-2.878-1.121a26 26 0 0 1-1.8-2.548c-1.208-1.931-2.669-1.834-4.872-3.31-.703-.47-1.276-1.198-1.756-1.892-.398-.577-.602-1.266-.743-1.94l-.534-2.534c-.12-.572-.334-1.116-.543-1.674a5.67 5.67 0 0 1-.01-3.93l.791-2.155c.456-1.237 1.121-2.363 1.796-3.498.84-1.407 1.577-2.164 2.833-3.208 1.51-1.247 2.33-.766 3.47-1.926l.776-.791c.33-.34.757-.65 1.15-.946l1.267-.951c1.548-1.165 1.77-.942 3.033-1.975l1.164-.956c.418-.345.966-.66 1.47-.893l1.941-.903c.088-.038.374-.14.398-.063z"/><path fill="#000" d="M13.222 68.223c.048-.36.29-.787.504-1.112 1.073-1.625.777-2.659 1.83-4.755.276-.544.694-1.058 1.072-1.543 1.296-1.67 3.911-3.703 6.129-2.713l.825.374c.354.155.742.034.99-.306.63-.873 1.392-1.17.917-1.315l-1.51-.475c-.868-.272-1.577-.738-2.212-1.364-1.315-1.3-2.067-1.174-2.815-2.057-1.198-1.422-.562-2.514-1.363-3.664-.257-.373-.364-.883-.15-1.31.596-1.194 1.373-1.897 2.474-2.693.49-.354 1.485.024 2.387-.767l1.36-1.198c2.212-1.941 1.183-2.344 2.149-4.62.184-.427.116-.83-.2-1.145a29 29 0 0 1-1.503-1.601c-1.306-1.48-2.199-.888-2.611-2.227l-.223-.719c-.024-.077-.31.025-.398.064l-1.941.902c-.505.233-1.053.548-1.47.893l-1.165.956c-1.262 1.033-1.485.81-3.033 1.975l-1.266.95c-.393.297-.82.607-1.15.947l-.777.791c-1.14 1.16-1.96.68-3.47 1.926-1.256 1.044-1.993 1.8-2.833 3.208-.674 1.135-1.34 2.261-1.795 3.498l-.791 2.155a5.68 5.68 0 0 0 .01 3.93c.208.558.422 1.102.543 1.675l.534 2.532c.14.675.344 1.364.742 1.941.48.694 1.053 1.422 1.757 1.893 2.203 1.475 3.663 1.378 4.872 3.31a26 26 0 0 0 1.8 2.547c1.31 1.63 3.712 1.606 2.877 1.12-.62-.363-1.208-1.183-1.096-2.003m34.015 7.138c-.442.12-1.902.17-1.271.363l1.184.37c.534.164 1.101.106 1.616-.069 2.043-.689 2.625-.417 4.896-.965 1.858-.452 2.722-.52 4.488-.942l2.931-.698c.674-.16 1.34-.398 1.97-.685 1.155-.529 1.335-.62 2.11-1.557.496-.597 1.107-1.078 1.845-1.31l1.703-.54a6.5 6.5 0 0 0 1.926-1.013l1.898-1.466c1.004-.776 1.577-1.703 2.659-2.78.437-.437.912-.888 1.257-1.412.431-.665.8-1.407 1.058-2.145l.664-1.883c.15-.431.296-.99.282-1.46-.073-2.32-.607-5.056-2.048-6.886-.461-.582-.951-1.092-1.446-1.635l-1.14-1.247c-.893-.98-1.956-1.762-3.009-2.567l-1.033-.796c-1.073-.825-.883-2.179-2.005-2.717l-1.247-.597c-.577-.272-1.164-.563-1.678-.932l-2.926-2.1c-.714-.51-1.413-1.025-2.184-1.437L57.18 34.89a38 38 0 0 0-2.373-1.164c-.384-.18-.922-.078-1.276.116-.53.291-1 .505-1.553.709l-.776.286c-.16.058-.267.572-.127.703.985.918 1.252.796 2.135 1.684.52.52.98 1.048 1.447 1.606l1.213 1.451c1.053 1.257 1.431 2.98 1.591 4.634.02.204.301 2.834.587 2.62l.19-.135.63-.466.99-.733c.33-.247.879-.432 1.029-.16.145.262-.146.67-.369.83l-.907.636c-.034.024-.03.228.005.218l1.062-.214c.49-.097.951-.097 1.46-.077.302.01.632.567.423.742-.286.243-1.46.03-2.921.432-.563.155-1.228.36-1.694.69-.84.596-1.552 1.222-2.314 1.896-1.558 1.374-2.543 1.073-4.741 1.903-1.34.504-2.625 1.019-3.872 1.727-.582.335-1.048.791-1.606 1.232-1.184.952-1.98 3.179-1.213 2.795 1.892-.94 4.342.719 4.59 2.65l.35 2.756c.053.393.077.825.145 1.194l.257 1.426.398 2.266c.257 1.466.194 3.863-.767 4.998a3.85 3.85 0 0 1-1.936 1.219m-.85-42.663c-1.26-.291-1.717.485-3.668.199-.179-.03-.558-.243-.626-.393l-.262-.607c-.296-.679-1.198-.45-1.766-.233-1.247.48-2.465.53-3.765.277l-1.674-.325c-.243-.049-.782.078-.97.228-.34.267-.467.966-.404 1.305.03.165.418.437.568.418l1.223-.15c.136-.015.48.019.616.091.17.088-.005.65-.204.684l-.94.151c-.637.102-1.33.199-1.884.485l-1.125.578-1.665.834c-1.067.534-2.047 1.19-2.834 2.096-1.28 1.49-.577 2.572-1.373 3.921-1.504 2.533-3.678 2.965-3.775 3.887l-.083.81c-.126 1.184-1.436 1.902-2.494 2.611-.859.573-.35 1.849.078 2.543.674 1.096 1.592.844 2.635 1.98 1.227 1.334 2.47 1.581 4.309 2.081.31.088.825-.102 1.067-.296 1.84-1.47 2.266-1.242 3.94-2.373l1.165-.78c.248-.17.864-.404 1.16-.17.068.053.174.455-.432.82l-1.33.805c-.495.3-.965.606-1.484.864-.777.388-1.51.795-2.213 1.29l-1.888 1.325c-.427.3-1.198.859-1.271 1.465 2.872.685 3.809-1.213 5.668-.32 1.018.485.912 1.65.354 2.519-.854 1.32-1.936 1.14-2.058 1.839a2.21 2.21 0 0 0 1.335 2.436c.65.276 1.397.383 2.125.247.781-.14 1.208-.825 2.688-1.373l.738-.272c1.359-.5 1.766-2.183 1.344-3.377l-.335-.951c-.296-.84-.427-1.762-.262-2.645a1.506 1.506 0 0 1 1.451-1.266c.51-.025 1.145.13 1.563.436 1.446 1.053 1.382 1.63 2.824 2.305.15.068.577-.082.626-.233l.228-.694c.213-.655.548-1.334 1.043-1.81 1.077-1.048 1.737-1.698 3.096-2.324a46 46 0 0 1 3.445-1.431c1.645-.607 2.688-.418 3.97-1.47l1.712-1.408c.733-.597.553-1.44.408-2.16-.505-2.464-.287-4.536-1.834-6.424l-1.32-1.61c-.553-.67-1.184-1.233-1.868-1.777l-1.092-.873c-1.398-1.111-2.655-1.296-3.247-2.693-.223-.53-.645-.961-1.232-1.092m-3.323 41.187c1.592.684 3.824 1.233 5.255-.058.898-.81 1.073-3.018.893-4.1l-.51-3.014-.325-2.169-.417-3.061c-.073-.53-.46-1.082-.868-1.427-1.699-1.441-3.009.184-4.227-.354l-1.397-.617c-.292-.13-.67-.46-.908-.693l-1.164-1.121c-.32-.31-.864-.471-1.374-.471-.96.01-.645 2.106-.247 3.062.699 1.664.66 3.523-.806 4.702-.582.466-1.562.563-3.066 1.538-.35.228-.801.485-1.218.558-1.417.238-3.014-.048-3.907-1.218-.616-.805-1.242-2.737-.092-3.377l.748-.417c.878-.49 1.64-1.742.892-2.097-.97-.456-1.44.15-2.436.355-1.33.271-2.625.33-3.823-.248l-1.427-.684c-.752-.364-1.635-.398-2.407-.024-1.586.757-2.426 1.606-3.464 3.008-.524.709-.878 1.543-1.116 2.388l-.49 1.756c-.131.461-.437.941-.685 1.364l-.402.689c-.131.223.121.727.344.902l1.02.796c.756.597 1.43.883 2.353 1.286l1.751.771c.374.165.84.36 1.247.432l6.41 1.121c1.52.267 2.946.146 4.489-.048 1.388-.18 2.198-1.175 4.624-.874 1.703.214 3.324.418 5.018.723.582.102 1.184.388 1.732.621m.51-71.791c1.873.073 3.513.29 5.046 1.29 1.29.835 3.144 2.422 3.945 3.664l1.325 2.043c.35.539.616 1.213.747 1.849l.51 2.416.529 2.965c.305 1.727 1.174 3.503 2.47 4.683 2.052 1.873 1.78 5.1-.059 6.74-.597.529-1.402.553-1.475 1.324l-.121 1.325c-.185 1.956-1.757 2.334-1.068 2.684l2.776 1.397 2.193 1.17c1.397.747 2.252 1.6 3.605 2.518l1.67 1.13c1.11.748 1.499.719 2.75 1.432 1.258.718 1 2.023 2.117 2.853l1.217.907a21 21 0 0 1 2.854 2.538l1.286 1.383c2.562 2.761 2.863 4.13 3.362 7.895a5.6 5.6 0 0 1-.271 2.548l-.636 1.892c-.126.374-.296.81-.48 1.14l-.617 1.092c-.237.422-.62.845-.98 1.199a37 37 0 0 0-1.834 1.94 13.3 13.3 0 0 1-1.922 1.81l-1.66 1.282c-.543.417-1.256.747-1.911.95l-1.51.471c-1.576.49-1.853 1.65-2.721 2.155-1.956 1.136-2.596 1.247-4.756 1.78-1.145.287-2.26.505-3.416.753l-3.212.694c-.713.155-1.412.286-2.155.359-2.285.223-2.717.985-4.017.611l-1.442-.422c-1.077-.31-.611-.966-1.732-1.412l-1.523-.602a10.7 10.7 0 0 0-2.592-.679l-2.538-.32-1.543-.17c-1.698-.184-2.722.84-4.342.956l-1.956.145c-.704.054-1.47-.01-2.17-.116l-2.915-.446-3.853-.738c-.51-.097-1.029-.35-1.51-.558l-1.47-.63c-.936-.408-1.654-.88-2.295-.801l-.83.097c-1.6.184-3.29-.98-4.095-2.18l-1.456-2.173a4.1 4.1 0 0 0-1.567-1.398L4.72 64.224c-.98-.49-1.844-1.572-2.46-2.499-.456-.684-.723-1.49-.854-2.31a22.5 22.5 0 0 0-.995-3.886c-.577-1.63-.548-3.27.097-4.872l.874-2.193c.606-1.51 2.16-4.387 3.304-5.416l1.262-1.135c1.655-1.485 2.484-.883 3.741-2.242.408-.437.835-.83 1.3-1.18l2.31-1.75c.325-.244.752-.452 1.126-.66.597-.33 1.126-.729 1.664-1.136l1.675-1.272c.271-.208.776-.373 1.11-.524l2.107-.96c.349-.156.601-.316 1.043-.578-.781-1.019-1.237-.956-2-2.28-.402-.704-.509-1.728.02-2.422l.466-.607c.121-.16.024-.645-.15-.752-1.296-.795-1.383-.519-2.698-1.155-1.529-.737-1.442-2.887-.777-4.163.33-.636.733-1.189 1.13-1.78l1.568-2.35c.704-1.057.587-2.401.083-3.522-.224-.5-.418-1.063-.461-1.597-.175-2.338 1.237-4.575 3.14-5.72 2.75-1.65 4.638-.588 8.132-1.175 1.227-.209 1.227-1.397 3.047-2.848.296-.238.626-.51.946-.694.864-.5 1.893-.616 2.883-.51 1.276.136 1.785.379 2.775 1.107.466.344.869.694 1.291 1.11.767.763 1.34-.193 2.155-.16m3.382 27.528-.85 1.93c-.019.05.059.234.117.253l1.053.403c.936.354 1.048 1.349 1.47 1.81.35.383 1.116 1.106 1.558.597.762-.883 1.189-.592 2.203-1.107l1.33-.674c.664-.335 1.28-.956 1.581-1.65.253-.582.316-1.266.33-1.912l.025-1.092c.004-.155.276-.446.422-.475l.611-.126c1.252-.267 2.28-2.524 1.766-4.324-.412-1.446-1.63-1.858-2.426-3.275-.834-1.495-1.087-2.096-1.368-3.751l-.476-2.747-.475-2.32c-.107-.499-.325-1.081-.602-1.503l-1.383-2.126c-1.14-1.747-3.741-3.828-5.876-4.338-1.3-.305-2.548-.378-3.693.238-.854.466-1.15-.315-1.684-.82a10 10 0 0 0-1.683-1.271c-1.427-.85-3.616-.68-4.95.596a13.7 13.7 0 0 0-1.63 1.878c-2.058 2.84-7.216-.334-10.491 2.863-.379.37-.684.825-.99 1.262-.723 1.048-1.024 2.344-.631 3.586.107.344.233.684.369 1.033.703 1.844.364 3.096-.66 4.61l-1.587 2.334c-.223.34-.451.67-.65 1.039-.48.893-.684 2.625.33 3.125 1.46.713 1.756.378 2.741 1.16l.457.358c.068.059.305-.228.334-.315.791-2.49.054-2.174-.33-3.731-.082-.33.117-.942.379-1.16.84-.704 1.8-.84 2.703-.253l.732.471c.888.578 1.388-.33 2.378-.63a1.12 1.12 0 0 1 1.383.679 3.6 3.6 0 0 1 .184.941l.03.835c.053 1.44 3.406.64 4.318.378a3.82 3.82 0 0 1 2.543.155c1.116.471.922 2.063.52 2.873-.297.597-.646 1.077-1.054 1.62-.247.33-.563.913-.213 1.165.315.233.99-.18 1.164-.373 1.204-1.34 2.295-4.3 3.95-4.945 1.703-.66 3.159-.747 4.77.121.728.393 1.349.976 1.689 1.747.655 1.51.946 3.295.262 4.858m-.709-.554c.461-1.16.18-2.504-.218-3.702-.582-1.737-2.936-2.509-4.79-1.965-.504.145-1.086.427-1.426.825-.442.519-.878 1.038-1.208 1.591l-1.16 1.936c-.568.942-1.611 1.67-2.785 1.257-.709-.247-.806-1.402-.156-2.285l.908-1.228c.247-.34.403-.922.441-1.383.03-.408-.32-.84-.708-.917-2.067-.412-1.864.776-5.809.364-.572-.058-1.072-.592-1.115-1.136l-.083-1.082a6 6 0 0 0-.131-.747c-.03-.14-.451-.262-.568-.18l-.694.476c-.63.437-1.373.495-2.033.082l-.888-.558c-.286-.174-.8-.242-1.184-.155-.306.068-.636.597-.524.835l.296.645c.17.374.388.85.384 1.272-.02 1.47-.573 2.78-1.63 3.75-.588.544-.802 1.315-.418 2.082.805 1.62 2.814 2.077 1.955 3.32a8 8 0 0 0-.369.562c-.33.587.025 1.155.568 1.402 1.456.656 1.645 1.165 2.752 2.373l.64.699c.136.146.602.107.747-.02l.86-.756c.455-.403 1.072-.7 1.625-.97l1.703-.826.878-.412c.146-.068.403-.388.393-.539l-.038-.63c-.04-.612.106-1.243.504-1.752.461-.587 1.538-.558 2.232-.422l1.68.32c2.212.422 2.848-.777 4.842-.553.927.106.636 1.038 1.349 1.543 1.392 0 2.179-.587 2.615-1.684z"/></svg>