<svg width="87" height="84" viewBox="0 0 87 84" fill="none" xmlns="http://www.w3.org/2000/svg">
<path d="M41.4834 1.75L41.7529 1.83984C42.727 2.16381 43.5266 2.51486 44.2881 3C44.7983 3.32503 45.262 3.69242 45.7285 4.10938C46.29 4.01246 46.8978 3.93148 47.5469 3.9209C50.6809 3.86984 53.5525 5.41051 55.708 7.47559C57.8666 9.54367 59.4917 12.306 60.0557 15.0586L60.207 15.8486C60.3533 16.6543 60.485 17.4911 60.6143 18.1992C60.7973 19.2019 61.0017 20.1182 61.3008 20.959L61.3682 21.1289C61.7206 21.9589 62.3025 22.5074 63.1777 23.6182C64.0493 24.7243 64.9718 26.2008 64.7578 28.3857C64.6275 29.7151 64.2723 30.7833 63.5273 31.7012C63.0479 32.2918 62.4469 32.7581 61.835 33.1748C61.7879 33.817 61.713 34.4147 61.5283 34.9941C61.4402 35.2704 61.329 35.5308 61.2012 35.7871C61.5197 35.9479 61.8457 36.1127 62.1807 36.2783C62.8621 36.6153 63.5788 36.9698 64.2734 37.3486L64.959 37.7363L65.2832 37.9326C66.041 38.4056 66.8008 38.9694 67.4932 39.4814C68.3194 40.0925 69.063 40.6398 69.7686 41.0605H69.7676C70.7724 41.6597 72.0292 42.3587 73.1055 43.0254C73.5539 43.3032 73.8657 43.673 74.0703 43.957C74.2806 44.249 74.4538 44.5589 74.583 44.7979C74.7326 45.0745 74.8149 45.2385 74.915 45.4092C74.9657 45.4955 74.9974 45.5402 75.0098 45.5576L74.9912 45.542C75.2991 45.8373 75.6876 46.1457 76.1572 46.5098C76.5974 46.8511 77.1254 47.2531 77.583 47.6641C79.9025 49.7471 82.9133 52.4756 83.9238 56.2373L84.085 56.8926C84.8157 60.1803 84.4397 63.6304 82.6064 66.6631C81.7044 68.1554 80.3038 69.7817 78.8184 71.2129C77.3309 72.6461 75.6573 73.9801 74.1543 74.8408C73.5782 75.1707 72.7476 75.4113 72.251 75.5654C71.7527 75.7201 71.4243 75.832 71.2236 75.9199L71.0635 76.001C70.5695 76.3052 70.1471 76.7554 69.4736 77.4082C68.7308 78.1284 67.6347 78.6154 66.7705 78.9365C65.8419 79.2816 64.8874 79.5379 64.2217 79.6992L64.2148 79.7012C60.8487 80.5021 57.4195 81.2764 53.9268 81.8057C53.6034 81.8547 53.2878 81.9349 52.7686 82.0449C52.3172 82.1405 51.7306 82.2527 51.1348 82.2588C49.6512 82.2737 48.4738 81.575 47.6631 81.0371C46.7061 80.4022 46.2565 80.0213 45.6875 79.8027C43.2783 78.8775 39.8417 78.4027 37.5195 78.9443C33.4931 80.2482 30.734 79.6719 27.1152 79.0371C25.8155 78.8092 24.2076 78.5875 22.6719 78.0811C21.9561 77.8451 21.219 77.4789 20.6445 77.2012C20.005 76.892 19.5348 76.6758 19.1484 76.5664C18.6955 76.4383 18.3381 76.4637 17.4951 76.4346C16.7149 76.4076 15.6958 76.3138 14.6084 75.6797C13.3313 74.9348 12.5336 73.7987 11.9648 72.9346C11.3167 71.9499 10.9769 71.3654 10.5098 70.9502C10.043 70.5353 9.38546 70.2295 8.33594 69.6982C7.41575 69.2324 6.19571 68.5866 5.29102 67.5146V67.5137C4.39371 66.4505 3.6645 65.4409 3.29102 63.7725C2.84946 61.7999 2.51253 60.006 1.87012 58.3662L1.75 58.0586V55.1797L1.95996 54.791C2.64433 53.5212 3.02135 52.186 3.70508 50.4277C4.34508 48.7819 5.19981 46.9649 6.75781 45.4131C8.60455 43.5738 9.75179 43.1947 11.4658 42.2246C11.9692 41.8328 12.4586 41.4148 12.9893 40.9609C13.5399 40.49 14.1349 39.9838 14.7705 39.5059C17.4468 37.4938 19.8559 36.0246 22.6074 34.6191C22.2354 34.175 21.8862 33.6562 21.6777 33.0371C21.3372 32.0255 21.4603 31.051 21.8311 30.0947C21.374 29.9156 20.7989 29.687 20.1758 29.3184C19.2549 28.7736 18.6019 27.984 18.3359 26.8408C17.9019 24.974 18.5186 23.3913 19.2305 22.1738C19.5834 21.5703 19.9912 21.0035 20.3496 20.5107C20.7259 19.9933 21.0417 19.5649 21.3057 19.1416C21.7411 18.4432 21.7731 18.0567 21.7432 17.7031C21.7233 17.4688 21.6684 17.1969 21.5674 16.8008C21.4765 16.4444 21.3289 15.9178 21.207 15.3838C20.8161 13.6712 21.0164 11.5782 22.1318 9.95703L22.4736 9.48438C23.2813 8.42288 24.1602 7.64785 25.1279 7.10742C26.23 6.49204 27.3442 6.23824 28.3984 6.12402C29.4015 6.01536 30.4878 6.02593 31.3906 6.00391C32.1511 5.98535 32.8794 5.94352 33.6123 5.82422C34.199 5.10593 34.7649 4.40661 35.3896 3.82031C36.2275 3.03411 37.1765 2.42787 38.5449 1.87695L38.8594 1.75H41.4834Z" fill="white" stroke="white" stroke-width="3.5"/>
<path d="M52.2327 64.9667C51.9852 63.0355 49.5347 61.3759 47.6423 62.3173C46.8756 62.7006 47.6714 60.4734 48.8554 59.5223C49.4134 59.0807 49.8793 58.6246 50.4616 58.2898C51.7086 57.5813 52.9945 57.067 54.3338 56.5623C56.5319 55.7326 57.517 56.0334 59.0746 54.6602C59.8364 53.9857 60.5497 53.3597 61.3892 52.7629C61.855 52.4329 62.5198 52.2291 63.0827 52.0738C64.5433 51.6711 65.7176 51.8846 66.0039 51.642C66.2125 51.4673 65.8825 50.9093 65.5817 50.8995C65.0722 50.8801 64.6112 50.8801 64.1211 50.9772L63.0584 51.1907C63.0245 51.2004 63.0196 50.9966 63.0536 50.9723L63.961 50.3367C64.1842 50.1765 64.4754 49.7689 64.3298 49.5069C64.1794 49.2352 63.631 49.4196 63.3011 49.667L62.3112 50.3998L61.6804 50.8656L61.4911 51.0014C61.2048 51.215 60.9234 48.5849 60.904 48.3811C60.7438 46.7265 60.3653 45.0039 59.3124 43.7471L58.0993 42.2962C57.6334 41.7382 57.1725 41.2093 56.6532 40.6901C55.7701 39.8021 55.5032 39.9234 54.5182 39.0063C54.3775 38.8752 54.4842 38.3609 54.6443 38.3027L55.4207 38.0164C55.9739 37.8126 56.4446 37.5991 56.9735 37.3079C57.3277 37.1138 57.8664 37.0119 58.2497 37.1915C59.0892 37.5699 59.8316 37.9339 60.6225 38.356L63.1798 39.7196C63.9513 40.132 64.65 40.6464 65.3633 41.1559L68.2894 43.257C68.8037 43.6258 69.3909 43.9169 69.9683 44.1887L71.2154 44.7855C72.3363 45.3241 72.147 46.6779 73.2194 47.5029L74.253 48.2987C75.3059 49.1042 76.3686 49.8854 77.2615 50.8656L78.4018 52.1127C78.8967 52.6561 79.3868 53.1656 79.8478 53.7479C81.289 55.5773 81.8227 58.314 81.8955 60.6335C81.9101 61.1042 81.7645 61.6622 81.6141 62.0941L80.9493 63.9768C80.6921 64.7144 80.3234 65.4568 79.8915 66.1216C79.547 66.6457 79.0714 67.0969 78.6347 67.5336C77.5526 68.6109 76.98 69.5377 75.9756 70.3141L74.0783 71.7795C73.5106 72.2162 72.8312 72.5753 72.1519 72.7937L70.4487 73.3323C69.7111 73.5652 69.0997 74.0456 68.6048 74.6424C67.8284 75.579 67.6488 75.6712 66.494 76.2001C65.8631 76.4864 65.1984 76.7241 64.5239 76.8843L61.593 77.583C59.8267 78.0052 58.963 78.0731 57.1045 78.5244C54.8336 79.0727 54.2513 78.801 52.2084 79.49C51.6941 79.6647 51.1263 79.7229 50.5926 79.5579L49.4086 79.1892C48.7778 78.9951 50.2383 78.9465 50.6799 78.8252C51.4369 78.6166 52.1211 78.1993 52.616 77.6073C53.5768 76.4718 53.6399 74.0747 53.3827 72.6093L52.9848 70.3432L52.7276 68.9166C52.6597 68.5478 52.6354 68.1159 52.5821 67.7229L52.2327 64.9667Z" fill="#98C05C"/>
<path d="M52.6548 73.192C52.8343 74.2741 52.6596 76.4819 51.7619 77.2923C50.3305 78.583 48.0984 78.0347 46.5068 77.3505C45.9585 77.1176 45.3568 76.8313 44.7745 76.7294C43.081 76.4237 41.4603 76.2199 39.7571 76.0064C37.3308 75.7055 36.5205 76.7003 35.1327 76.8798C33.5896 77.0739 32.163 77.1952 30.6442 76.9283L24.2342 75.8074C23.8266 75.7347 23.3607 75.5406 22.9871 75.3756L21.2354 74.604C20.3134 74.2013 19.6389 73.915 18.8819 73.3182L17.8629 72.5224C17.6397 72.3477 17.3874 71.843 17.5184 71.6198L17.9212 70.9308C18.1686 70.5086 18.4743 70.0282 18.6054 69.5672L19.0954 67.8107C19.3332 66.9663 19.6874 66.1317 20.2115 65.4233C21.2499 64.0209 22.0894 63.1717 23.6761 62.4148C24.4477 62.0411 25.3308 62.0751 26.0829 62.439L27.5095 63.1232C28.7081 63.7007 30.0037 63.6424 31.3333 63.3707C32.328 63.1669 32.7987 62.5603 33.7692 63.0165C34.5164 63.3707 33.7546 64.6226 32.8763 65.1127L32.1291 65.53C30.979 66.1705 31.605 68.1018 32.2212 68.9073C33.1141 70.0767 34.7105 70.363 36.1274 70.1253C36.5448 70.0525 36.996 69.7953 37.3454 69.5672C38.8497 68.5919 39.8298 68.4948 40.4121 68.029C41.8776 66.8499 41.9164 64.9914 41.2176 63.327C40.8197 62.3711 40.5043 60.2748 41.4651 60.2651C41.9746 60.2651 42.5181 60.4253 42.8383 60.7358L44.0029 61.8567C44.2407 62.0896 44.6192 62.4196 44.9103 62.5506L46.3078 63.1669C47.5258 63.7055 48.8359 62.0799 50.5343 63.5211C50.9419 63.8656 51.3301 64.4188 51.4029 64.9477L51.8202 68.0096L52.1453 70.1786L52.6548 73.192Z" fill="#FEE6DC"/>
<path d="M45.6918 32.0581L45.5365 33.2324C45.522 33.3391 45.3424 33.5575 45.2454 33.606C44.7262 33.8535 44.4205 32.3298 45.0464 31.4273C45.2454 31.1458 46.0169 30.7334 45.7064 30.5781C45.1629 30.2967 44.4496 30.2967 44.3719 29.9424C44.3477 29.8357 44.4205 29.5979 44.4933 29.496C44.8717 28.9817 46.1868 29.8308 46.6235 30.253C47.1184 30.7334 47.4532 31.864 46.8806 31.8203L46.0509 31.7572C45.9732 31.7524 45.7064 31.9659 45.6918 32.0581Z" fill="black"/>
<path d="M45.2455 33.606C45.3426 33.5575 45.5221 33.3391 45.5367 33.2324L45.6919 32.0581C45.7065 31.9659 45.9734 31.7524 46.051 31.7572L46.8808 31.8203C47.4534 31.864 47.1185 30.7334 46.6236 30.253C46.1869 29.8308 44.8719 28.9817 44.4934 29.496C44.4206 29.5979 44.3478 29.8357 44.3721 29.9424C44.4497 30.2967 45.163 30.2967 45.7065 30.5781C46.017 30.7334 45.2455 31.1458 45.0466 31.4273C44.4206 32.3298 44.7263 33.8535 45.2455 33.606ZM30.1884 24.3573L30.8823 23.8818C30.9988 23.7993 31.421 23.9206 31.4501 24.0613C31.4986 24.27 31.5714 24.6387 31.5811 24.8086L31.6636 25.8907C31.7073 26.4341 32.2071 26.9679 32.7796 27.0261C36.7247 27.4386 36.5209 26.2497 38.588 26.6622C38.9762 26.7398 39.3256 27.1717 39.2964 27.5793C39.2576 28.0403 39.1023 28.6226 38.8549 28.9622L37.9475 30.1899C37.2972 31.073 37.3943 32.2279 38.1027 32.4754C39.277 32.8879 40.3203 32.16 40.888 31.2186L42.0478 29.2825C42.3777 28.7293 42.8144 28.2101 43.256 27.6909C43.5957 27.293 44.178 27.0116 44.6826 26.866C46.5363 26.3225 48.8897 27.0941 49.472 28.8312C49.8699 30.0298 50.1513 31.3739 49.6903 32.5336L49.1274 33.9651C48.6907 35.0617 47.9046 35.6489 46.512 35.6489C45.7987 35.1442 46.0898 34.2126 45.163 34.1058C43.1687 33.8826 42.533 35.0811 40.3203 34.659L38.6414 34.3387C37.9475 34.2029 36.8702 34.1737 36.4093 34.7609C36.0114 35.2704 35.8658 35.9012 35.9046 36.5126L35.9434 37.1434C35.9531 37.2939 35.6959 37.6141 35.5504 37.682L34.6721 38.0945L32.9689 38.9194C32.4157 39.1911 31.7995 39.4871 31.3433 39.8899L30.4844 40.6469C30.3389 40.773 29.873 40.8119 29.7372 40.6663L29.0967 39.9675C27.9903 38.7593 27.8011 38.2498 26.3453 37.5947C25.8019 37.3472 25.4476 36.7795 25.7776 36.1924C25.8746 36.0274 25.996 35.843 26.1464 35.6295C27.0053 34.3873 24.9964 33.9311 24.1909 32.3104C23.8075 31.5437 24.021 30.7722 24.6082 30.2287C25.666 29.2582 26.2192 27.9481 26.2386 26.4778C26.2434 26.0556 26.0251 25.5801 25.8552 25.2065L25.5592 24.5611C25.4476 24.3233 25.7776 23.7944 26.0833 23.7265C26.4666 23.6391 26.981 23.7071 27.2673 23.8818L28.1553 24.4398C28.8152 24.8522 29.5576 24.794 30.1884 24.3573ZM33.5512 30.9372C33.5657 30.6412 32.6535 30.7771 32.3187 30.8692C30.8241 31.272 30.368 30.3937 29.4994 29.7775C29.3829 29.6901 29.0045 29.7629 28.922 29.8794C28.4707 30.5296 29.8585 31.2332 30.3923 31.5292C31.484 32.126 33.5027 31.7718 33.5512 30.9372Z" fill="#FEE6DC"/>
<path d="M52.1513 51.1088C51.831 52.9381 49.7784 53.9377 48.2014 54.6268C47.0708 55.1169 45.29 54.9955 44.1593 54.6753L42.4125 54.1755C41.8205 54.0057 41.2624 53.6223 40.7869 53.2147C40.3696 52.8459 40.1367 52.3655 40.0057 51.8172C39.7485 50.7351 39.0449 50.7303 39.1419 50.3178C39.1953 50.1092 39.7097 49.9005 39.9086 50.0315C40.1561 50.1965 40.4764 50.5216 40.5491 50.7351L40.8645 51.7202C41.0489 52.2879 41.4759 52.8508 42.0679 53.0885C43.7663 53.7873 46.4788 54.5928 48.1626 53.7L49.8367 52.812C51.3991 51.9822 51.666 50.1431 51.1856 48.5855C50.8945 47.6296 50.1715 46.9551 49.3611 46.4359C47.8326 45.446 48.3518 44.1747 46.5953 43.3352C43.2131 41.7193 43.2908 42.4812 41.7865 41.9911C41.6749 41.9522 41.6264 41.632 41.6652 41.5252C41.7089 41.3942 42 41.2001 42.1407 41.2098C44.3292 41.4039 45.2172 41.6757 47.1775 42.6753C47.8957 43.0343 48.4198 43.6554 48.7691 44.359C49.4727 45.7808 50.1569 45.8099 50.977 46.6591C52.161 47.8868 52.4424 49.4298 52.1513 51.1088Z" fill="black"/>
<path d="M24.2005 28.2925C23.2154 27.5113 22.9194 27.8461 21.4589 27.1328C20.4447 26.633 20.6485 24.9007 21.1289 24.0078C21.3279 23.639 21.5559 23.3091 21.7791 22.9694L23.3659 20.6354C24.3897 19.1214 24.7294 17.8695 24.0258 16.0256C23.8899 15.6762 23.7638 15.3366 23.657 14.992C23.264 13.7498 23.5648 12.4542 24.2878 11.4061C24.5935 10.9694 24.8992 10.5133 25.2777 10.1445C28.5531 6.94672 33.7112 10.1202 35.7687 7.28154C36.2685 6.5925 36.7877 5.9908 37.3991 5.40365C38.7335 4.12747 40.9219 3.95763 42.3485 4.80681C42.9551 5.17074 43.5228 5.6026 44.0323 6.07814C44.5661 6.58279 44.8621 7.36403 45.7161 6.8982C46.8613 6.28194 48.1084 6.35473 49.4088 6.66043C51.5439 7.16993 54.1448 9.25162 55.2851 10.9985L56.668 13.1239C56.9446 13.546 57.163 14.1283 57.2697 14.6281L57.7453 16.9476L58.2208 19.694C58.5022 21.3487 58.7546 21.9504 59.5892 23.445C60.385 24.8619 61.6029 25.2743 62.0154 26.7203C62.5298 28.5206 61.501 30.777 60.2491 31.0438L59.6377 31.17C59.4921 31.1991 59.2204 31.4903 59.2156 31.6455L59.1913 32.7373C59.1767 33.3827 59.1136 34.0669 58.8613 34.6492C58.5605 35.3431 57.9442 35.9642 57.2794 36.299L55.9499 36.9735C54.9357 37.4879 54.5087 37.1967 53.7469 38.0799C53.3053 38.5894 52.5386 37.8663 52.1892 37.483C51.7671 37.022 51.6555 36.0273 50.719 35.6731L49.666 35.2703C49.6078 35.2509 49.5301 35.0665 49.5495 35.018L50.3987 33.0867C51.0829 31.5242 50.7918 29.7385 50.1367 28.2294C49.797 27.4579 49.1759 26.8756 48.448 26.4826C46.837 25.614 45.3813 25.7013 43.6781 26.3613C42.0234 27.0066 40.9316 29.9666 39.7282 31.3059C39.5535 31.5 38.8791 31.9124 38.5636 31.6795C38.2143 31.4272 38.5297 30.8449 38.7772 30.5149C39.1848 29.9715 39.5341 29.4911 39.8301 28.8942C40.2329 28.0839 40.427 26.4923 39.3109 26.0216C38.5006 25.6771 37.6126 25.6285 36.7683 25.8663C35.856 26.1283 32.503 26.929 32.4496 25.4878L32.4205 24.6532C32.4108 24.3815 32.3331 23.9836 32.2361 23.7118C32.0323 23.1538 31.4257 22.8578 30.8532 23.0325C29.8633 23.3333 29.3635 24.2408 28.4755 23.6633L27.7428 23.1926C26.8402 22.6055 25.8794 22.7414 25.04 23.445C24.7779 23.6633 24.579 24.2747 24.6615 24.6047C25.0448 26.1623 25.7824 25.8469 24.9914 28.3362C24.9623 28.4235 24.7245 28.7098 24.6566 28.6516L24.2005 28.2925Z" fill="#7F5B4E"/>
<path d="M29.78 49.4733C29.2269 48.8474 29.2026 48.0419 29.4258 47.28C29.5035 47.0229 30.0033 46.7899 30.1925 46.921C30.2944 46.9937 30.4109 47.3189 30.4157 47.4596L30.4836 48.6921C30.4885 48.8134 30.4545 49.0851 30.406 49.3181C30.372 49.4733 29.8868 49.5946 29.78 49.4733Z" fill="black"/>
<path d="M30.3921 31.529C29.8584 31.233 28.4706 30.5294 28.9219 29.8792C29.0043 29.7627 29.3828 29.69 29.4993 29.7773C30.3679 30.3936 30.824 31.2719 32.3186 30.8691C32.6534 30.7769 33.5656 30.641 33.5511 30.937C33.5025 31.7717 31.4839 32.1259 30.3921 31.529Z" fill="black"/>
<path d="M30.1934 46.9207C30.0041 46.7897 29.5043 47.0226 29.4267 47.2798C29.2035 48.0417 29.2277 48.8472 29.7809 49.4731C29.8877 49.5944 30.3729 49.4731 30.4069 49.3178C30.4554 49.0849 30.4894 48.8132 30.4845 48.6919L30.4166 47.4594C30.4117 47.3186 30.2953 46.9935 30.1934 46.9207ZM25.3021 49.609C25.3992 48.687 27.5731 48.2552 29.0773 45.7222C29.8731 44.3732 29.1695 43.2911 30.4505 41.8014C31.2366 40.894 32.2168 40.239 33.2844 39.7052L34.9487 38.8706L36.0745 38.2931C36.6277 38.0068 37.3216 37.9098 37.9572 37.8079L38.8986 37.6575C39.0976 37.6235 39.2722 37.0606 39.1024 36.9733C38.9665 36.9005 38.622 36.8665 38.4862 36.8811L37.2633 37.0315C37.1129 37.0509 36.7247 36.7792 36.6956 36.6142C36.6325 36.2745 36.7587 35.5758 37.0984 35.3089C37.2876 35.1585 37.8262 35.0323 38.0688 35.0808L39.7429 35.4059C41.0434 35.6583 42.2613 35.6098 43.5084 35.1294C44.0761 34.911 44.9787 34.6829 45.2747 35.3623L45.5367 35.9688C45.6047 36.1193 45.9831 36.3328 46.1627 36.3619C48.1134 36.6482 48.5695 35.8718 49.8311 36.1629C50.4183 36.2939 50.8404 36.7258 51.0636 37.2547C51.6556 38.6522 52.9124 38.8366 54.3099 39.9478L55.4017 40.8212C56.0859 41.3647 56.7167 41.9276 57.2699 42.5972L58.5897 44.2082C60.1377 46.0958 59.9193 48.1678 60.4239 50.6328C60.5695 51.351 60.7491 52.1953 60.0163 52.7922L58.3034 54.1994C57.0224 55.2523 55.9791 55.0631 54.3342 55.6697C53.1405 56.1064 52.039 56.5722 50.8889 57.1011C49.5303 57.7271 48.8703 58.3773 47.7931 59.4254C47.2981 59.901 46.9633 60.5803 46.7498 61.2354L46.5218 61.9293C46.4732 62.0797 46.0462 62.2301 45.8958 62.1622C44.4546 61.4877 44.5177 60.9103 43.0717 59.8573C42.6544 59.5516 42.0187 59.3963 41.5092 59.4206C40.7619 59.4497 40.1893 59.9641 40.0583 60.6871C39.8934 61.5702 40.0244 62.4922 40.3204 63.3316L40.6552 64.2827C41.0773 65.4764 40.6697 67.1602 39.3111 67.66L38.5735 67.9317C37.0935 68.4801 36.6665 69.1642 35.8853 69.305C35.1574 69.4408 34.4101 69.3341 33.7599 69.0575C32.7991 68.6547 32.2459 67.6697 32.4255 66.6216C32.5468 65.9228 33.6289 66.1024 34.4829 64.7825C35.0409 63.9139 35.1477 62.7493 34.1287 62.2641C32.2702 61.3713 31.3337 63.2685 28.461 62.5844C28.5338 61.9778 29.3054 61.4198 29.7324 61.1189L31.62 59.7942C32.3236 59.2993 33.0563 58.8917 33.8327 58.5035C34.3519 58.2463 34.8226 57.9406 35.3175 57.6397L36.6471 56.8342C37.2536 56.4703 37.1469 56.0676 37.0789 56.0142C36.7829 55.7813 36.1667 56.0142 35.9192 56.184L34.7546 56.9653C33.0806 58.0959 32.6535 57.8678 30.8145 59.3381C30.5719 59.5322 30.0575 59.7214 29.7469 59.6341C27.9079 59.1343 26.6657 58.8868 25.438 57.5524C24.3947 56.4169 23.4776 56.6693 22.8031 55.5726C22.3761 54.8787 21.8666 53.6025 22.7255 53.0299C23.7833 52.3215 25.0935 51.6033 25.2196 50.4193L25.3021 49.609ZM52.1506 51.1084C52.4417 49.4294 52.1603 47.8864 50.9763 46.6587C50.1562 45.8095 49.472 45.7804 48.7684 44.3587C48.4191 43.6551 47.895 43.034 47.1768 42.6749C45.2165 41.6753 44.3285 41.4035 42.14 41.2094C41.9993 41.1997 41.7082 41.3938 41.6645 41.5249C41.6257 41.6316 41.6742 41.9519 41.7858 41.9907C43.29 42.4808 43.2124 41.7189 46.5945 43.3348C48.3511 44.1743 47.8319 45.4456 49.3604 46.4355C50.1708 46.9547 50.8938 47.6292 51.1849 48.5851C51.6653 50.1427 51.3984 51.9818 49.836 52.8116L48.1619 53.6996C46.4781 54.5924 43.7656 53.7869 42.0672 53.0882C41.4752 52.8504 41.0482 52.2875 40.8638 51.7198L40.5484 50.7347C40.4756 50.5212 40.1554 50.1961 39.9079 50.0311C39.709 49.9001 39.1946 50.1088 39.1412 50.3174C39.0442 50.7299 39.7478 50.7347 40.005 51.8168C40.136 52.3652 40.3689 52.8455 40.7862 53.2143C41.2617 53.6219 41.8198 54.0053 42.4118 54.1751L44.1586 54.6749C45.2892 54.9952 47.0701 55.1165 48.2007 54.6264C49.7777 53.9373 51.8303 52.9377 52.1506 51.1084Z" fill="white"/>
<path d="M24.9379 37.1968C25.3503 38.536 26.2432 37.944 27.5485 39.424C28.0434 39.9918 28.5141 40.4916 29.0527 41.0253C29.3681 41.3407 29.4361 41.7435 29.2517 42.1705C28.286 44.4463 29.3148 44.849 27.1021 46.79L25.7434 47.9886C24.8408 48.7795 23.8461 48.401 23.356 48.7552C22.2545 49.551 21.4781 50.2546 20.8812 51.4483C20.6677 51.8753 20.7745 52.3848 21.0317 52.7585C21.8323 53.9085 21.1967 55.0003 22.3952 56.4221C23.1425 57.3052 23.8946 57.179 25.2096 58.4795C25.8453 59.1054 26.5537 59.5713 27.4223 59.843L28.9314 60.3186C29.407 60.4641 28.6451 60.7601 28.0143 61.6336C27.7668 61.9732 27.3786 62.0945 27.0244 61.9393L26.1995 61.5656C23.9819 60.5757 21.3665 62.6089 20.0709 64.2781C19.6924 64.7634 19.2751 65.2777 18.9985 65.8212C17.9455 67.9174 18.2415 68.951 17.1691 70.5766C16.9556 70.9017 16.713 71.3287 16.6645 71.6878C16.5529 72.5078 17.14 73.3279 17.7611 73.6918C18.5958 74.1771 16.1938 74.2013 14.8837 72.5709C14.214 71.7363 13.6414 70.9211 13.0834 70.0234C11.8752 68.0921 10.4146 68.1892 8.21158 66.714C7.50798 66.2434 6.93539 65.5155 6.455 64.8216C6.0571 64.2442 5.8533 63.5551 5.71258 62.8806L5.17882 60.3477C5.05751 59.7751 4.844 59.2316 4.63535 58.6736C4.15981 57.412 4.16466 55.9902 4.62564 54.7431L5.41659 52.5886C5.87271 51.3513 6.53749 50.2255 7.21198 49.0901C8.05145 47.6828 8.78902 46.9259 10.0458 45.8826C11.5549 44.6355 12.375 45.1159 13.5153 43.9562L14.2917 43.1652C14.6216 42.8256 15.0486 42.515 15.4417 42.219L16.7082 41.268C18.2561 40.1034 18.4793 40.3266 19.7409 39.293L20.9055 38.3371C21.3228 37.9926 21.8711 37.6772 22.3758 37.4442L24.3168 36.5417C24.4041 36.5029 24.6904 36.401 24.7147 36.4786L24.9379 37.1968Z" fill="#98C05C"/>
<path d="M16.665 71.6879C16.7135 71.3288 16.9561 70.9018 17.1697 70.5767C18.242 68.9511 17.946 67.9176 18.999 65.8213C19.2756 65.2778 19.6929 64.7635 20.0714 64.2782C21.367 62.609 23.9825 60.5758 26.2 61.5657L27.0249 61.9394C27.3791 62.0947 27.7673 61.9733 28.0148 61.6337C28.6456 60.7602 29.4075 60.4642 28.9319 60.3187L27.4228 59.8431C26.5542 59.5714 25.8458 59.1056 25.2101 58.4796C23.8951 57.1792 23.143 57.3053 22.3957 56.4222C21.1972 55.0004 21.8328 53.9086 21.0322 52.7586C20.775 52.385 20.6682 51.8755 20.8818 51.4484C21.4786 50.2547 22.255 49.5511 23.3565 48.7553C23.8466 48.4011 24.8413 48.7796 25.7439 47.9887L27.1026 46.7901C29.3153 44.8492 28.2865 44.4464 29.2522 42.1706C29.4366 41.7436 29.3686 41.3409 29.0532 41.0254C28.5146 40.4917 28.0439 39.9919 27.549 39.4241C26.2437 37.9442 25.3508 38.5362 24.9384 37.1969L24.7152 36.4787C24.6909 36.4011 24.4046 36.503 24.3173 36.5418L22.3763 37.4444C21.8716 37.6773 21.3233 37.9927 20.906 38.3372L19.7414 39.2931C18.4798 40.3267 18.2566 40.1035 16.7087 41.2681L15.4422 42.2191C15.0491 42.5151 14.6221 42.8257 14.2922 43.1654L13.5158 43.9563C12.3755 45.116 11.5554 44.6356 10.0463 45.8827C8.78952 46.926 8.05195 47.683 7.21248 49.0902C6.538 50.2256 5.87322 51.3514 5.41709 52.5888L4.62614 54.7432C4.16516 55.9903 4.16031 57.4121 4.63585 58.6737C4.8445 59.2317 5.05801 59.7752 5.17932 60.3478L5.71309 62.8807C5.85381 63.5552 6.05761 64.2443 6.45551 64.8217C6.9359 65.5156 7.50848 66.2435 8.21208 66.7142C10.4151 68.1893 11.8757 68.0922 13.0839 70.0235C13.6419 70.9212 14.2145 71.7364 14.8842 72.571C16.1943 74.2014 18.5963 74.1772 17.7616 73.6919C17.1405 73.328 16.5534 72.508 16.665 71.6879ZM50.6805 78.8258C50.2389 78.9471 48.7783 78.9956 49.4091 79.1897L50.5931 79.5585C51.1269 79.7235 51.6946 79.6653 52.209 79.4906C54.2518 78.8015 54.8341 79.0733 57.1051 78.525C58.9635 78.0737 59.8273 78.0057 61.5936 77.5836L64.5244 76.8848C65.1989 76.7247 65.8637 76.4869 66.4945 76.2006C67.6494 75.6717 67.8289 75.5795 68.6053 74.643C69.1002 74.0462 69.7117 73.5658 70.4492 73.3329L72.1524 72.7942C72.8318 72.5759 73.5111 72.2168 74.0788 71.7801L75.9761 70.3147C76.9806 69.5383 77.5532 68.6115 78.6353 67.5342C79.072 67.0975 79.5475 66.6462 79.892 66.1222C80.3239 65.4574 80.6927 64.715 80.9499 63.9774L81.6146 62.0947C81.7651 61.6628 81.9106 61.1048 81.8961 60.6341C81.8233 58.3146 81.2895 55.5779 79.8484 53.7485C79.3874 53.1662 78.8973 52.6567 78.4023 52.1132L77.262 50.8662C76.3692 49.886 75.3065 49.1047 74.2535 48.2992L73.22 47.5034C72.1476 46.6785 72.3368 45.3247 71.2159 44.7861L69.9688 44.1892C69.3914 43.9175 68.8043 43.6263 68.2899 43.2576L65.3639 41.1565C64.6506 40.647 63.9518 40.1326 63.1803 39.7201L60.6231 38.3566C59.8321 37.9345 59.0897 37.5705 58.2502 37.192C57.8669 37.0125 57.3283 37.1144 56.9741 37.3085C56.4451 37.5996 55.9745 37.8131 55.4213 38.0169L54.6449 38.3032C54.4848 38.3615 54.378 38.8758 54.5187 39.0068C55.5038 39.9239 55.7707 39.8026 56.6538 40.6906C57.173 41.2098 57.634 41.7387 58.0998 42.2968L59.3129 43.7477C60.3659 45.0044 60.7444 46.727 60.9045 48.3817C60.9239 48.5855 61.2054 51.2155 61.4917 51.002L61.6809 50.8662L62.3117 50.4003L63.3016 49.6676C63.6316 49.4201 64.1799 49.2357 64.3303 49.5075C64.4759 49.7695 64.1848 50.1771 63.9615 50.3372L63.0541 50.9729C63.0202 50.9972 63.025 51.201 63.059 51.1913L64.1217 50.9778C64.6118 50.8807 65.0727 50.8807 65.5822 50.9001C65.8831 50.9098 66.2131 51.4679 66.0044 51.6425C65.7181 51.8852 64.5438 51.6717 63.0833 52.0744C62.5204 52.2297 61.8556 52.4335 61.3898 52.7634C60.5503 53.3603 59.837 53.9863 59.0752 54.6607C57.5175 56.034 56.5325 55.7331 54.3343 56.5629C52.9951 57.0675 51.7092 57.5819 50.4621 58.2904C49.8798 58.6252 49.414 59.0813 48.856 59.5229C47.672 60.4739 46.8762 62.7012 47.6428 62.3179C49.5353 61.3765 51.9858 63.036 52.2332 64.9673L52.5826 67.7235C52.636 68.1165 52.6603 68.5484 52.7282 68.9172L52.9854 70.3438L53.3833 72.6099C53.6404 74.0753 53.5774 76.4724 52.6166 77.6078C52.1216 78.1998 51.4374 78.6171 50.6805 78.8258ZM49.8313 36.1633C48.5697 35.8722 48.1135 36.6486 46.1629 36.3623C45.9833 36.3332 45.6048 36.1196 45.5369 35.9692L45.2749 35.3627C44.9789 34.6833 44.0763 34.9114 43.5086 35.1298C42.2615 35.6101 41.0436 35.6587 39.7431 35.4063L38.069 35.0812C37.8264 35.0327 37.2878 35.1589 37.0985 35.3093C36.7589 35.5762 36.6327 36.2749 36.6958 36.6146C36.7249 36.7796 37.1131 37.0513 37.2635 37.0319L38.4863 36.8815C38.6222 36.8669 38.9667 36.9009 39.1026 36.9737C39.2724 37.061 39.0977 37.6239 38.8988 37.6579L37.9574 37.8083C37.3218 37.9102 36.6279 38.0072 36.0747 38.2935L34.9489 38.871L33.2845 39.7056C32.217 40.2394 31.2368 40.8944 30.4507 41.8018C29.1697 43.2915 29.8733 44.3736 29.0775 45.7226C27.5732 48.2555 25.3994 48.6874 25.3023 49.6094L25.2198 50.4197C25.0937 51.6037 23.7835 52.3219 22.7257 53.0303C21.8668 53.6029 22.3763 54.8791 22.8033 55.573C23.4778 56.6696 24.3949 56.4173 25.4382 57.5528C26.6658 58.8872 27.9081 59.1347 29.7471 59.6345C30.0577 59.7218 30.572 59.5326 30.8147 59.3385C32.6537 57.8682 33.0807 58.0963 34.7548 56.9656L35.9194 56.1844C36.1669 56.0146 36.7831 55.7817 37.0791 56.0146C37.1471 56.0679 37.2538 56.4707 36.6473 56.8346L35.3177 57.6401C34.8228 57.941 34.3521 58.2467 33.8329 58.5039C33.0565 58.8921 32.3238 59.2997 31.6202 59.7946L29.7326 61.1193C29.3056 61.4202 28.534 61.9782 28.4612 62.5847C31.3339 63.2689 32.2704 61.3716 34.1289 62.2645C35.1479 62.7497 35.0411 63.9143 34.4831 64.7829C33.6291 66.1028 32.547 65.9232 32.4257 66.622C32.2461 67.6701 32.7993 68.6551 33.7601 69.0579C34.4103 69.3345 35.1576 69.4412 35.8854 69.3054C36.6667 69.1646 37.0937 68.4804 38.5737 67.9321L39.3112 67.6604C40.6699 67.1606 41.0775 65.4768 40.6554 64.2831L40.3205 63.332C40.0245 62.4926 39.8935 61.5706 40.0585 60.6875C40.1895 59.9644 40.7621 59.4501 41.5094 59.421C42.0189 59.3967 42.6546 59.552 43.0719 59.8577C44.5179 60.9107 44.4548 61.4881 45.896 62.1626C46.0464 62.2305 46.4734 62.0801 46.5219 61.9297L46.75 61.2358C46.9635 60.5807 47.2983 59.9014 47.7933 59.4258C48.8705 58.3777 49.5304 57.7275 50.8891 57.1015C52.0391 56.5726 53.1406 56.1068 54.3343 55.67C55.9793 55.0635 57.0226 55.2527 58.3036 54.1998L60.0165 52.7926C60.7492 52.1957 60.5697 51.3514 60.4241 50.6332C59.9195 48.1682 60.1378 46.0962 58.5899 44.2086L57.2701 42.5976C56.7169 41.928 56.0861 41.3651 55.4019 40.8216L54.3101 39.9482C52.9126 38.837 51.6558 38.6526 51.0638 37.2551C50.8406 36.7262 50.4184 36.2943 49.8313 36.1633ZM46.5074 77.3507C48.099 78.0349 50.3311 78.5832 51.7626 77.2924C52.6603 76.4821 52.8349 74.2742 52.6554 73.1921L52.1459 70.1788L51.8208 68.0098L51.4035 64.9479C51.3307 64.419 50.9425 63.8658 50.5349 63.5213C48.8365 62.0801 47.5264 63.7057 46.3084 63.167L44.9109 62.5508C44.6198 62.4198 44.2413 62.0898 44.0035 61.8569L42.839 60.736C42.5187 60.4254 41.9752 60.2653 41.4657 60.2653C40.5049 60.275 40.8203 62.3712 41.2182 63.3272C41.917 64.9916 41.8782 66.85 40.4127 68.0292C39.8305 68.495 38.8503 68.592 37.346 69.5674C36.9966 69.7954 36.5454 70.0526 36.1281 70.1254C34.7111 70.3632 33.1147 70.0769 32.2219 68.9075C31.6056 68.102 30.9796 66.1707 32.1297 65.5302L32.8769 65.1129C33.7552 64.6228 34.5171 63.3708 33.7698 63.0166C32.7993 62.5605 32.3286 63.167 31.3339 63.3708C30.0043 63.6426 28.7087 63.7008 27.5102 63.1234L26.0835 62.4392C25.3314 62.0752 24.4483 62.0413 23.6767 62.4149C22.09 63.1719 21.2505 64.0211 20.2121 65.4234C19.6881 66.1319 19.3338 66.9665 19.0961 67.8108L18.606 69.5674C18.475 70.0284 18.1692 70.5088 17.9218 70.9309L17.519 71.62C17.388 71.8432 17.6403 72.3478 17.8635 72.5225L18.8826 73.3183C19.6395 73.9152 20.314 74.2014 21.236 74.6042L22.9877 75.3757C23.3613 75.5407 23.8272 75.7348 24.2348 75.8076L30.6448 76.9285C32.1636 77.1954 33.5902 77.0741 35.1333 76.88C36.5211 76.7004 37.3315 75.7057 39.7577 76.0065C41.4609 76.2201 43.0816 76.4239 44.7751 76.7296C45.3574 76.8315 45.9591 77.1178 46.5074 77.3507ZM47.0169 5.5591C48.8899 5.63189 50.53 5.85025 52.0634 6.84985C53.3541 7.68446 55.2078 9.2712 56.0084 10.5134L57.3331 12.5563C57.6825 13.0949 57.9494 13.7694 58.0804 14.4051L58.5899 16.8216L59.1188 19.7864C59.4245 21.5139 60.2931 23.2898 61.5887 24.469C63.6413 26.342 63.3695 29.5689 61.5305 31.209C60.9336 31.7379 60.1281 31.7622 60.0553 32.5337L59.934 33.8584C59.7496 35.8139 58.1775 36.1924 58.8665 36.5418L61.6421 37.9393L63.8354 39.1087C65.2329 39.856 66.0869 40.71 67.4407 41.6271L69.11 42.7578C70.2212 43.505 70.6094 43.4759 71.8613 44.1892C73.1181 44.9074 72.8609 46.2127 73.9769 47.0424L75.1949 47.9498C76.2188 48.7117 77.1844 49.556 78.0481 50.4877L79.334 51.8706C81.8961 54.6316 82.1969 56 82.6967 59.7655C82.8132 60.6292 82.7016 61.4978 82.425 62.313L81.7893 64.2055C81.6632 64.5791 81.4933 65.0158 81.3089 65.3458L80.6927 66.4376C80.4549 66.8597 80.0716 67.2819 79.7125 67.6361C79.0623 68.2766 78.48 68.8929 77.8783 69.5771C77.2911 70.2467 76.6603 70.8484 75.9567 71.387L74.2972 72.6681C73.7537 73.0854 73.0404 73.4154 72.3853 73.6192L70.8762 74.0898C69.2992 74.5799 69.0226 75.7397 68.154 76.2443C66.1985 77.3798 65.558 77.4914 63.3987 78.0252C62.2535 78.3114 61.1374 78.5298 59.9826 78.7773L56.7703 79.4712C56.0569 79.6265 55.3582 79.7575 54.6158 79.8303C52.3303 80.0535 51.8984 80.8153 50.598 80.4417L49.1568 80.0195C48.0796 79.7089 48.5454 79.0539 47.4245 78.6074L45.9008 78.0057C45.1002 77.6903 44.2413 77.4429 43.3096 77.3264L40.7718 77.0061L39.2288 76.8363C37.5304 76.6519 36.5065 77.6758 34.8858 77.7922L32.9303 77.9378C32.2267 77.9912 31.46 77.9281 30.7613 77.8214L27.845 77.3749L23.9922 76.6374C23.4826 76.5403 22.9634 76.288 22.4831 76.0793L21.0128 75.4485C20.0763 75.0409 19.3581 74.5702 18.7176 74.6479L17.8878 74.7449C16.2865 74.9293 14.5979 73.7647 13.7924 72.5662L12.3366 70.3923C11.9339 69.7954 11.4098 69.3151 10.7693 68.9948L8.16356 67.6895C7.18337 67.1994 6.31964 66.1173 5.70338 65.1905C5.24725 64.5063 4.98037 63.7008 4.84936 62.8807C4.62614 61.5269 4.30588 60.275 3.85461 58.994C3.27717 57.3635 3.30629 55.7234 3.95166 54.1221L4.82509 51.9288C5.43165 50.4197 6.98442 47.5422 8.12959 46.5135L9.39122 45.3781C11.0459 43.8932 11.8757 44.4949 13.1324 43.1362C13.54 42.6995 13.9671 42.3065 14.4329 41.9571L16.7426 40.2054C17.0677 39.9628 17.4948 39.7541 17.8684 39.5455C18.4652 39.2155 18.9942 38.8176 19.5328 38.41L21.2069 37.1387C21.4786 36.93 21.9833 36.765 22.3181 36.6146L24.424 35.6538C24.7734 35.4985 25.0257 35.3384 25.4673 35.0764C24.6861 34.0574 24.2299 34.1205 23.4681 32.7957C23.0653 32.0921 22.9586 31.0683 23.4875 30.3744L23.9533 29.7678C24.0746 29.6077 23.9776 29.1225 23.8029 29.0157C22.5073 28.2199 22.42 28.4965 21.105 27.8608C19.5765 27.1233 19.6638 24.9736 20.3286 23.6975C20.6585 23.0618 21.0613 22.5086 21.4592 21.9166L23.0265 19.568C23.7301 18.5102 23.6137 17.1661 23.109 16.0452C22.8858 15.5454 22.6917 14.9825 22.648 14.4487C22.4733 12.1099 23.8854 9.8729 25.7875 8.72773C28.5389 7.07791 30.4265 8.14059 33.9202 7.55345C35.1479 7.34479 35.1479 6.15595 36.9675 4.70508C37.2635 4.46731 37.5935 4.19557 37.9137 4.01118C38.7775 3.51138 39.8062 3.39492 40.7961 3.50168C42.0723 3.63754 42.5818 3.88016 43.5717 4.60803C44.0375 4.95255 44.4403 5.30192 44.8624 5.71923C45.6291 6.48106 46.2017 5.52514 47.0169 5.5591ZM50.399 33.0869L49.5498 35.0181C49.5304 35.0667 49.6081 35.2511 49.6663 35.2705L50.7193 35.6732C51.6558 36.0274 51.7674 37.0222 52.1896 37.4832C52.5389 37.8665 53.3056 38.5895 53.7472 38.08C54.509 37.1969 54.936 37.488 55.9502 36.9737L57.2798 36.2992C57.9445 35.9644 58.5608 35.3433 58.8616 34.6494C59.114 34.0671 59.1771 33.3829 59.1916 32.7375L59.2159 31.6457C59.2207 31.4904 59.4925 31.1993 59.638 31.1702L60.2494 31.044C61.5014 30.7771 62.5301 28.5208 62.0157 26.7205C61.6033 25.2745 60.3853 24.862 59.5895 23.4451C58.7549 21.9506 58.5026 21.3489 58.2211 19.6942L57.7456 16.9477L57.2701 14.6283C57.1633 14.1285 56.9449 13.5462 56.6684 13.124L55.2854 10.9987C54.1451 9.25179 51.5442 7.17011 49.4091 6.6606C48.1087 6.3549 46.8616 6.28211 45.7164 6.89837C44.8624 7.3642 44.5664 6.58296 44.0326 6.07831C43.5231 5.60277 42.9554 5.17091 42.3489 4.80698C40.9222 3.9578 38.7338 4.12764 37.3994 5.40382C36.788 5.99097 36.2688 6.59267 35.769 7.28171C33.7116 10.1204 28.5534 6.94689 25.278 10.1446C24.8996 10.5134 24.5939 10.9696 24.2882 11.4063C23.5651 12.4544 23.2643 13.75 23.6573 14.9922C23.7641 15.3367 23.8903 15.6764 24.0261 16.0258C24.7297 17.8697 24.3901 19.1216 23.3662 20.6356L21.7795 22.9696C21.5562 23.3093 21.3282 23.6392 21.1292 24.008C20.6488 24.9009 20.445 26.6332 21.4592 27.133C22.9198 27.8463 23.2158 27.5115 24.2008 28.2927L24.6569 28.6518C24.7249 28.71 24.9626 28.4237 24.9918 28.3364C25.7827 25.8471 25.0451 26.1625 24.6618 24.6049C24.5793 24.2749 24.7782 23.6635 25.0403 23.4451C25.8797 22.7415 26.8405 22.6057 27.7431 23.1928L28.4758 23.6635C29.3638 24.2409 29.8636 23.3335 30.8535 23.0327C31.4261 22.858 32.0326 23.154 32.2364 23.712C32.3335 23.9837 32.4111 24.3816 32.4208 24.6534L32.4499 25.488C32.5033 26.9292 35.8563 26.1285 36.7686 25.8665C37.6129 25.6287 38.5009 25.6772 39.3112 26.0218C40.4273 26.4924 40.2332 28.084 39.8305 28.8944C39.5345 29.4912 39.1851 29.9716 38.7775 30.5151C38.53 30.8451 38.2146 31.4274 38.564 31.6797C38.8794 31.9126 39.5539 31.5001 39.7286 31.306C40.932 29.9668 42.0237 27.0068 43.6784 26.3614C45.3816 25.7015 46.8373 25.6142 48.4484 26.4827C49.1762 26.8758 49.7973 27.4581 50.137 28.2296C50.7921 29.7387 51.0832 31.5244 50.399 33.0869ZM49.6906 32.5337C50.1515 31.374 49.8701 30.0299 49.4722 28.8313C48.8899 27.0941 46.5365 26.3226 44.6829 26.8661C44.1782 27.0117 43.5959 27.2931 43.2563 27.691C42.8147 28.2102 42.378 28.7294 42.048 29.2826L40.8883 31.2187C40.3205 32.1601 39.2773 32.8879 38.103 32.4755C37.3945 32.228 37.2975 31.0731 37.9477 30.19L38.8551 28.9623C39.1026 28.6227 39.2579 28.0404 39.2967 27.5794C39.3258 27.1718 38.9764 26.7399 38.5882 26.6623C36.5211 26.2498 36.7249 27.4387 32.7799 27.0262C32.2073 26.968 31.7075 26.4342 31.6638 25.8907L31.5813 24.8087C31.5716 24.6388 31.4988 24.27 31.4503 24.0614C31.4212 23.9207 30.999 23.7994 30.8826 23.8818L30.1887 24.3574C29.5579 24.7941 28.8155 24.8523 28.1555 24.4399L27.2675 23.8818C26.9812 23.7072 26.4669 23.6392 26.0835 23.7266C25.7778 23.7945 25.4479 24.3234 25.5595 24.5612L25.8555 25.2066C26.0253 25.5802 26.2437 26.0557 26.2388 26.4779C26.2194 27.9482 25.6662 29.2583 24.6084 30.2288C24.0213 30.7723 23.8078 31.5438 24.1911 32.3105C24.9966 33.9312 27.0055 34.3873 26.1466 35.6296C25.9962 35.8431 25.8749 36.0274 25.7778 36.1924C25.4479 36.7796 25.8021 37.3473 26.3456 37.5948C27.8013 38.2499 27.9905 38.7594 29.0969 39.9676L29.7374 40.6664C29.8733 40.8119 30.3391 40.7731 30.4847 40.647L31.3436 39.89C31.7997 39.4872 32.416 39.1912 32.9691 38.9195L34.6723 38.0946L35.5506 37.6821C35.6962 37.6142 35.9534 37.2939 35.9437 37.1435L35.9048 36.5127C35.866 35.9013 36.0116 35.2705 36.4095 34.761C36.8705 34.1738 37.9477 34.2029 38.6416 34.3388L40.3205 34.6591C42.5333 35.0812 43.1689 33.8827 45.1633 34.1059C46.0901 34.2126 45.7989 35.1443 46.5122 35.649C47.9049 35.649 48.691 35.0618 49.1277 33.9652L49.6906 32.5337Z" fill="black"/>
</svg>
